<svg xmlns="http://www.w3.org/2000/svg" width="400" height="400" viewBox="0 0 200 200"><defs><style>.cls-1{fill:#c9b193;}.cls-2{fill:#798533;}.cls-3{fill:#182f21;}.cls-4{fill:#95ab3d;}.cls-5{fill:#6b7224;}.cls-6{fill:#fff;}.cls-7{fill:#120e20;}</style></defs><title>card1</title><g id="Layer_1" data-name="Layer 1"><rect class="cls-1" width="200" height="200"/></g><g id="Layer_2" data-name="Layer 2"><path class="cls-2" d="M178.563,152.4c-1.358-9.7,7.567-19.693,16.3-21.827C195.443,143.38,184.577,152.4,178.563,152.4Z"/><path class="cls-3" d="M174.522,145.647c-.693-8.328,3.683-17.775,10.142-18.843C187.013,131.287,184.183,142.337,174.522,145.647Z"/><path class="cls-4" d="M163.608,113c7.618,2.337,15.565,21.555,8.042,33.587C162.136,139.835,158.415,123.128,163.608,113Z"/><path class="cls-5" d="M151.774,131.475c8.565,3.482,16.014,11.768,14.691,20.053C151.635,147.977,150.729,135.305,151.774,131.475Z"/><path class="cls-4" d="M151.479,149.282c3.9-.608,11.784,1.354,13.87,6.26C155.482,156.725,152.268,151.988,151.479,149.282Z"/><path class="cls-3" d="M176.428,162.4c-1.713-6.389,4.02-13.64,8.626-19.467q.624-.789,1.209-1.535l.232.181c-.388.5-.794,1.01-1.211,1.537-4.564,5.775-10.246,12.962-8.572,19.208Z"/><path class="cls-3" d="M177.179,160.44c-6.322-12.452-1.723-18.516,1.32-22.529.379-.5.739-.974,1.038-1.414l.219.15c-.3.444-.663.921-1.045,1.425-3,3.96-7.54,9.943-1.294,22.247Z"/><path class="cls-3" d="M180.709,153.454c3.263-3.9,9.2-6.12,12.453-3.818C192.26,152.582,186.308,156.156,180.709,153.454Z"/><path class="cls-3" d="M175.53,160.994c2.592-8.095,7.177-8.753,10.211-9.188.378-.054.736-.105,1.054-.168l.031.159c-.321.063-.681.115-1.062.169-2.993.431-7.518,1.08-10.079,9.078Z"/><path class="cls-3" d="M171.862,161.261l-.424-.085c2.192-10.908-1.752-23.278-3.012-26.809l.406-.145C170.1,137.78,174.076,150.244,171.862,161.261Z"/><path class="cls-3" d="M169.217,160.53c-.9-7.971-5.549-13.573-9.976-18l.244-.245c4.472,4.469,9.164,10.128,10.077,18.206Z"/><path class="cls-3" d="M168.872,161.871c-.63-6.076-6.094-7.924-10.151-8.786l.059-.276c4.141.88,9.723,2.775,10.372,9.033Z"/><polygon class="cls-6" points="184.487 158.546 163.256 158.546 163.256 161.507 165.505 161.507 166.916 177.017 167.991 177.017 170.462 176.981 171.537 176.981 172.039 176.981 176.66 176.981 177.735 176.981 178.809 176.981 181.637 161.507 184.487 161.507 184.487 158.546"/></g><g id="Layer_3" data-name="Layer 3"><rect class="cls-7" x="146.623" y="176.757" width="53.377" height="0.814"/><rect class="cls-6" x="146.623" y="177.571" width="53.377" height="4.883"/><rect class="cls-7" x="152.336" y="169.37" width="0.814" height="53.377"/><rect class="cls-7" x="191.392" y="174.134" width="0.813" height="49.114"/></g><g id="Layer_4" data-name="Layer 4"><rect class="cls-7" x="34.249" y="-23.199" width="0.285" height="57.806"/><path class="cls-7" d="M37.966,44.318A2.932,2.932,0,0,1,34.836,47a2.932,2.932,0,0,1-3.129-2.682,2.932,2.932,0,0,1,3.129-2.683A2.932,2.932,0,0,1,37.966,44.318Z"/><path class="cls-6" d="M48.621,43.945,37.269,33.176c.008-.087.026-.17.026-.258V28.894a2.683,2.683,0,0,0-5.365,0v4.024a2.639,2.639,0,0,0,.085.632c-2.159,2.037-10.483,9.877-11.261,10.4Z"/></g></svg>