<svg id="Layer_1" data-name="Layer 1" xmlns="http://www.w3.org/2000/svg" xmlns:xlink="http://www.w3.org/1999/xlink" width="1920" height="1080" viewBox="0 0 1920 1080"><defs><style>.cls-1{fill:none;}.cls-2{fill:#c9b193;}.cls-3{fill:#e0c6a9;fill-rule:evenodd;}.cls-4{fill:#0a2319;}.cls-5{fill:#ffbb94;}.cls-6{fill:#912a3c;}.cls-7{fill:#f4d06f;}.cls-8{clip-path:url(#clip-path);}.cls-9{fill:#fff;}.cls-10{fill:#839635;}.cls-11{fill:#7a182d;}.cls-12{fill:#5cb7a8;}.cls-13{clip-path:url(#clip-path-2);}.cls-14{fill:#95ab3d;}.cls-15{fill:gray;}.cls-16{fill:#231f20;}.cls-17{fill:#120e20;}.cls-18{fill:#798533;}.cls-19{fill:#182f21;}.cls-20{fill:#6b7224;}.cls-21{fill:#fbfbfb;}.cls-22{fill:#527872;}.cls-23{fill:#ff7543;}.cls-24{fill:#030000;}.cls-25{fill:#443b35;}.cls-26{fill:#082317;}</style><clipPath id="clip-path"><path class="cls-1" d="M1471.732,891.544l-6.309,39.261H1386.44c-.206-5.358,3.252-10.212,7.747-12.917s9.728-3.709,14.818-4.834,10.3-2.522,14.411-5.818a19.859,19.859,0,0,0,7.239-15.082"/></clipPath><clipPath id="clip-path-2"><path class="cls-1" d="M1573.827,891.544l4.033,39.261h-84.93c-.208-5.358,3.346-10.212,7.963-12.917s9.994-3.709,15.222-4.834,10.59-2.522,14.809-5.818a19.656,19.656,0,0,0,7.438-15.082"/></clipPath></defs><title>hero</title><polygon class="cls-2" points="1985.758 1116.719 -31.725 1116.378 -33.614 -15 1983.657 -14.884 1985.758 1116.719"/><path class="cls-3" d="M1274.745,782.211a38.8,38.8,0,0,0,38.69-38.689h0a38.8,38.8,0,0,0-38.69-38.688h-4.6a40.342,40.342,0,0,1-40.224-40.223h0a40.345,40.345,0,0,1,40.224-40.225h89.419s65.394-3.012,77.984-40.378,22.746-56.156,94.64-56.156h53.243a26.77,26.77,0,0,0,26.691-26.692h0a26.772,26.772,0,0,0-26.691-26.693h-17.69a18.475,18.475,0,0,1-18.421-18.419h0a18.475,18.475,0,0,1,18.421-18.421h109.739c47.325,0,49.413-22.133,68.15-22.133h88.961a14.158,14.158,0,0,1,14.116,14.118h0a14.159,14.159,0,0,1-14.116,14.117h-13.558a20.514,20.514,0,0,0-20.454,20.454h0a20.514,20.514,0,0,0,20.454,20.453h76.909a52.7,52.7,0,0,1,52.54,52.543h0a52.7,52.7,0,0,1-52.54,52.54h-60.82a50.687,50.687,0,0,0-50.537,50.537h0a50.684,50.684,0,0,0,50.536,50.534h0c65.735,0,119.519,53.785,119.519,119.523h0c0,65.734-53.784,119.519-119.52,119.519h-637.8a74.025,74.025,0,0,1-73.81-73.811h0a74.025,74.025,0,0,1,73.81-73.809h75.428Zm613.575-352.6a14.119,14.119,0,1,0-14.119,14.117A14.119,14.119,0,0,0,1888.32,429.611Z"/><path class="cls-3" d="M1692.661,689.136h75.428a74.026,74.026,0,0,1,73.81,73.81h0a74.025,74.025,0,0,1-73.81,73.809h-637.8c-65.736,0-119.52-53.784-119.52-119.518h0c0-65.738,53.784-119.524,119.519-119.524h0a50.684,50.684,0,0,0,50.536-50.534h0a50.687,50.687,0,0,0-50.537-50.537h-60.82a52.694,52.694,0,0,1-52.54-52.539h0a52.7,52.7,0,0,1,52.54-52.543h76.909a20.514,20.514,0,0,0,20.454-20.453h0a20.514,20.514,0,0,0-20.454-20.454h-13.558a14.159,14.159,0,0,1-14.116-14.117h0a14.158,14.158,0,0,1,14.116-14.118h88.961c18.737,0,20.825,22.133,68.15,22.133h109.739a18.475,18.475,0,0,1,18.421,18.42v0a18.475,18.475,0,0,1-18.421,18.419h-17.69a26.771,26.771,0,0,0-26.691,26.692h0a26.769,26.769,0,0,0,26.691,26.692h53.243c71.894,0,82.048,18.787,94.64,56.157s77.984,40.378,77.984,40.378h89.418a40.346,40.346,0,0,1,40.225,40.225h0a40.344,40.344,0,0,1-40.225,40.224h-4.6a38.8,38.8,0,0,0-38.69,38.687h0a38.8,38.8,0,0,0,38.69,38.689ZM1093.205,350.653a14.118,14.118,0,1,0-14.119-14.117A14.12,14.12,0,0,0,1093.205,350.653Z"/><path class="cls-4" d="M1650.657,779.407a7.182,7.182,0,0,1-7.074,7.288H1474.594a7.185,7.185,0,0,1-7.079-7.288h0a7.186,7.186,0,0,1,7.079-7.289h168.989a7.183,7.183,0,0,1,7.074,7.289Z"/><polygon class="cls-4" points="1467.397 929.645 1465.566 927.772 1611.492 776.339 1613.323 778.212 1467.397 929.645"/><polygon class="cls-4" points="1644.062 929.645 1645.892 927.772 1499.964 776.339 1498.133 778.212 1644.062 929.645"/><path class="cls-5" d="M1546.623,637.282l-5.348,17.148-32.753-49.8s-29.411-28.071-34.76-26.067,10.739,16.708,10.739,16.708-12.906,10.862-6.724,20.22,10.53,6.352,10.53,6.352l38.762,92.9s6.018,17.544,26.82,15.044,24.816-24.315,22.31-35.349l2-55.138Z"/><polygon points="1485.916 618.862 1478.771 607.333 1479.2 607.068 1486.343 618.597 1485.916 618.862"/><polygon points="1488.856 612.537 1481.212 606.394 1481.521 606.004 1489.169 612.144 1488.856 612.537"/><path d="M1498.158,617.388c-1.915-.023-3.245-.623-3.959-1.785-1.46-2.39.192-6.348.633-7.3l-9.771-6.022.26-.426,10.158,6.261-.1.205c-.023.045-2.238,4.586-.75,7.022.619,1.009,1.808,1.525,3.539,1.548Z"/><path d="M1499.47,603.9c-1.213-.36-11.84-3.624-11.84-6.847a1.017,1.017,0,0,1,.5-.933c2.007-1.179,10.115,3.214,11.032,3.723l-.241.433c-2.426-1.332-9.04-4.609-10.534-3.725a.52.52,0,0,0-.25.5c0,2.415,8.286,5.417,11.476,6.368Z"/><rect x="1553.306" y="650.505" width="0.501" height="42.334" transform="translate(-101.488 1025.946) rotate(-35.463)"/><path class="cls-6" d="M1578.2,639.306l-31.581-2.024-5.348,17.148-25-38.015c-8.088,4.845-16.147,9.747-23.977,14.989l34.775,83.345s6.018,17.544,26.82,15.044,24.816-24.315,22.31-35.349Z"/><rect class="cls-7" x="1553.306" y="650.505" width="0.501" height="42.334" transform="translate(-101.488 1025.946) rotate(-35.463)"/><path d="M1471.732,891.544l-6.309,39.261H1386.44c-.206-5.358,3.252-10.212,7.747-12.917s9.728-3.709,14.818-4.834,10.3-2.522,14.411-5.818a19.859,19.859,0,0,0,7.239-15.082"/><g class="cls-8"><rect class="cls-9" x="1384.936" y="924.06" width="101.739" height="1.55"/></g><path class="cls-10" d="M1607.742,706.521s-131.477-1.19-151.409,24.988c-19.017,24.983-37.182,165.684-37.182,165.684h58.3l25.578-115.709s53.843-9.822,78.829-22.013"/><rect class="cls-9" x="1422.226" y="874.443" width="60.106" height="1.549"/><polygon points="1464.937 897.381 1463.431 897.006 1477.558 840.039 1479.062 840.416 1464.937 897.381"/><polygon class="cls-5" points="1623.603 599.983 1620.565 612.578 1588.735 610.929 1592.43 601.148 1594.869 578.299 1616.714 563.701 1623.603 599.983"/><path d="M1607.665,578.078a26.879,26.879,0,0,1-14.391,15.183l1.521-14.271,6.513-4.382C1603.443,575.767,1605.49,576.916,1607.665,578.078Z"/><path class="cls-6" d="M1623.6,599.983s-27.515,18.641-31.173,1.16c0,0-21.944-1.359-28.784,6.07-5.342,5.8-22,40.41-27.055,51.021,6.155,16.727,12.683,33.317,19.43,49.818l6.631-.409,84.858-31.636,4.041-23.85,7.2-42.473C1643.514,600.894,1623.6,599.983,1623.6,599.983Z"/><path class="cls-11" d="M1653.409,689.091l-42.1,13.262s-10.582,1.3-24.738,4.4c-6.886.161-15.058.442-23.92.892l8.015-44.254,56.09-10.766,10.289-4.856,14.5,4.39-4.041,23.85Z"/><path class="cls-12" d="M1586.572,706.751c-5.786,1.267-12.168,2.833-18.67,4.734a46.1,46.1,0,0,1-5.261-3.776l.011-.066C1571.514,707.193,1579.686,706.912,1586.572,706.751Z"/><path d="M1573.827,891.544l4.033,39.261h-84.93c-.208-5.358,3.346-10.212,7.963-12.917s9.994-3.709,15.222-4.834,10.59-2.522,14.809-5.818a19.656,19.656,0,0,0,7.438-15.082"/><g class="cls-13"><path class="cls-9" d="M1524.914,916.57a22.8,22.8,0,0,1-14.229-4.736l.955-1.219c4.756,3.73,11.03,5.162,17.665,4.024,5.845-1,11.179-5.256,14.642-11.674,3.526-6.559,4.6-15.129,3.287-26.205l1.539-.187c1.355,11.407.221,20.276-3.467,27.125s-9.42,11.388-15.735,12.468A27.934,27.934,0,0,1,1524.914,916.57Z"/><rect class="cls-9" x="1484.884" y="924.06" width="101.741" height="1.55"/></g><path d="M1529.6,910.017c-2.285,0-4.589-3.035-5.852-4.7-.123-.163-.231-.3-.32-.42a22.851,22.851,0,0,1-3.891-7.384h0c-.608-1.956-.131-3.56,1.264-4.265a3.311,3.311,0,0,1,3.071.127,5.47,5.47,0,0,1,1.741,1.775,42.674,42.674,0,0,1,4.156,7.549c.07.159.18.39.311.661,1.032,2.151,1.983,4.363,1.273,5.7a1.776,1.776,0,0,1-1.378.931A2.376,2.376,0,0,1,1529.6,910.017Zm-8.58-12.963a21.371,21.371,0,0,0,3.631,6.886c.093.122.2.268.33.434.894,1.182,3.269,4.308,4.76,4.081.194-.025.226-.085.244-.12.4-.764-.881-3.432-1.3-4.305-.144-.3-.264-.551-.34-.732a41.285,41.285,0,0,0-4-7.271,3.975,3.975,0,0,0-1.242-1.306,1.788,1.788,0,0,0-1.6-.1c-.962.492-.657,1.866-.482,2.434Z"/><path d="M1528.425,910.387a14.84,14.84,0,0,1-4.378-.952c-.154-.052-.3-.1-.408-.132a17.5,17.5,0,0,1-6.1-3.339h0c-1.324-1.13-1.678-2.585-.92-3.814a3.245,3.245,0,0,1,2.38-1.458,4.552,4.552,0,0,1,2.118.4,32.686,32.686,0,0,1,6.335,3.306c.12.082.293.185.505.31,1.674,1.009,3.32,2.105,3.445,3.443a1.726,1.726,0,0,1-.633,1.488A3.436,3.436,0,0,1,1528.425,910.387Zm-9.108-8.157a1.376,1.376,0,0,0-.168.01,1.683,1.683,0,0,0-1.207.725c-.459.743.183,1.458.607,1.817h0a15.869,15.869,0,0,0,5.558,3.041c.119.037.262.083.431.139,1.146.385,4.2,1.407,5.2.522.131-.114.124-.169.124-.19-.061-.673-2.049-1.868-2.7-2.26-.237-.146-.438-.26-.57-.352a30.761,30.761,0,0,0-6.032-3.147A3.511,3.511,0,0,0,1519.317,902.23Z"/><path class="cls-14" d="M1654.74,759.471c-16.181,15.642-77.938,18.145-77.938,18.145l6.25,119.577h-55.326s-24.188-126.622-10.712-154.976c6.965-14.655,29.567-24.5,50.888-30.732a308.317,308.317,0,0,1,43.408-9.132l42.1-13.262,1.331-.416s1.22,3.649,2.7,9.352a171.523,171.523,0,0,1,4.733,25.684C1663.514,737.566,1662.51,751.959,1654.74,759.471Z"/><path class="cls-10" d="M1662.173,723.711c-50.81,10.486-82.451-4.722-94.271-12.226a308.317,308.317,0,0,1,43.408-9.132l42.1-13.262,4.031,8.936A171.523,171.523,0,0,1,1662.173,723.711Z"/><path class="cls-15" d="M1657.44,698.027l-4.031-8.936,1.331-.416S1655.96,692.324,1657.44,698.027Z"/><polygon class="cls-9" points="1654.356 760.175 1641.366 747.794 1636.785 711.75 1659.251 705.77 1659.647 707.271 1638.492 712.897 1642.833 747.049 1655.427 759.056 1654.356 760.175"/><rect class="cls-9" x="1523.957" y="874.443" width="58.024" height="1.549"/><polygon points="1569.605 897.241 1566.155 840.795 1578.925 829.244 1579.966 830.394 1567.748 841.443 1571.152 897.144 1569.605 897.241"/><path class="cls-5" d="M1562.779,676.848c-5.764-.575-8.675-3.09-7.954-6.018.593-2.41,9.29-1.05,16.488,1.212a91.987,91.987,0,0,0,10.595,2.488"/><path class="cls-5" d="M1581.908,674.53l-.869,29.218s-31.455-5.749-33-9.5c-.925-2.251.836-3,.836-3s-3.253-.2-4.014-1.987a2.591,2.591,0,0,1,.833-3s-2.78-.585-2.035-3.093c.816-2.744,9.975-4.867,19.119-6.321"/><path d="M1545.836,686.623l-.278-.723c.141-.053,14.375-5.458,25.236-4.293l-.08.77C1560.028,681.228,1545.976,686.571,1545.836,686.623Z"/><path d="M1548.968,691.619l-.185-.75c.12-.028,12.075-2.925,20.889-1.131l-.156.759C1560.877,688.739,1549.088,691.6,1548.968,691.619Z"/><path class="cls-6" d="M1658.749,609.684c12.466,7.6,28.228,83.748-.03,101-29.859,18.228-83.584-4.166-83.584-4.166l2.676-36.888,54.463-8.191,4.774-13.675"/><path class="cls-5" d="M1622.551,553.9l-.651,1.295-12.066,24.222s-14.192,11.957-26.282-1.027c-6.473-6.976-7.051-23.415-2.572-36.32.136-.376.266-.751.406-1.12.027-.083.064-.162.1-.245.168-.419.329-.833.5-1.238l.062-.159.007-.025c.046-.12.1-.24.153-.362.04-.087.076-.17.113-.249.172-.387.35-.777.539-1.151.148-.327.307-.646.477-.963.074-.141.144-.273.221-.407.139-.274.286-.542.437-.812,2.389-4.227,5.484-7.6,9.244-9.408a14.757,14.757,0,0,1,2.658-.981c.426-.116.854-.2,1.294-.282.349-.06.707-.105,1.064-.13a14.708,14.708,0,0,1,2.9.021c.089,0,.179.015.273.019,8.483.931,13.6,4.929,16.678,9.678,3.816,5.882,4.483,12.958,4.528,16.806v.331c0,.024,0,.043,0,.064v.049c0,.055,0,.1,0,.15l-.006.085.006.1-.011.369c-.015.352-.025.651-.032.909-.015.344-.036.583-.042.7A.539.539,0,0,1,1622.551,553.9Z"/><path d="M1591.3,564.991a2.975,2.975,0,0,1-2.631-3.5l1.814-10.018,1.528.28-1.82,10.012a1.436,1.436,0,0,0,1.266,1.682Z"/><path d="M1598.683,553.342c-.077.767.306,1.43.853,1.485s1.054-.516,1.131-1.283-.3-1.435-.853-1.49S1598.76,552.573,1598.683,553.342Z"/><path d="M1583.619,551.824c-.079.77.3,1.434.85,1.488s1.053-.522,1.132-1.288-.305-1.432-.851-1.487S1583.7,551.059,1583.619,551.824Z"/><path d="M1602.753,547.2a3.973,3.973,0,0,1,1.153.585.907.907,0,0,1,.438.875c-.146.475-.961.592-1.675.579a12.8,12.8,0,0,1-4.576-.968c-.51-.21-1.051-.5-1.179-.888-.3-.9,1.331-1.009,1.987-.981A12.848,12.848,0,0,1,1602.753,547.2Z"/><path d="M1586.963,545.187a3.383,3.383,0,0,1,1.063.349.785.785,0,0,1,.476.723c-.073.449-.772.685-1.395.78a10.676,10.676,0,0,1-4.083-.171c-.467-.111-.973-.294-1.126-.623-.353-.769,1.053-1.109,1.628-1.186A10.783,10.783,0,0,1,1586.963,545.187Z"/><path d="M1593.075,569.3l-.411-1.5a2.42,2.42,0,0,0,1.7-2.438l1.547-.125A3.987,3.987,0,0,1,1593.075,569.3Z"/><path class="cls-5" d="M1616.708,553.03a5.057,5.057,0,0,1,4.8-1.732,7.14,7.14,0,0,1,4.4,2.857,8.978,8.978,0,0,1-11.656,13.162"/><path d="M1621.564,563.225l-1.529-.265a7.742,7.742,0,0,0-1.511-6.012l.7-1.248,3.957.5-.191,1.538-2.324-.3A9.288,9.288,0,0,1,1621.564,563.225Z"/><rect x="1596.103" y="666.763" width="1.553" height="46.703"/><path class="cls-9" d="M1586.289,704.469a3.452,3.452,0,1,1,3.452-3.451A3.456,3.456,0,0,1,1586.289,704.469Zm0-5.358a1.9,1.9,0,1,0,1.9,1.907A1.908,1.908,0,0,0,1586.289,699.111Z"/><polygon class="cls-16" points="1551.176 669.311 1539.148 651.775 1539.671 651.415 1551.701 668.955 1551.176 669.311"/><polygon class="cls-16" points="1568.598 663.896 1568.026 663.622 1585.052 628.284 1585.627 628.559 1568.598 663.896"/><polygon class="cls-16" points="1632.581 661.525 1631.968 661.357 1637.764 639.986 1638.379 640.149 1632.581 661.525"/><path class="cls-16" d="M1608.032,709.438c-.133,0-.23,0-.292,0l0-.633h.063c2.2,0,57.924-.28,58.535-23.716l.633.016C1666.358,708.874,1613.005,709.438,1608.032,709.438Z"/><polygon class="cls-16" points="1535.072 829.254 1532.583 753.978 1597.58 734.848 1597.76 735.461 1533.231 754.449 1535.706 829.231 1535.072 829.254"/><polygon class="cls-16" points="1436.289 838.124 1435.681 837.94 1463.168 746.365 1503.464 726.998 1503.737 727.569 1463.695 746.814 1436.289 838.124"/><rect class="cls-17" x="726.726" y="-32" width="1.274" height="258.4"/><path class="cls-17" d="M743.343,269.81c0,6.623-6.265,11.991-13.989,11.991s-13.989-5.368-13.989-11.991,6.262-11.99,13.989-11.99S743.343,263.188,743.343,269.81Z"/><path class="cls-9" d="M790.972,268.144,740.228,220c.036-.385.117-.757.117-1.152V200.865a11.991,11.991,0,1,0-23.982,0v17.986a11.807,11.807,0,0,0,.378,2.828c-9.651,9.1-46.861,44.15-50.338,46.465Z"/><rect class="cls-17" x="1583.386" y="-15" width="1.832" height="324.079"/><ellipse class="cls-17" cx="1586.925" cy="352.49" rx="13.989" ry="11.991"/><path class="cls-9" d="M1648.544,350.825,1597.8,302.683c.037-.385.117-.757.117-1.153V283.545a11.99,11.99,0,1,0-23.979,0V301.53a11.881,11.881,0,0,0,.376,2.83c-9.652,9.1-46.861,44.149-50.338,46.465Z"/><rect class="cls-17" x="1074.428" y="930.017" width="891.125" height="3.63"/><rect class="cls-17" x="1762.317" y="809.032" width="139.988" height="2.134"/><rect class="cls-9" x="1762.317" y="811.166" width="139.988" height="12.806"/><rect class="cls-17" x="1777.301" y="789.657" width="2.135" height="139.988"/><rect class="cls-17" x="1879.729" y="802.153" width="2.133" height="128.808"/><rect class="cls-17" x="1829.194" y="859.651" width="139.988" height="2.134"/><rect class="cls-9" x="1829.194" y="861.577" width="139.988" height="12.806"/><path class="cls-4" d="M1776.337,715.471c0,1.434-4.351,2.6-9.722,2.6h-452.6c-5.371,0-9.724-1.164-9.724-2.6h0c0-1.436,4.353-2.6,9.724-2.6h452.6c5.371,0,9.722,1.163,9.722,2.6Z"/><polygon class="cls-4" points="1323.393 931.771 1321.493 931.216 1371.566 715.471 1373.466 716.026 1323.393 931.771"/><polygon class="cls-4" points="1371.566 931.771 1373.466 931.216 1323.393 715.471 1321.493 716.026 1371.566 931.771"/><polygon class="cls-4" points="1695.305 931.771 1693.406 931.216 1743.481 715.471 1745.38 716.026 1695.305 931.771"/><polygon class="cls-4" points="1743.479 931.771 1745.379 931.216 1695.305 715.471 1693.406 716.026 1743.479 931.771"/><rect class="cls-4" x="1526.158" y="708.052" width="127.166" height="5.398"/><rect class="cls-4" x="1531.585" y="703.071" width="127.164" height="5.398"/><path class="cls-18" d="M1853.654,701.229c-5.921-42.277,32.975-85.823,71.024-95.123C1927.216,661.913,1879.861,701.229,1853.654,701.229Z"/><path class="cls-19" d="M1836.042,671.79c-3.022-36.291,16.048-77.462,44.2-82.118C1890.478,609.209,1878.144,657.364,1836.042,671.79Z"/><path class="cls-14" d="M1788.48,529.515c33.2,10.186,67.833,93.935,35.046,146.374C1782.065,646.461,1765.848,573.652,1788.48,529.515Z"/><path class="cls-20" d="M1736.9,610.029c37.327,15.174,69.792,51.284,64.026,87.392C1736.3,681.945,1732.354,626.722,1736.9,610.029Z"/><path class="cls-14" d="M1735.62,687.633c16.983-2.651,51.356,5.9,60.447,27.278C1753.065,720.069,1739.059,699.427,1735.62,687.633Z"/><path class="cls-19" d="M1844.346,744.8c-7.462-27.841,17.52-59.441,37.593-84.838,1.813-2.289,3.577-4.522,5.269-6.689l1.01.79c-1.69,2.166-3.457,4.4-5.275,6.7-19.891,25.168-44.652,56.487-37.359,83.706Z"/><path class="cls-19" d="M1847.62,736.26c-27.549-54.269-7.508-80.7,5.754-98.183,1.653-2.184,3.219-4.246,4.522-6.162l.957.655c-1.317,1.936-2.893,4.014-4.557,6.209-13.084,17.256-32.856,43.333-5.639,96.95Z"/><path class="cls-19" d="M1863.006,705.813c14.218-17,40.091-26.67,54.27-16.64C1913.344,702.012,1887.406,717.587,1863.006,705.813Z"/><path class="cls-19" d="M1840.436,738.672c11.294-35.277,31.275-38.146,44.5-40.041,1.646-.237,3.207-.459,4.593-.731l.134.691c-1.4.276-2.967.5-4.629.739-13.044,1.876-32.763,4.7-43.922,39.561Z"/><path class="cls-19" d="M1824.451,739.835l-1.847-.371c9.549-47.537-7.637-101.443-13.131-116.832l1.772-.633C1816.782,637.507,1834.1,691.824,1824.451,739.835Z"/><path class="cls-19" d="M1812.922,736.653c-3.926-34.74-24.183-59.154-43.474-78.448l1.064-1.065c19.486,19.476,39.937,44.138,43.914,79.341Z"/><path class="cls-19" d="M1811.421,742.494c-2.747-26.477-26.562-34.531-44.241-38.291l.257-1.2c18.049,3.834,42.374,12.091,45.2,39.363Z"/><polygon class="cls-9" points="1879.47 728.006 1786.947 728.006 1786.947 740.909 1796.748 740.909 1802.895 808.502 1807.58 808.502 1818.35 808.345 1823.035 808.345 1825.222 808.345 1845.358 808.345 1850.043 808.345 1854.726 808.345 1867.047 740.909 1879.47 740.909 1879.47 728.006"/><path class="cls-4" d="M1494.711,539.9a3.634,3.634,0,0,1,3.7-4.636H1506a6.119,6.119,0,0,1,5.723,4.656l25.529,122.646a5.871,5.871,0,0,1-3.462,6.411l-4.474,3.535c-2.484.816-4.84-1.8-5.421-4.348Z"/><path class="cls-21" d="M1340.044,544.518c-1.2-5.091,2.1-9.256,7.334-9.256H1497.22a12.246,12.246,0,0,1,11.455,9.309l24.907,119.209a7.51,7.51,0,0,1-7.562,9.392l-145.932,1.236a12.493,12.493,0,0,1-11.685-9.176Z"/><path class="cls-21" d="M1453.086,624.447h-22.959l-11.615,76.831c0,.032-1.147,9.166,7.01,10.721h0l27.562.675-1.258-7.5Z"/><path class="cls-4" d="M1453.086,624.447l-7.443,78.837s.419,9.436,9.121,9.542l34.808-.529s.914-1.757-2.975-1.992l-33.511.353s-7.443.421-4.255-20.935c1.886-12.642,6.318-63.757,6.318-63.757Z"/><polygon class="cls-22" points="1697.715 664.91 1696.223 659.591 1697.54 669.275 1698.012 669.275 1697.715 664.91"/><polygon class="cls-19" points="1697.086 656.113 1694.665 638.494 1693.406 638.631 1694.887 649.425 1697.232 658.038 1697.086 656.113"/><polygon class="cls-19" points="1702.281 641.642 1701.015 641.84 1702.296 669.275 1703.565 669.275 1702.281 641.642"/><polygon class="cls-19" points="1714.044 669.275 1720.032 644.594 1718.788 644.212 1712.837 668.691 1712.808 669.275 1714.044 669.275"/><polygon class="cls-19" points="1709.572 658.634 1709.894 637.729 1708.625 637.934 1708.146 669.275 1708.219 669.275 1709.572 658.634"/><polygon class="cls-19" points="1698.97 664.451 1697.521 644.707 1696.252 644.783 1697.086 656.113 1697.232 658.038 1698.97 664.451"/><polygon class="cls-23" points="1697.715 665.205 1698.012 669.275 1698.817 669.275 1697.715 665.205"/><polygon class="cls-19" points="1724.441 651.434 1723.264 651.157 1715.104 669.275 1716.477 669.275 1724.441 651.434"/><polygon class="cls-19" points="1709.496 669.275 1713.063 641.731 1711.801 641.457 1709.572 658.706 1708.219 669.275 1709.496 669.275"/><polygon class="cls-19" points="1705.449 652.304 1704.188 652.533 1705.52 669.275 1706.793 669.275 1705.449 652.304"/><polygon class="cls-19" points="1712.808 669.275 1712.837 668.623 1715.284 636.505 1714.021 636.646 1711.537 669.275 1712.808 669.275"/><polygon class="cls-19" points="1698.817 669.275 1700.126 669.275 1698.97 664.746 1697.232 658.182 1694.887 649.498 1694.65 648.584 1693.417 648.829 1696.223 659.161 1697.715 664.914 1698.817 669.275"/><polygon class="cls-21" points="1715.104 669.275 1714.044 669.275 1712.808 669.275 1711.537 669.275 1709.496 669.275 1708.219 669.275 1708.146 669.275 1706.793 669.275 1705.52 669.275 1703.565 669.275 1702.296 669.275 1700.126 669.275 1698.817 669.275 1698.012 669.275 1697.54 669.275 1695.305 669.275 1699.106 714.196 1715.606 714.196 1719.407 669.275 1716.477 669.275 1715.104 669.275"/><path class="cls-4" d="M1275.43,661.011a11.636,11.636,0,0,1-9.392.8,6.12,6.12,0,0,1-1.906,1.528l0,0c-4.711,2.348-11.294-3.412-12.769-9.423-.769-4.1-.619-9.63-.473-14.976a82.485,82.485,0,0,0-.221-12.453c-1.415-8.171-2.46-15.129-3.47-21.856s-2.049-13.659-3.467-21.841c-.242-1.674-.5-3.253-.754-4.8-1.044-6.389-2.03-12.425-.964-19.529,1.251-8.332,2.983-17.359,4.876-25.415a110.379,110.379,0,0,1,5.733-16.308c2.912-7.014,5.662-13.638,6.843-22.86,1.935-17.475-.228-34.03-3.029-52.307-.327-1.987-.689-4.07-1.062-6.223-2.537-14.633-5.693-32.842-2.29-47.15,1.459-5.65,3.46-9.456,5.5-10.47,1.346-.671,3.907-.645,5.939,7.088a95.046,95.046,0,0,1,1.738,9.366,73.027,73.027,0,0,0,2.687,12.655c4.044,12.038,10.144,21.861,16.044,31.363,9.322,15.016,18.961,30.542,20.539,54.994,1.142,18.171-3.667,33.5-8.317,48.326-4.351,13.874-8.852,28.223-8.481,44.915a163.4,163.4,0,0,0,1.85,18.165c1.347,9.649,2.741,19.624,1.225,29.709C1290.065,645.925,1283.177,657.151,1275.43,661.011Zm-9.665-1.165.27.106a10.884,10.884,0,0,0,9.06-.667c7.392-3.684,13.958-14.365,15.611-25.4,1.454-9.675.149-19.008-1.231-28.891a165.327,165.327,0,0,1-1.875-18.489c-.381-17.163,4.184-31.72,8.6-45.8,4.788-15.267,9.311-29.685,8.2-47.326-1.538-23.812-10.61-38.429-20.215-53.9-5.959-9.592-12.117-19.513-16.238-31.776a75.242,75.242,0,0,1-2.791-13.094,91.6,91.6,0,0,0-1.683-9.093c-.883-3.36-2.392-7.141-4.563-6.059-1.689.841-3.476,4.359-4.781,9.41-3.264,13.728-.165,31.621,2.329,46,.375,2.159.738,4.253,1.068,6.26,2.731,17.817,5.017,35.271,3.045,53.1-1.229,9.594-4.169,16.675-7.013,23.524a108.282,108.282,0,0,0-5.62,15.955c-1.874,7.975-3.592,16.923-4.831,25.185-1,6.665-.092,12.217.959,18.649.255,1.563.516,3.161.755,4.815,1.415,8.169,2.461,15.128,3.471,21.857s2.049,13.661,3.466,21.836a83.891,83.891,0,0,1,.255,12.978c-.144,5.2-.288,10.568.411,14.306,1.268,5.157,7.243,10.343,11.37,8.29h0a5.147,5.147,0,0,0,1.75-1.489Z"/><path class="cls-17" d="M1257.358,396.2c-3.08,22.161,4.284,44.559,10.767,63.255a214.85,214.85,0,0,1,8.033,28.994,239.262,239.262,0,0,1,3.788,34.473,199.2,199.2,0,0,1-8.279,67.983c-3.652,11.774-6.912,23.578-7.947,36.754-1,12.69,1.064,25.484,2.172,37.987a158.828,158.828,0,0,1-.317,33.947,199.688,199.688,0,0,1-7.115,32.634,279.945,279.945,0,0,1-11.51,30.984c-1.948,4.5-3.986,8.914-6.058,13.278-2.346,4.948-5,9.867-6.891,15.3-.4,1.163-1.531.163-1.125-1a115.345,115.345,0,0,1,5.442-12.314q3.87-7.992,7.506-16.275a284.461,284.461,0,0,0,11.916-32.333,193.968,193.968,0,0,0,7.233-36.622c1.227-12.569-.1-25.294-1.343-37.725-1.209-12.108-1.979-23.542-.4-35.665,1.59-12.169,5.284-22.927,8.541-34.056,6.718-22.948,8.242-48.268,6.212-73.207a206.952,206.952,0,0,0-4.969-32.207c-2.5-10.244-6.023-19.556-9.29-29.179-5.488-16.162-10.2-36.929-7.622-55.495.18-1.3,1.43-.817,1.252.483Z"/><path class="cls-14" d="M1211.945,642.524c22.473-1.254,39.825-26.456,38.724-46.2-1.138-20.432-16.348-35.975-22.857-54.737-13.892-40.889,15.343-80.085-1.233-120.145-18.921-45.39-69.045-50.111-100.145-81.164-7.228-7.109-10.483-16.491-16.346-23.677-10.256-12.406-17.25-3.138-18.573,9.912-1.549,21.261,14.723,43.578,25.243,60.75,11.313,19.18,21.946,38.392,24.558,60.786,1.823,20.39-8.314,34.618-9.973,53.833a271.464,271.464,0,0,0-.223,32.8c.606,10.893,6.472,18.081,11.769,27.349,11.239,17.815,17.559,30.1,28.8,47.913,4.539,7.945,5.783,24.1,11,32,5.148,6.542,22.944,9.808,29.256.579"/><path class="cls-17" d="M1101.381,333.478c2.036,28.049,24.031,50.41,43.033,68.883a195.1,195.1,0,0,1,25.62,29.8c8.1,11.9,14.33,25.331,19.488,38.729a160.864,160.864,0,0,1,8.473,85.381c-2.75,16.058-4.752,31.923-2.028,48.141,2.625,15.628,11.106,29.625,17.672,43.829,6.019,13,10.122,26.159,11.494,40.449,1.369,14.249.3,28.677-1.911,42.781a281.227,281.227,0,0,1-10.864,43.338c-2.1,6.456-4.409,12.854-6.8,19.212-2.7,7.213-6,14.566-7.66,22.093a1.279,1.279,0,0,1-2.5-.538c1.328-6.031,3.755-11.969,5.971-17.716,3.01-7.8,5.862-15.654,8.485-23.6a284.369,284.369,0,0,0,11.153-45.173,163.744,163.744,0,0,0,.719-47.576c-2.147-15.616-9.209-29.951-16-43.987-6.615-13.669-12.158-26.8-13.466-42.088-1.306-15.34,1.89-30.209,4.123-45.278,4.608-31.062-1.517-61.972-14.266-90.4a168.958,168.958,0,0,0-20.935-35.365c-8.4-10.725-18.428-19.759-28.074-29.305-16.207-16.034-32.577-37.978-34.282-61.476a1.279,1.279,0,0,1,2.553-.142Z"/><path class="cls-19" d="M1180.742,718.123c18.4-.9,32.484-21.237,31.479-37.248-1.038-16.565-13.579-29.243-19.014-44.478-11.6-33.221,12.149-64.836-1.638-97.392-15.741-36.889-56.829-40.977-82.471-66.308-5.96-5.8-8.674-13.421-13.518-19.281-8.463-10.105-14.148-2.629-15.164,7.943-1.154,17.221,12.29,35.394,21,49.37,9.369,15.6,18.182,31.234,20.441,49.4,1.6,16.536-6.632,28.011-7.891,43.583a218.3,218.3,0,0,0-.013,26.583c.556,8.828,5.4,20.7,9.793,28.236,9.3,14.5,14.537,18.479,23.837,32.975,3.757,6.462,4.865,19.566,9.181,26,4.254,5.331,18.851,8.068,23.978.622"/><path class="cls-14" d="M1189.53,780.937a128.537,128.537,0,0,0-.572-31.158c-1.839-12.668-7.7-24.328-13.34-35.737-5.492-11.11-10.1-21.783-11.245-34.193-1.158-12.43,1.384-24.472,3.134-36.665,3.611-25.162-1.57-50.238-12.163-73.353a139.422,139.422,0,0,0-17.331-28.77c-6.944-8.737-15.209-16.113-23.16-23.9-13.359-13.084-26.889-30.95-28.407-50.008-.108-1.332,1.984-1.435,2.091-.1,1.815,22.749,19.953,40.987,35.619,56.057A161.95,161.95,0,0,1,1145.3,547.4c6.7,9.687,11.874,20.606,16.174,31.5a129.6,129.6,0,0,1,7.387,69.248c-2.17,13-3.728,25.846-1.41,39,2.232,12.684,9.256,24.068,14.709,35.619a100.143,100.143,0,0,1,9.632,32.843,125.8,125.8,0,0,1-.19,25.57C1190.909,781.1,1190.217,781.012,1189.53,780.937Z"/><path class="cls-18" d="M1260.935,738.851c14.215,9.279,36.019,1.711,44.173-10.781,8.438-12.923,6.14-29.166,10.559-43.473,9.83-31.061,45.108-41.818,52.932-73.569,8.78-36.038-19.572-61.3-24.6-94.064-1.216-7.552,1-14.706.645-21.7-.688-12.115-9.082-9.61-15.719-2.269-10.436,12.228-10.518,33.059-11.8,48.2-1.693,16.709-3.817,33.138-12.232,47.915-8,13.2-20.517,17.319-30.114,28.259A205.38,205.38,0,0,0,1259.99,637.2c-4.494,6.891-7.48,18.367-8.4,26.368-1.127,15.846.56,21.648-.567,37.494-.794,6.853-7.253,17.231-7.615,24.366.208,6.277,9.566,16.21,17.529,13.424"/><path class="cls-17" d="M1232.557,790.48a120.845,120.845,0,0,0,16.9-23.563c5.674-10.448,7.789-22.318,9.929-33.882,2.084-11.26,4.582-21.716,10.63-31.6,6.05-9.9,14.64-17.515,22.724-25.669,16.682-16.826,26.763-38.34,31.721-61.317a127.907,127.907,0,0,0,3.08-30.841c-.318-10.272-2.377-20.245-3.975-30.353-2.682-16.985-2.832-37.633,6.632-52.676.661-1.053,2.278,0,1.617,1.053-11.3,17.958-7.918,41.374-4.621,61.089a147.306,147.306,0,0,1,2.252,29.556c-.39,10.851-2.607,21.8-5.458,32.248a121.363,121.363,0,0,1-33,55.673c-8.846,8.529-17.15,17.274-22.74,28.347-5.388,10.673-6.482,22.964-8.84,34.532a93,93,0,0,1-11.083,29.717,118.24,118.24,0,0,1-14.36,18.98C1233.5,791.345,1233.029,790.906,1232.557,790.48Z"/><path class="cls-4" d="M1137.105,703.081a35.386,35.386,0,0,1-4.332,11.274,10.66,10.66,0,0,1-.227,2.565v0c-1.246,6.048-7.3,12.67-10.914,13.2-2.344.08-4.91-1.219-7.388-2.476-2.2-1.11-4.265-2.158-6.059-2.263-4.612.018-8.46-.157-12.18-.326s-7.552-.343-12.17-.326c-.922-.052-1.805-.067-2.672-.081-3.576-.059-6.952-.117-9.81-2.817a88.429,88.429,0,0,1-9.688-10.922,45.428,45.428,0,0,1-4.907-10.09c-1.888-4.866-3.67-9.461-7.479-12.729-7.374-5.83-16.366-6.628-26.5-7.019-1.114-.015-2.291-.01-3.506,0-8.262.036-18.542.078-23.665-6.849a11.613,11.613,0,0,1-2.241-8.625c.356-1.728,1.656-4.753,6.37-5.591a25.448,25.448,0,0,1,5.344-.156,20.817,20.817,0,0,0,7.393-.613c7.778-2.344,15.534-7.572,23.034-12.623,11.852-7.986,24.108-16.243,36.577-13.152,9.251,2.33,14.156,11.128,18.9,19.636,4.44,7.96,9.032,16.2,17.189,19.139a37.1,37.1,0,0,0,9.6,1.493c5.285.362,10.749.734,14.8,4.572C1137.252,682.708,1139.154,693.133,1137.105,703.081Zm-5.408,11.2.185-.3a33.088,33.088,0,0,0,4.231-10.854c1.954-9.492.151-19.425-4.286-23.617-3.891-3.68-9-4.03-14.415-4.4a37.49,37.49,0,0,1-9.771-1.531c-8.387-3.027-13.046-11.38-17.551-19.459-4.884-8.76-9.5-17.033-18.479-19.3-12.143-3.009-23.68,4.762-35.894,12.99-7.573,5.105-15.4,10.379-23.329,12.767a21.359,21.359,0,0,1-7.653.649,24.352,24.352,0,0,0-5.189.149c-2.047.362-4.611,1.382-5.184,4.169-.447,2.169.335,5,2.092,7.565,4.916,6.643,15.017,6.605,23.133,6.57,1.219-.007,2.4-.012,3.526,0,9.88.38,19.363,1.214,26.885,7.16,3.965,3.4,5.869,8.312,7.711,13.067a44.767,44.767,0,0,0,4.8,9.883,87.2,87.2,0,0,0,9.6,10.82c2.68,2.533,5.787,2.586,9.386,2.646.875.015,1.77.03,2.681.083,4.612-.018,8.459.155,12.18.325s7.552.344,12.167.325c1.948.114,4.075,1.19,6.326,2.33,2.41,1.222,4.9,2.482,7.038,2.413,3.1-.454,8.576-6.471,9.669-11.772h0a8.519,8.519,0,0,0,.168-2.374Z"/><path class="cls-17" d="M1001.573,670.781c9.036,8.136,23.431,3.964,35.614.083a72.085,72.085,0,0,1,17.881-3.626,55.01,55.01,0,0,1,18.364,2.508c11.81,3.457,21.5,11.534,28.306,23.574,3.788,6.708,7.789,12.958,13.56,16.853,5.559,3.755,12.7,3.907,19.232,5.131a33.755,33.755,0,0,1,16.05,7.257c4.711,3.957,8.61,9.251,12.012,15.033a121.391,121.391,0,0,1,9.015,19.9c1.172,3.217,2.254,6.521,3.3,9.858,1.184,3.778,2.2,7.917,3.847,11.255.353.712-.691,1.844-1.042,1.128a59.958,59.958,0,0,1-3.147-8.933c-1.249-4.134-2.571-8.2-4-12.181a122.139,122.139,0,0,0-9.455-20.653,53.326,53.326,0,0,0-13.854-15.981c-5.386-4-12.131-5.006-18.69-6.058-6.39-1.025-12.236-2.43-17.231-6.761-5.012-4.348-8.295-10.9-11.972-17.009-7.585-12.6-18.912-19.535-31.84-22.19a51.649,51.649,0,0,0-17.875-.65c-6.145.877-12.364,3.162-18.6,5.077-10.473,3.215-22.758,4.583-30.327-2.234-.532-.477.327-1.857.858-1.381Z"/><polygon class="cls-9" points="1113.388 747.528 1272.297 781.632 1262.864 931.832 1140.236 931.832 1113.388 747.528"/><rect class="cls-21" x="1378.238" y="393.412" width="124.172" height="5.335"/><rect class="cls-21" x="1378.238" y="401.418" width="124.172" height="5.334"/><rect class="cls-21" x="1378.238" y="410.173" width="124.172" height="5.335"/><rect class="cls-21" x="1378.238" y="418.929" width="124.172" height="5.336"/><rect class="cls-21" x="1378.238" y="427.685" width="124.172" height="5.336"/><rect class="cls-21" x="1378.238" y="436.44" width="124.172" height="5.336"/><rect class="cls-21" x="1378.238" y="445.196" width="124.172" height="5.335"/><rect class="cls-21" x="1378.238" y="453.952" width="124.172" height="5.335"/><rect class="cls-21" x="1378.238" y="461.66" width="124.172" height="5.335"/><rect class="cls-21" x="1378.238" y="469.904" width="124.172" height="5.334"/><rect class="cls-21" x="1378.238" y="478.147" width="124.172" height="5.335"/><rect class="cls-21" x="1378.238" y="486.391" width="124.172" height="5.335"/><rect class="cls-17" x="1378.238" y="388.528" width="124.172" height="0.981"/><rect class="cls-17" x="1378.238" y="497.758" width="124.172" height="0.981"/><path class="cls-24" d="M1592.854,528.491c-5.3-4.172-8.685,6.213-11.468,7.178,2.89-12.511,7.45-17.023,8.715-20.2,2.642-6.691,10.166-3.72,15.308.893s9.837,2.145,16.18,10.3c6.362,8.144.5,24.048.5,24.048l-5.483-.844s-2.724-3.538-3.02-11.068.441-10.136-2.881-10.3S1598.149,532.678,1592.854,528.491Z"/><path class="cls-25" d="M1602.249,520.42s-6.571-6.229-7.91-4.63S1605.092,522.857,1602.249,520.42Z"/><path class="cls-25" d="M1590.925,518.821s1.642-2.457,1.925-1.556-1.8,4.012-2.358,3.409S1590.925,518.821,1590.925,518.821Z"/><path class="cls-25" d="M1622.007,537.318c.008.161.255,11.144-1.446,10.337S1621.532,531.675,1622.007,537.318Z"/><path class="cls-4" d="M131.029,986.315a11.626,11.626,0,0,1-8.6-3.85,6.142,6.142,0,0,1-2.409.413h0c-5.259-.231-8.224-8.459-6.6-14.432,1.314-3.959,4.127-8.723,6.846-13.328a82.478,82.478,0,0,0,5.843-11c2.724-7.833,5.183-14.425,7.56-20.8s4.83-12.94,7.556-20.783c.6-1.582,1.141-3.088,1.668-4.565,2.184-6.094,4.248-11.852,8.624-17.548,5.134-6.681,11.024-13.737,16.585-19.865a110.227,110.227,0,0,1,12.921-11.485c5.946-4.723,11.563-9.184,17.067-16.677,10.163-14.347,16.3-29.874,22.706-47.218.678-1.9,1.371-3.894,2.088-5.958,4.875-14.028,10.942-31.484,20.855-42.349,4.014-4.235,7.61-6.594,9.882-6.494,1.5.065,3.73,1.331,1.759,9.079a94.873,94.873,0,0,1-3.021,9.034,73.071,73.071,0,0,0-3.784,12.372c-2.3,12.489-1.725,24.037-1.171,35.208.873,17.653,1.778,35.906-8.7,58.057-7.809,16.447-19.446,27.522-30.7,38.236-10.532,10.026-21.424,20.394-29.192,35.174a163.256,163.256,0,0,0-7.187,16.785c-3.5,9.091-7.115,18.492-13.331,26.578C151.143,980.216,139.676,986.7,131.029,986.315Zm-7.888-5.7.185.223a10.878,10.878,0,0,0,8.248,3.808c8.251.362,19.171-5.8,25.965-14.644,5.961-7.757,9.344-16.552,12.928-25.866a165.3,165.3,0,0,1,7.323-17.08c7.987-15.2,19.037-25.716,29.724-35.888,11.589-11.032,22.535-21.45,30.116-37.417,10.2-21.572,9.35-38.755,8.449-56.944-.561-11.278-1.138-22.941,1.2-35.665a75.218,75.218,0,0,1,3.906-12.805,92.009,92.009,0,0,0,2.936-8.769c.856-3.367,1.369-7.405-1.053-7.512-1.886-.083-5.154,2.128-8.744,5.913-9.51,10.424-15.474,27.577-20.261,41.359-.719,2.07-1.416,4.078-2.1,5.993-6.248,16.907-12.71,33.282-23.075,47.916-5.726,7.795-11.73,12.564-17.538,17.176a108.262,108.262,0,0,0-12.65,11.23c-5.5,6.067-11.345,13.06-16.434,19.686-4.1,5.345-6,10.641-8.2,16.776-.535,1.49-1.081,3.015-1.674,4.577-2.722,7.832-5.181,14.426-7.56,20.8s-4.829,12.941-7.554,20.778a83.876,83.876,0,0,1-6.068,11.475c-2.645,4.475-5.375,9.1-6.576,12.712-1.391,5.125,1.321,12.557,5.926,12.762h0a5.126,5.126,0,0,0,2.252-.454Z"/><path class="cls-17" d="M243.6,745.94c-13.437,17.89-17.853,41.05-21.247,60.546a214.884,214.884,0,0,1-7.029,29.253,239.272,239.272,0,0,1-13.4,31.987,199.236,199.236,0,0,1-40.2,55.448c-8.9,8.528-17.476,17.271-24.769,28.294-7.025,10.615-11.423,22.805-16.515,34.277a158.749,158.749,0,0,1-16.733,29.538,199.667,199.667,0,0,1-22.043,25.094A279.956,279.956,0,0,1,56.576,1061.9c-3.887,3-7.807,5.865-11.735,8.677-4.451,3.19-9.157,6.2-13.446,10.045-.917.822-1.419-.6-.5-1.419a115.549,115.549,0,0,1,10.73-8.132c4.839-3.41,9.659-6.925,14.455-10.6a284.385,284.385,0,0,0,26.1-22.5,193.992,193.992,0,0,0,24.08-28.524c7.166-10.4,12.171-22.173,17.113-33.647,4.812-11.176,9.681-21.55,16.942-31.386,7.29-9.873,15.736-17.491,23.98-25.646,17-16.815,30.608-38.222,40.922-61.019a206.974,206.974,0,0,0,11.267-30.578c2.782-10.17,4.212-20.025,6.019-30.025,3.035-16.8,8.98-37.246,20.237-52.233.788-1.05,1.647-.022.86,1.029Z"/><path class="cls-14" d="M84.465,939.371c20.264,9.8,47.658-3.834,56.267-21.638,8.908-18.422,3.14-39.39,6.543-58.955,7.671-42.5,52.242-62.608,57.163-105.682,5.455-48.873-36.1-77.3-48.244-119.537-2.877-9.721-1.175-19.5-2.819-28.632-2.957-15.822-13.567-11.107-21.05-.334-11.662,17.845-8.248,45.252-7.371,65.371.6,22.26.583,44.218-7.988,65.071-8.29,18.717-24.054,26.248-34.819,42.249a271.535,271.535,0,0,0-16.1,28.58c-4.75,9.821-3.1,18.952-2.964,29.626,1.194,21.03.767,34.837,1.961,55.866.118,9.15-6.624,23.881-5.891,33.326,1.331,8.217,15.313,19.7,25.308,14.689"/><path class="cls-17" d="M137.577,615.468c-11.816,25.519-3.419,55.741,4.246,81.109a195.083,195.083,0,0,1,7.961,38.487c1.319,14.334.254,29.1-1.729,43.321a160.872,160.872,0,0,1-33.98,78.785c-10.189,12.712-19.632,25.618-25.112,41.123-5.279,14.942-4.647,31.295-5.789,46.9-1.04,14.292-3.828,27.787-9.555,40.951-5.711,13.127-13.643,25.226-22.411,36.492A281.169,281.169,0,0,1,20.7,1055.275c-4.968,4.627-10.087,9.105-15.258,13.509-5.861,5-12.311,9.83-17.411,15.61a1.278,1.278,0,0,1-1.924-1.682c4.084-4.631,9.087-8.648,13.81-12.6,6.414-5.363,12.716-10.851,18.861-16.527a284.334,284.334,0,0,0,31.654-34.1A163.723,163.723,0,0,0,74.12,978.217c5.693-14.7,6.464-30.66,7.329-46.229.84-15.162,2.357-29.334,8.625-43.34,6.294-14.05,16.3-25.506,25.555-37.6,19.088-24.934,28.716-54.938,31.344-85.981a169,169,0,0,0-1.166-41.081c-2.149-13.453-6.54-26.215-10.349-39.24-6.4-21.881-10.083-49.01-.183-70.389a1.279,1.279,0,0,1,2.3,1.114Z"/><path class="cls-19" d="M20.526,990.366c16.531,8.137,38.706-2.827,45.588-17.319,7.124-14.991,2.3-32.16,4.932-48.119,5.963-34.677,42.057-50.819,45.78-85.978,4.114-39.894-29.84-63.388-39.988-97.974-2.4-7.965-1.081-15.944-2.477-23.418-2.5-12.94-11.1-9.158-17.114-.4-9.357,14.5-6.408,36.916-5.565,53.362.631,18.188.761,36.133-6.068,53.114-6.62,15.236-19.379,21.284-28.03,34.294a218.5,218.5,0,0,0-12.9,23.244C.893,889.16-.62,901.889-.437,910.612c1.108,17.189,3.758,23.209,4.864,40.4C4.581,958.482-.8,970.48-.146,978.2c1.137,6.725,12.577,16.2,20.672,12.167"/><path class="cls-14" d="M-2.239,1049.566a128.529,128.529,0,0,0,14.6-27.529c4.533-11.972,5.059-25.012,5.657-37.725.582-12.379,1.723-23.949,6.74-35.357,5.013-11.433,13.074-20.733,20.515-30.549,15.357-20.258,22.981-44.7,24.922-70.054a139.5,139.5,0,0,0-1.212-33.566c-1.838-11.008-5.491-21.465-8.672-32.128-5.341-17.92-8.514-40.105-.6-57.51.551-1.218,2.431-.294,1.879.923-9.441,20.777-2.418,45.522,3.978,66.3a161.92,161.92,0,0,1,6.717,31.493c1.166,11.721.4,23.779-1.123,35.388A129.586,129.586,0,0,1,44.055,923.4c-8.2,10.318-15.79,20.8-20.142,33.432-4.2,12.176-3.572,25.538-4.4,38.284a100.137,100.137,0,0,1-7.5,33.395A125.792,125.792,0,0,1-.547,1050.782C-1.11,1050.374-1.674,1049.965-2.239,1049.566Z"/><path class="cls-18" d="M80.617,1047.371c7.934,15.007,30.674,18.957,43.862,11.984,13.645-7.213,19.508-22.533,30.309-32.9,23.656-22.4,59.726-14.709,81.961-38.687,25.15-27.264,12.6-63.1,24.084-94.2,2.6-7.2,8-12.379,11.083-18.666,5.27-10.929-3.286-12.808-12.649-9.6-15.056,5.636-25.226,23.815-33.684,36.435-9.581,13.794-19.4,27.134-33.926,35.979-13.4,7.668-26.342,5.2-40.039,10.118A205.311,205.311,0,0,0,129.068,958c-7.271,3.848-15.446,12.438-20.131,18.989-8.667,13.314-10,19.206-18.672,32.519-4.016,5.61-14.7,11.555-18.472,17.62-2.861,5.592.509,18.816,8.824,20.239"/><path class="cls-17" d="M30.768,1078.771a120.848,120.848,0,0,0,26.2-12.417c10.028-6.389,17.632-15.745,25.11-24.821,7.281-8.839,14.535-16.773,24.614-22.483,10.092-5.728,21.3-8.222,32.319-11.435,22.747-6.63,42-20.56,57.469-38.253a127.85,127.85,0,0,0,17.644-25.482c4.7-9.138,7.736-18.86,11.238-28.475,5.888-16.156,15.767-34.288,31.337-42.857a.965.965,0,0,1,.9,1.705c-18.586,10.231-26.983,32.348-33.657,51.191a147.329,147.329,0,0,1-12.357,26.942c-5.6,9.3-12.847,17.8-20.407,25.559a121.355,121.355,0,0,1-55.851,32.7c-11.872,3.172-23.374,6.8-33.631,13.77-9.886,6.723-16.8,16.944-24.472,25.918a93.018,93.018,0,0,1-24.1,20.619,118.228,118.228,0,0,1-21.761,9.64C31.17,1079.983,30.974,1079.373,30.768,1078.771Z"/><path class="cls-26" d="M55.958,1083.047a29.521,29.521,0,0,1,2.3-13.577,6.212,6.212,0,0,1-.7-2.507v0c-.506-6.457,6.518-17.126,12.131-20.376,3.753-1.872,8.437-2.66,12.963-3.42,4.008-.675,7.786-1.31,10.727-2.591,7.44-3.556,13.727-6.351,19.805-9.051s12.339-5.485,19.789-9.044c1.511-.661,2.944-1.325,4.349-1.978,5.8-2.69,11.277-5.229,17.016-4.966a133.57,133.57,0,0,1,20.192,2.5c4.793,1.11,8.521,3.3,12.124,5.409,5.075,2.976,9.866,5.788,17.378,5.836,14.335-.357,29.188-6.533,45.717-13.955,1.805-.841,3.7-1.748,5.664-2.686,13.327-6.373,29.911-14.3,41.069-11.934,4.368,1.1,6.989,3.334,7.209,6.124.144,1.845-.7,5.593-7.96,9.973a80.707,80.707,0,0,1-8.565,4.243,65.829,65.829,0,0,0-11.684,6.232c-11.586,8.1-21.935,18.808-31.945,29.158-15.816,16.359-32.172,33.274-53.6,40.032-15.909,4.981-27.492.745-38.7-3.351-10.484-3.831-21.328-7.8-35.727-4.213a115.076,115.076,0,0,0-16.13,6.012c-8.685,3.727-17.664,7.582-25.808,7.2C64.2,1101.687,56.79,1093.667,55.958,1083.047Zm4.074-14.334-.176.414a27.859,27.859,0,0,0-2.314,13.118c.8,10.132,7.841,17.781,16.752,18.188,7.816.361,16.216-3.244,25.11-7.061a116.163,116.163,0,0,1,16.417-6.107c14.805-3.684,25.806.336,36.445,4.226,11.534,4.218,22.428,8.2,37.875,3.366,20.863-6.582,36.259-22.5,52.559-39.361,10.106-10.454,20.556-21.26,32.362-29.515a67.531,67.531,0,0,1,12.089-6.464,77.842,77.842,0,0,0,8.318-4.117c3.155-1.9,6.871-4.8,6.636-7.77-.181-2.316-2.621-4.287-6.527-5.274-10.7-2.269-27,5.518-40.094,11.779-1.966.942-3.874,1.854-5.7,2.7-16.114,7.238-31.775,13.757-46.4,14.123-7.818-.049-12.938-3.055-17.893-5.965-3.546-2.079-7.216-4.231-11.86-5.307a131.988,131.988,0,0,0-20.008-2.472c-5.382-.247-10.422,2.09-16.259,4.8-1.419.659-2.871,1.332-4.364,1.982-7.44,3.557-13.725,6.351-19.806,9.053s-12.338,5.483-19.784,9.043c-3.193,1.391-7.077,2.045-11.185,2.736-4.4.738-8.95,1.5-12.372,3.207-4.816,2.792-11.156,12.467-10.714,18.126h0a4.909,4.909,0,0,0,.716,2.288Z"/><path class="cls-17" d="M288.281,1008.4c-17.98-.464-39.491,14.378-57.551,27.258a221.706,221.706,0,0,1-27.366,17.021,171.172,171.172,0,0,1-30.7,11.813c-20.512,5.92-39.527,6.013-55.525.285-8.91-3.192-17.973-5.806-28.915-4.919-10.54.852-22.142,6.2-33.193,10.094-10.124,3.573-19.663,5.706-28.942,5.719a79.67,79.67,0,0,1-25.656-4.452,107.292,107.292,0,0,1-22.842-11.179c-3.232-2.026-6.355-4.2-9.429-6.435-3.486-2.526-6.848-5.511-10.9-7.282-.867-.376.349-2.207,1.213-1.826a45.78,45.78,0,0,1,8.8,5.709c3.738,2.8,7.566,5.486,11.534,8A108.724,108.724,0,0,0,2.677,1069.74a79.068,79.068,0,0,0,29.027,3.9c10.361-.5,21.674-4.758,32.705-8.835,10.746-3.973,20.772-7.182,30.64-7.076,9.9.107,17.933,3.545,26.415,6.28,17.494,5.637,38.673,3.251,60.656-4.257a163.775,163.775,0,0,0,29.138-13.128c9.56-5.514,18.651-12.364,27.927-18.892,15.575-10.963,34.846-21.635,49.906-21.244,1.057.025.245,1.939-.81,1.914Z"/><rect class="cls-17" x="70.726" y="-35" width="2.274" height="365.4"/><path class="cls-17" d="M87.343,373.81c0,6.623-6.265,11.991-13.989,11.991s-13.989-5.368-13.989-11.991,6.262-11.99,13.989-11.99S87.343,367.188,87.343,373.81Z"/><path class="cls-9" d="M134.972,372.144,84.228,324c.036-.385.117-.757.117-1.152V304.865a11.991,11.991,0,1,0-23.982,0v17.986a11.807,11.807,0,0,0,.378,2.828c-9.651,9.1-46.861,44.15-50.338,46.465Z"/></svg>