<svg xmlns="http://www.w3.org/2000/svg" width="400" height="400" viewBox="0 0 200 200"><defs><style>.cls-1{fill:#c9b193;}.cls-2{fill:#e0c6a9;fill-rule:evenodd;}.cls-3{fill:#0a2319;}.cls-4{fill:#120e20;}.cls-5{fill:#95ab3d;}.cls-6{fill:#182f21;}.cls-7{fill:#798533;}</style></defs><title>card2</title><g id="Layer_1" data-name="Layer 1"><rect class="cls-1" width="200" height="200"/></g><g id="Layer_3" data-name="Layer 3"><path class="cls-2" d="M-65.434,142.341A10.894,10.894,0,0,0-54.572,131.48h0a10.894,10.894,0,0,0-10.862-10.861h-1.293a11.326,11.326,0,0,1-11.292-11.293h0A11.326,11.326,0,0,1-66.727,98.034h25.1S-23.264,97.188-19.73,86.7s6.386-15.765,26.569-15.765H21.787a7.516,7.516,0,0,0,7.493-7.494h0a7.516,7.516,0,0,0-7.493-7.494H16.82a5.186,5.186,0,0,1-5.171-5.171h0A5.186,5.186,0,0,1,16.82,45.6H47.628c13.287,0,13.873-6.214,19.133-6.214H91.736A3.975,3.975,0,0,1,95.7,43.352h0a3.976,3.976,0,0,1-3.963,3.964H87.93a5.759,5.759,0,0,0-5.743,5.742h0A5.759,5.759,0,0,0,87.93,58.8h21.591a14.794,14.794,0,0,1,14.75,14.751h0a14.794,14.794,0,0,1-14.75,14.75H92.446a14.229,14.229,0,0,0-14.187,14.188h0a14.228,14.228,0,0,0,14.187,14.186h0A33.653,33.653,0,0,1,126,150.23h0a33.652,33.652,0,0,1-33.554,33.554H-86.61a20.782,20.782,0,0,1-20.721-20.721h0A20.782,20.782,0,0,1-86.61,142.341h21.176ZM106.821,43.352a3.964,3.964,0,1,0-3.964,3.964A3.963,3.963,0,0,0,106.821,43.352Z"/></g><g id="Layer_2" data-name="Layer 2"><path class="cls-3" d="M178.111,207.747a23.73,23.73,0,0,1-4.451-5.228,37.969,37.969,0,0,0-2.535-3.369,31.373,31.373,0,0,0-8.481-6.283c-3.113-1.784-6.332-3.627-8.988-6.886-3.567-4.392-4.368-8.535-5.143-12.542a34.072,34.072,0,0,0-2.2-7.832,16.817,16.817,0,0,0-1.529-2.566c-.411-.606-.835-1.231-1.174-1.86-.868-1.63-.438-2.036-.1-2.133a3.927,3.927,0,0,1,2.574.913c2.82,1.891,5.141,5.472,7,8.35.275.424.54.834.8,1.222a45.34,45.34,0,0,0,7.689,9.34,19.192,19.192,0,0,0,4.745,2.8,25.42,25.42,0,0,1,3.529,1.865c1.584,1.069,3.293,2.327,4.812,3.543a13.825,13.825,0,0,1,2.9,3.461c.2.3.4.611.625.932,1.043,1.609,1.955,2.949,2.837,4.246s1.8,2.642,2.84,4.249a19.149,19.149,0,0,0,1.915,2.145,18.068,18.068,0,0,1,2.268,2.612c.693,1.251.48,3.259-.686,3.6h0a1.429,1.429,0,0,1-.563.04,2.684,2.684,0,0,1-1.717,1.336C183.154,210.265,180.226,209.442,178.111,207.747Zm8.5.258a1.184,1.184,0,0,0,.53-.022h0c1.021-.3,1.221-2.115.627-3.188a17.8,17.8,0,0,0-2.174-2.489,19.424,19.424,0,0,1-1.992-2.24c-1.042-1.608-1.954-2.948-2.837-4.244s-1.8-2.643-2.839-4.25c-.219-.317-.425-.629-.627-.934a13.121,13.121,0,0,0-2.762-3.311c-1.506-1.206-3.2-2.454-4.768-3.511a24.964,24.964,0,0,0-3.455-1.823,19.876,19.876,0,0,1-4.877-2.888,46.548,46.548,0,0,1-7.81-9.477c-.259-.392-.526-.8-.8-1.228-1.832-2.828-4.112-6.347-6.818-8.161a3.677,3.677,0,0,0-2.286-.846c-.538.157-.2,1.035.176,1.743.324.6.721,1.185,1.141,1.805a17.317,17.317,0,0,1,1.58,2.657,34.429,34.429,0,0,1,2.231,7.932c.8,4.129,1.553,8.029,5.027,12.306,2.578,3.164,5.606,4.9,8.811,6.735a31.832,31.832,0,0,1,8.64,6.414,38.071,38.071,0,0,1,2.581,3.428,22.936,22.936,0,0,0,4.322,5.09c2.01,1.61,4.8,2.391,6.629,1.856a2.51,2.51,0,0,0,1.64-1.307l.029-.061Z"/><path class="cls-4" d="M146.609,161.987c4,3.273,6.262,8.224,8.095,12.409a49.549,49.549,0,0,0,3.185,6.174,55.1,55.1,0,0,0,4.764,6.437,46,46,0,0,0,12.064,10.225,38.231,38.231,0,0,1,7.11,4.983,52.731,52.731,0,0,1,5.589,6.779,36.692,36.692,0,0,0,5.377,5.7,46.018,46.018,0,0,0,6.324,4.416,64.786,64.786,0,0,0,6.809,3.447c1.037.458,2.074.885,3.109,1.3a35.022,35.022,0,0,1,3.568,1.514c.251.134.285-.213.034-.346a26.6,26.6,0,0,0-2.853-1.234q-1.909-.747-3.825-1.581a65.8,65.8,0,0,1-7.09-3.612,37.694,37.694,0,0,1-12.657-11.678,35.217,35.217,0,0,0-5.525-6.107,50.912,50.912,0,0,0-6.788-4.433,47.119,47.119,0,0,1-12.533-11.434,47.792,47.792,0,0,1-4.209-6.238c-1.183-2.128-2.045-4.259-3-6.4-1.6-3.6-4.062-7.859-7.41-10.6-.235-.192-.371.086-.137.279Z"/><path class="cls-5" d="M192.934,196.616c-4.006,3.311-10.9,1.761-13.809-1.759-3.011-3.641-2.87-8.661-4.709-12.862-4.057-9.109-15.159-11.168-18.632-20.557-3.911-10.66,3.845-19.321,4.246-29.461.111-2.338-.809-4.439-.942-6.576-.207-3.711,2.432-3.237,4.7-1.233,3.6,3.361,4.339,9.695,5.249,14.255,1.09,5.025,2.3,9.949,5.369,14.154,2.889,3.742,6.838,4.564,10.132,7.561a62.9,62.9,0,0,1,5.182,5.524c1.6,1.941,1.738,4.08,2.294,6.481.888,4.782,1.743,7.855,2.632,12.637.477,2.058,2.8,4.991,3.154,7.15.153,1.916-2.351,5.26-4.868,4.686"/><path class="cls-4" d="M163.211,126.9c4.053,5.073,3.832,12.313,3.508,18.423a45.02,45.02,0,0,0,.331,9.07,43.892,43.892,0,0,0,2.77,9.62,37.146,37.146,0,0,0,11.953,15.8,32.9,32.9,0,0,1,7.893,7.842c2.006,3.06,2.763,6.763,3.878,10.2a28.437,28.437,0,0,0,4.394,8.658,39.585,39.585,0,0,0,7.033,6.951,64.845,64.845,0,0,0,8.638,5.642c1.368.765,2.763,1.488,4.165,2.191a38.591,38.591,0,0,1,4.763,2.543.3.3,0,0,0,.339-.483,28.885,28.885,0,0,0-3.79-2.066c-1.734-.85-3.449-1.735-5.139-2.67a65.515,65.515,0,0,1-8.974-5.907,37.825,37.825,0,0,1-7.583-7.951c-2.085-2.984-3.136-6.521-4.186-9.965a27.334,27.334,0,0,0-4.317-9.245c-2.185-2.805-5.058-4.824-7.8-7.028a37.483,37.483,0,0,1-11.758-17.559,39.062,39.062,0,0,1-2-9.277,74.166,74.166,0,0,1,.163-9.369c.233-5.26-.433-11.546-3.829-15.8-.238-.3-.693.078-.455.376Z"/><path class="cls-6" d="M210.078,204.536c-3.26,2.734-8.836,1.494-11.177-1.377-2.422-2.97-2.284-7.086-3.752-10.52-3.244-7.449-12.226-9.084-15-16.765-3.117-8.72,3.206-15.857,3.58-24.171.1-1.918-.634-3.635-.732-5.388-.15-3.04,1.986-2.664,3.816-1.032,2.9,2.738,3.467,7.927,4.182,11.661.859,4.114,1.817,8.146,4.282,11.578,2.322,3.053,5.517,3.708,8.172,6.15a50.378,50.378,0,0,1,4.171,4.5,17.184,17.184,0,0,1,2.768,6.321c.7,3.916.434,5.412,1.131,9.327.376,1.685,2.243,4.079,2.52,5.847.115,1.57-1.93,4.323-3.966,3.865"/><path class="cls-5" d="M218.438,216.561a29.746,29.746,0,0,1-4.789-5.371,28.161,28.161,0,0,1-3.343-8.149,22.144,22.144,0,0,0-3.456-7.559c-1.753-2.289-4.072-3.931-6.281-5.723a30.285,30.285,0,0,1-9.441-14.34,32.218,32.218,0,0,1-1.574-7.595,61.568,61.568,0,0,1,.178-7.682c.212-4.312-.3-9.462-3.027-12.931-.191-.242-.562.068-.371.311,3.26,4.14,3.046,10.076,2.754,15.087a37.364,37.364,0,0,0,.225,7.432,36.023,36.023,0,0,0,2.2,7.875,29.92,29.92,0,0,0,9.607,12.9,26.315,26.315,0,0,1,6.356,6.39c1.61,2.5,2.205,5.531,3.092,8.344a23.116,23.116,0,0,0,3.518,7.077,29,29,0,0,0,4.042,4.3C218.23,216.8,218.334,216.681,218.438,216.561Z"/><path class="cls-7" d="M199.736,220.625c-.954,3.8-5.837,5.938-9.178,5.1-3.456-.867-5.614-3.98-8.607-5.712-6.537-3.723-14.2-.015-20.508-4.169-7.139-4.731-6.3-13.459-10.581-19.8-.978-1.471-2.475-2.336-3.512-3.577-1.783-2.161.032-3.053,2.308-2.849,3.687.436,6.967,3.954,9.558,6.319,2.907,2.566,5.844,5.018,9.587,6.2,3.427.983,6.194-.282,9.536.067a47.5,47.5,0,0,1,5.617,1.042,15.9,15.9,0,0,1,5.558,3.152c2.676,2.509,3.3,3.757,5.976,6.266,1.209,1.037,3.932,1.783,5.112,2.936.949,1.1.92,4.247-.866,5.024"/><path class="cls-4" d="M212.642,224.925a27.936,27.936,0,0,1-6.559-1.343,26.09,26.09,0,0,1-7-4.186,20.57,20.57,0,0,0-6.757-3.689,33.858,33.858,0,0,0-7.876-.787,28.283,28.283,0,0,1-14.993-5.418,29.577,29.577,0,0,1-5.358-4.745,55.891,55.891,0,0,1-4.086-5.768c-2.209-3.3-5.421-6.822-9.385-7.888a.223.223,0,0,0-.108.432c4.73,1.272,7.83,5.771,10.363,9.63a34,34,0,0,0,4.253,5.362,33.063,33.063,0,0,0,5.982,4.61,28.017,28.017,0,0,0,14.323,4.262,24.778,24.778,0,0,1,8.3,1.238c2.587.964,4.7,2.876,6.913,4.467a21.47,21.47,0,0,0,6.539,3.3,27.255,27.255,0,0,0,5.41.965C212.619,225.219,212.629,225.072,212.642,224.925Z"/><path class="cls-3" d="M-6.664,19.918a2.69,2.69,0,0,1,.958-1.954,1.42,1.42,0,0,1-.076-.559h0C-5.687,16.193-3.764,15.574-2.4,16A18.046,18.046,0,0,1,.622,17.684a19.156,19.156,0,0,0,2.491,1.437c1.786.691,3.288,1.311,4.739,1.911s2.948,1.219,4.736,1.911c.36.151.7.288,1.04.421a13.825,13.825,0,0,1,3.98,2.131c1.5,1.239,3.082,2.655,4.451,3.987a25.437,25.437,0,0,1,2.547,3.074,19.225,19.225,0,0,0,3.711,4.073,45.387,45.387,0,0,0,10.715,5.619c.432.171.887.347,1.358.529,3.2,1.238,7.178,2.778,9.6,5.153.945.96,1.461,1.809,1.42,2.333-.028.346-.338.85-2.11.333a21.976,21.976,0,0,1-2.06-.77,16.937,16.937,0,0,0-2.825-.973A34.166,34.166,0,0,0,36.3,48.3c-4.08.06-8.3.122-13.328-2.472-3.732-1.935-6.195-4.709-8.577-7.392a31.337,31.337,0,0,0-7.882-7.019A37.8,37.8,0,0,0,2.7,29.623a23.769,23.769,0,0,1-6.027-3.289C-5.417,24.609-6.821,21.911-6.664,19.918Zm1.38-1.774-.053.041a2.506,2.506,0,0,0-.945,1.872c-.15,1.9,1.184,4.471,3.171,6.11a22.931,22.931,0,0,0,5.865,3.191,38.054,38.054,0,0,1,3.883,1.827,31.819,31.819,0,0,1,8.043,7.148c2.453,2.763,4.769,5.372,8.393,7.25,4.9,2.527,8.868,2.469,13.073,2.407a34.428,34.428,0,0,1,8.221.564,17.353,17.353,0,0,1,2.923,1,21.149,21.149,0,0,0,2,.748c.77.225,1.7.376,1.742-.183.034-.434-.45-1.206-1.3-2.065-2.329-2.278-6.24-3.792-9.382-5.008-.471-.182-.929-.359-1.366-.532a46.608,46.608,0,0,1-10.872-5.71A19.9,19.9,0,0,1,24.3,32.622a24.977,24.977,0,0,0-2.49-3.009c-1.356-1.319-2.923-2.723-4.411-3.95a13.1,13.1,0,0,0-3.8-2.028c-.34-.135-.687-.273-1.043-.423C10.76,22.521,9.258,21.9,7.806,21.3S4.859,20.082,3.072,19.39A19.271,19.271,0,0,1,.473,17.9a17.889,17.889,0,0,0-2.881-1.62c-1.172-.362-2.909.2-2.993,1.265h0a1.186,1.186,0,0,0,.087.523Z"/><path class="cls-4" d="M47.9,47.825c-4.021-3.244-9.33-4.449-13.8-5.389a49.62,49.62,0,0,1-6.694-1.857,55.235,55.235,0,0,1-7.274-3.349A46.016,46.016,0,0,1,7.661,27.509a38.2,38.2,0,0,0-6.33-5.943,52.812,52.812,0,0,0-7.778-4.087,36.637,36.637,0,0,1-6.682-4.1,46.062,46.062,0,0,1-5.614-5.289A64.519,64.519,0,0,1-23.508,2.13c-.66-.921-1.291-1.849-1.908-2.778a35.4,35.4,0,0,0-2.21-3.183c-.183-.219.149-.323.331-.1A26.643,26.643,0,0,1-25.5-1.394c.748,1.144,1.52,2.284,2.329,3.421a65.8,65.8,0,0,0,4.983,6.2,44.885,44.885,0,0,0,6.39,5.786,44.552,44.552,0,0,0,7.627,4.219A35.194,35.194,0,0,1,2.932,22.4a50.762,50.762,0,0,1,5.726,5.739A47.111,47.111,0,0,0,22.411,38.07a47.766,47.766,0,0,0,6.965,2.845c2.325.724,4.588,1.133,6.881,1.631,3.852.835,8.523,2.371,11.891,5.089.236.19-.008.38-.244.19Z"/><path class="cls-5" d="M4.544,9.55c-2.424,4.6.5,11.028,4.541,13.158,4.18,2.2,9.065,1.041,13.553,1.983C32.383,26.8,36.666,37.25,46.567,38.732,57.8,40.383,64.695,31.022,74.54,28.558c2.266-.586,4.51-.115,6.63-.421,3.675-.555,2.672-3.041.246-4.855-4.024-2.834-10.377-2.266-15.026-2.226-5.142-.041-10.209-.22-14.953-2.366-4.253-2.063-5.864-5.761-9.47-8.374A62.729,62.729,0,0,0,35.5,6.372C33.272,5.2,31.152,5.5,28.688,5.45c-4.863.107-8.046-.1-12.908,0-2.113-.046-5.458-1.72-7.643-1.627C6.23,4.068,3.467,7.2,4.544,9.55"/><path class="cls-4" d="M78.864,24.407c-5.794-2.932-12.836-1.237-18.751.329a45.093,45.093,0,0,1-8.946,1.528,43.935,43.935,0,0,1-9.983-.747,37.151,37.151,0,0,1-17.909-8.474,32.852,32.852,0,0,0-9.288-6.125C10.581,9.579,6.8,9.594,3.21,9.205A28.453,28.453,0,0,1-6.163,6.671,39.583,39.583,0,0,1-14.4,1.206a64.927,64.927,0,0,1-7.287-7.3c-1.028-1.184-2.02-2.4-3-3.629a38.637,38.637,0,0,0-3.462-4.144.3.3,0,0,1,.4-.43,28.97,28.97,0,0,1,2.8,3.288c1.187,1.523,2.4,3.022,3.663,4.485A65.678,65.678,0,0,0-13.67,1.052a37.8,37.8,0,0,0,9.332,5.8C-.992,8.282,2.686,8.588,6.272,8.913A27.332,27.332,0,0,1,16.2,11.251c3.192,1.566,5.755,3.966,8.472,6.2a37.476,37.476,0,0,0,19.59,7.924,39.033,39.033,0,0,0,9.49.061A74.138,74.138,0,0,0,62.9,23.362c5.1-1.3,11.391-1.934,16.245.523a.3.3,0,0,1-.276.522Z"/><path class="cls-6" d="M-6.711-5.615c-2.011,3.75.341,8.955,3.63,10.66,3.4,1.764,7.4.788,11.065,1.524,7.955,1.654,11.39,10.113,19.474,11.255,9.173,1.27,14.868-6.377,22.93-8.442,1.858-.49,3.688-.121,5.424-.383,3.007-.474,2.2-2.488.231-3.946-3.272-2.276-8.468-1.775-12.27-1.713-4.2,0-8.344-.114-12.208-1.827C28.1-.137,26.809-3.13,23.876-5.23a50.6,50.6,0,0,0-5.26-3.164,17.2,17.2,0,0,0-6.754-1.418c-3.976.117-5.386.681-9.362.8-1.725-.025-4.451-1.363-6.237-1.274-1.561.209-3.839,2.773-2.974,4.673"/><path class="cls-5" d="M-20.19-11.344a29.683,29.683,0,0,0,6.236,3.592,28.163,28.163,0,0,0,8.66,1.608A22.179,22.179,0,0,1,2.811-4.3C5.409-3.056,7.491-1.121,9.7.675A30.284,30.284,0,0,0,25.663,6.988a32.192,32.192,0,0,0,7.755-.01A61.661,61.661,0,0,0,40.9,5.235c4.178-1.089,9.324-1.643,13.277.322.276.137.048.564-.229.427-4.718-2.346-10.485-.924-15.331.385a37.386,37.386,0,0,1-7.321,1.3,36.009,36.009,0,0,1-8.158-.544A29.927,29.927,0,0,1,8.554.353,26.294,26.294,0,0,0,1-4.564C-1.775-5.63-4.864-5.593-7.8-5.887a23.132,23.132,0,0,1-7.646-2,29.1,29.1,0,0,1-5.039-3.078Q-20.336-11.154-20.19-11.344Z"/><path class="cls-7" d="M-20.349,7.794c-3.527,1.711-4.621,6.927-3.117,10.026,1.554,3.207,5.043,4.683,7.35,7.259,4.979,5.639,2.914,13.9,8.269,19.225,6.09,6.022,14.461,3.413,21.545,6.314,1.639.657,2.792,1.946,4.218,2.707,2.48,1.3,2.982-.655,2.318-2.842-1.18-3.519-5.293-6.012-8.137-8.065C8.99,40.1,5.991,37.722,4.066,34.3c-1.662-3.155-.989-6.121-2.014-9.321A47.342,47.342,0,0,0-.114,19.693a15.93,15.93,0,0,0-4.221-4.8c-3-2.107-4.352-2.463-7.354-4.57-1.263-.972-2.549-3.484-3.918-4.4-1.268-.7-4.347-.034-4.742,1.873"/><path class="cls-4" d="M-27.195-3.961a27.924,27.924,0,0,0,2.656,6.146,26.012,26.012,0,0,0,5.526,5.994,20.547,20.547,0,0,1,4.99,5.861,33.839,33.839,0,0,1,2.38,7.55A28.278,28.278,0,0,0-3.277,35.159a29.515,29.515,0,0,0,5.739,4.276,55.737,55.737,0,0,0,6.481,2.822c3.681,1.489,7.786,3.914,9.638,7.576a.223.223,0,0,1-.4.2c-2.212-4.371-7.249-6.487-11.543-8.178A33.993,33.993,0,0,1,.519,38.782a33.1,33.1,0,0,1-5.734-4.915,28.021,28.021,0,0,1-7.1-13.151,24.8,24.8,0,0,0-2.908-7.871C-16.692,10.509-18.995,8.831-21,6.989a21.468,21.468,0,0,1-4.565-5.727,27.353,27.353,0,0,1-2.05-5.1C-27.478-3.878-27.335-3.918-27.195-3.961Z"/></g></svg>