<svg xmlns="http://www.w3.org/2000/svg" width="400" height="400" viewBox="0 0 200 200"><defs><style>.cls-1{fill:#c9b193;}.cls-2{fill:#0a2319;}.cls-3{fill:#120e20;}.cls-4{fill:#95ab3d;}.cls-5{fill:#182f21;}.cls-6{fill:#798533;}.cls-7{fill:#fff;}</style></defs><title>card3</title><g id="Layer_2" data-name="Layer 2"><rect class="cls-1" width="200" height="200"/></g><g id="Layer_1" data-name="Layer 1"><path class="cls-2" d="M39.324,156.4a1.874,1.874,0,0,1-1.512.129,1,1,0,0,1-.307.246h0c-.759.377-1.819-.55-2.056-1.518a12.556,12.556,0,0,1-.076-2.411,13.288,13.288,0,0,0-.036-2.005c-.228-1.316-.4-2.436-.559-3.519s-.329-2.2-.558-3.517c-.039-.269-.08-.524-.121-.773a9.625,9.625,0,0,1-.155-3.144c.2-1.342.48-2.795.785-4.092a17.718,17.718,0,0,1,.923-2.626,13.393,13.393,0,0,0,1.1-3.681,31.63,31.63,0,0,0-.488-8.422c-.053-.32-.111-.655-.171-1-.409-2.356-.917-5.288-.369-7.591a2.737,2.737,0,0,1,.885-1.686c.217-.108.629-.1.956,1.141a15.086,15.086,0,0,1,.28,1.508,11.876,11.876,0,0,0,.433,2.038,23.759,23.759,0,0,0,2.583,5.049c1.5,2.418,3.053,4.918,3.307,8.855a20.719,20.719,0,0,1-1.339,7.781,21.862,21.862,0,0,0-1.366,7.232,26.318,26.318,0,0,0,.3,2.925,16.565,16.565,0,0,1,.2,4.783A5.979,5.979,0,0,1,39.324,156.4Zm-1.556-.188.044.017a1.747,1.747,0,0,0,1.458-.107,5.687,5.687,0,0,0,2.514-4.089,16,16,0,0,0-.2-4.652,26.416,26.416,0,0,1-.3-2.977,22.2,22.2,0,0,1,1.385-7.374,20.086,20.086,0,0,0,1.32-7.62c-.247-3.834-1.708-6.187-3.255-8.679a24,24,0,0,1-2.614-5.116,12.1,12.1,0,0,1-.449-2.108c-.079-.516-.152-1-.271-1.464-.143-.541-.385-1.15-.735-.976a2.565,2.565,0,0,0-.77,1.515c-.525,2.211-.026,5.092.375,7.406.06.348.119.685.172,1.008a32.437,32.437,0,0,1,.49,8.549,13.882,13.882,0,0,1-1.129,3.788,17.564,17.564,0,0,0-.9,2.569c-.3,1.284-.578,2.724-.778,4.055a9.175,9.175,0,0,0,.155,3c.041.252.083.509.121.776.228,1.315.4,2.436.559,3.519s.33,2.2.558,3.516a13.4,13.4,0,0,1,.041,2.089,12.361,12.361,0,0,0,.067,2.3c.2.83,1.166,1.665,1.83,1.335h0a.843.843,0,0,0,.281-.24Z"/><path class="cls-3" d="M36.415,113.757c-.5,3.568.689,7.175,1.733,10.185a34.659,34.659,0,0,1,1.294,4.669,38.543,38.543,0,0,1,.609,5.55,32.042,32.042,0,0,1-1.333,10.946,26.744,26.744,0,0,0-1.279,5.918,36.731,36.731,0,0,0,.35,6.116,25.67,25.67,0,0,1-.051,5.466,32.172,32.172,0,0,1-1.146,5.254,45.259,45.259,0,0,1-1.853,4.989c-.314.725-.642,1.435-.976,2.138a24.7,24.7,0,0,0-1.109,2.464c-.065.188-.247.027-.181-.161a18.4,18.4,0,0,1,.876-1.982c.415-.858.82-1.729,1.209-2.621a45.735,45.735,0,0,0,1.918-5.206,31.25,31.25,0,0,0,1.165-5.9,31.047,31.047,0,0,0-.217-6.074,24.573,24.573,0,0,1-.063-5.743,35.374,35.374,0,0,1,1.375-5.483,32.881,32.881,0,0,0,1-11.787,33.394,33.394,0,0,0-.8-5.186c-.4-1.649-.97-3.149-1.5-4.7a20.5,20.5,0,0,1-1.227-8.935c.029-.21.23-.132.2.077Z"/><path class="cls-4" d="M29.1,153.418c3.618-.2,6.412-4.26,6.235-7.439-.184-3.289-2.633-5.792-3.681-8.813-2.236-6.583,2.471-12.895-.2-19.345-3.047-7.308-11.117-8.068-16.125-13.068-1.163-1.144-1.688-2.655-2.631-3.812-1.652-2-2.778-.5-2.991,1.6-.249,3.423,2.371,7.016,4.064,9.781,1.822,3.088,3.534,6.182,3.955,9.788.293,3.282-1.339,5.573-1.606,8.667a43.641,43.641,0,0,0-.036,5.281c.1,1.754,1.042,2.911,1.9,4.4,1.809,2.868,2.827,4.846,4.636,7.714.731,1.279.932,3.88,1.772,5.153.829,1.053,3.694,1.579,4.711.093"/><path class="cls-3" d="M11.3,103.658c.327,4.517,3.869,8.117,6.928,11.091a31.387,31.387,0,0,1,4.125,4.8,30.573,30.573,0,0,1,3.138,6.236,25.9,25.9,0,0,1,1.364,13.747,22.928,22.928,0,0,0-.326,7.751c.423,2.517,1.788,4.77,2.845,7.057a19.836,19.836,0,0,1,1.851,6.513,27.6,27.6,0,0,1-.308,6.888,45.2,45.2,0,0,1-1.749,6.978c-.339,1.039-.71,2.07-1.094,3.093a26.885,26.885,0,0,0-1.234,3.558.206.206,0,0,1-.4-.087,20.129,20.129,0,0,1,.961-2.852c.485-1.256.944-2.521,1.366-3.8a45.744,45.744,0,0,0,1.8-7.273,26.368,26.368,0,0,0,.116-7.661,24.146,24.146,0,0,0-2.576-7.082,19.069,19.069,0,0,1-2.169-6.777,31.408,31.408,0,0,1,.664-7.29,26.132,26.132,0,0,0-2.3-14.555,27.2,27.2,0,0,0-3.371-5.694,51.5,51.5,0,0,0-4.52-4.718c-2.609-2.582-5.245-6.115-5.52-9.9a.206.206,0,0,1,.412-.023Z"/><path class="cls-5" d="M24.079,165.59c2.963-.144,5.23-3.419,5.068-6-.167-2.667-2.186-4.708-3.062-7.161-1.866-5.349,1.957-10.44-.263-15.682-2.535-5.939-9.15-6.6-13.279-10.676a31.429,31.429,0,0,1-2.177-3.1c-1.362-1.627-2.278-.424-2.441,1.279-.186,2.772,1.979,5.7,3.381,7.949,1.509,2.512,2.928,5.029,3.291,7.953.257,2.663-1.067,4.51-1.27,7.018a34.924,34.924,0,0,0,0,4.28A11.98,11.98,0,0,0,14.9,156c1.5,2.334,2.341,2.975,3.839,5.309.605,1.041.783,3.151,1.478,4.186.685.859,3.035,1.3,3.861.1"/><path class="cls-4" d="M25.494,175.7a20.7,20.7,0,0,0-.093-5.017,19.618,19.618,0,0,0-2.148-5.754,15.459,15.459,0,0,1-1.81-5.5,24.954,24.954,0,0,1,.5-5.9,21.115,21.115,0,0,0-1.959-11.811,22.43,22.43,0,0,0-2.79-4.632,42.863,42.863,0,0,0-3.729-3.848c-2.151-2.107-4.33-4.983-4.574-8.052-.018-.215.319-.231.337-.017.292,3.663,3.212,6.6,5.735,9.026a26.161,26.161,0,0,1,3.4,3.911,25.182,25.182,0,0,1,2.6,5.071,20.867,20.867,0,0,1,1.189,11.15,18.356,18.356,0,0,0-.227,6.28c.36,2.042,1.49,3.875,2.368,5.735a16.107,16.107,0,0,1,1.551,5.288,20.23,20.23,0,0,1-.03,4.117Z"/><path class="cls-6" d="M36.99,168.928c2.289,1.494,5.8.275,7.113-1.736,1.358-2.081.988-4.7,1.7-7,1.583-5,7.263-6.733,8.523-11.845,1.413-5.8-3.152-9.87-3.961-15.145a28.576,28.576,0,0,1,.1-3.494c-.111-1.951-1.463-1.547-2.531-.365-1.681,1.969-1.694,5.323-1.9,7.76a19.006,19.006,0,0,1-1.969,7.715c-1.289,2.126-3.3,2.788-4.849,4.55a33.073,33.073,0,0,0-2.382,3.193,11.1,11.1,0,0,0-1.352,4.245c-.182,2.552.09,3.486-.092,6.037-.128,1.1-1.168,2.775-1.226,3.923.034,1.011,1.54,2.611,2.822,2.162"/><path class="cls-3" d="M32.421,177.241a19.494,19.494,0,0,0,2.721-3.794,18.173,18.173,0,0,0,1.6-5.455,14.346,14.346,0,0,1,1.711-5.088,23.6,23.6,0,0,1,3.659-4.133,19.725,19.725,0,0,0,5.108-9.873,20.573,20.573,0,0,0,.495-4.965,38.829,38.829,0,0,0-.64-4.887c-.431-2.735-.456-6.06,1.068-8.482a.156.156,0,0,1,.261.17c-1.819,2.891-1.275,6.661-.744,9.836a23.722,23.722,0,0,1,.362,4.759,23.118,23.118,0,0,1-.879,5.192,19.532,19.532,0,0,1-5.313,8.964,17.277,17.277,0,0,0-3.661,4.564,21.68,21.68,0,0,0-1.424,5.56,14.988,14.988,0,0,1-1.784,4.785,19.065,19.065,0,0,1-2.312,3.056C32.573,177.38,32.5,177.309,32.421,177.241Z"/><path class="cls-2" d="M17.052,163.169a5.689,5.689,0,0,1-.7,1.815,1.71,1.71,0,0,1-.037.413h0a3.067,3.067,0,0,1-1.757,2.125,2.681,2.681,0,0,1-1.189-.4,2.827,2.827,0,0,0-.976-.364c-.743,0-1.362-.025-1.961-.053s-1.216-.055-1.959-.052c-.149-.008-.291-.011-.431-.013a2.126,2.126,0,0,1-1.579-.454,14.149,14.149,0,0,1-1.56-1.758,7.312,7.312,0,0,1-.79-1.625,4.819,4.819,0,0,0-1.2-2.049,6.936,6.936,0,0,0-4.267-1.13c-.18,0-.369,0-.565,0-1.33.006-2.985.012-3.81-1.1a1.875,1.875,0,0,1-.361-1.389,1.146,1.146,0,0,1,1.026-.9,4.084,4.084,0,0,1,.86-.025,3.333,3.333,0,0,0,1.191-.1,14.814,14.814,0,0,0,3.708-2.032c1.909-1.286,3.882-2.615,5.89-2.118,1.489.375,2.279,1.792,3.043,3.162.715,1.281,1.454,2.607,2.767,3.081a5.974,5.974,0,0,0,1.547.241,3.606,3.606,0,0,1,2.383.736C17.076,159.888,17.382,161.567,17.052,163.169Zm-.87,1.8.03-.048a5.341,5.341,0,0,0,.681-1.747,4.434,4.434,0,0,0-.69-3.8,3.485,3.485,0,0,0-2.321-.708,6.052,6.052,0,0,1-1.573-.247c-1.351-.487-2.1-1.832-2.826-3.133-.787-1.41-1.53-2.742-2.976-3.107-1.955-.484-3.812.767-5.779,2.092a14.91,14.91,0,0,1-3.756,2.055,3.453,3.453,0,0,1-1.233.105,3.878,3.878,0,0,0-.835.024.928.928,0,0,0-.835.671,1.687,1.687,0,0,0,.337,1.218c.792,1.07,2.418,1.064,3.725,1.058.2,0,.387,0,.568,0a7.118,7.118,0,0,1,4.328,1.152,4.991,4.991,0,0,1,1.242,2.1,7.188,7.188,0,0,0,.772,1.592,14.118,14.118,0,0,0,1.546,1.742,2.02,2.02,0,0,0,1.511.426c.141,0,.285,0,.432.013.742,0,1.362.025,1.961.053s1.216.055,1.959.052a2.861,2.861,0,0,1,1.019.375,2.644,2.644,0,0,0,1.133.389,2.8,2.8,0,0,0,1.557-1.9h0a1.41,1.41,0,0,0,.027-.382Z"/><path class="cls-3" d="M-4.77,157.968c1.455,1.31,3.773.638,5.735.013a11.62,11.62,0,0,1,2.879-.584,8.87,8.87,0,0,1,2.956.4,7.719,7.719,0,0,1,4.558,3.8,7.7,7.7,0,0,0,2.183,2.714,7.981,7.981,0,0,0,3.1.826,5.435,5.435,0,0,1,2.584,1.168,9.259,9.259,0,0,1,1.934,2.42,19.659,19.659,0,0,1,1.452,3.205c.188.518.363,1.05.531,1.587a13.026,13.026,0,0,0,.619,1.812c.057.115-.111.3-.168.182a9.673,9.673,0,0,1-.506-1.439c-.2-.665-.414-1.32-.645-1.961a19.679,19.679,0,0,0-1.522-3.325,8.585,8.585,0,0,0-2.231-2.573,6.646,6.646,0,0,0-3.009-.976,5.24,5.24,0,0,1-2.775-1.088,11.077,11.077,0,0,1-1.927-2.739,7.543,7.543,0,0,0-5.127-3.573,8.294,8.294,0,0,0-2.878-.1,20.5,20.5,0,0,0-2.995.817c-1.686.518-3.664.738-4.883-.36-.085-.076.053-.3.138-.222Z"/><polygon class="cls-7" points="13.234 170.325 38.82 175.816 37.301 200 17.557 200 13.234 170.325"/></g></svg>