<svg xmlns="http://www.w3.org/2000/svg" xmlns:xlink="http://www.w3.org/1999/xlink" width="1920" height="1080" viewBox="0 0 1920 1080"><defs><style>.cls-1,.cls-64{fill:none;}.cls-2{fill:#c9b193;}.cls-3{fill:#e0c6a9;}.cls-4{fill:#548687;}.cls-5{fill:#91775a;}.cls-6{fill:#252a38;}.cls-49,.cls-7{fill:#fff;}.cls-8{fill:#f2ebdf;}.cls-9{fill:#b5b5b5;}.cls-10{fill:#110d0d;opacity:0.11;}.cls-11{fill:#0a0707;opacity:0.23;}.cls-12{fill:#423838;}.cls-13{fill:#211b1b;}.cls-14{fill:#f9f6f4;}.cls-15{fill:#efe9e6;}.cls-16{fill:#211f1d;}.cls-17{fill:#141010;}.cls-18{fill:#312929;}.cls-19,.cls-21,.cls-28{fill:#3a2104;}.cls-19{opacity:0.16;}.cls-20,.cls-28{opacity:0.19;}.cls-22{fill:#e5d2b7;}.cls-23{fill:#5b3c3e;}.cls-24{fill:#ead3aa;}.cls-25{fill:#f4e6ce;}.cls-26{fill:#413031;}.cls-27{fill:#6d5759;}.cls-29{fill:#d1c8bd;}.cls-30{fill:#e2dbd0;}.cls-31{fill:#b5aca1;}.cls-32{fill:#bfb6ac;}.cls-33{fill:#eaf0f5;}.cls-34{fill:#d5dee6;}.cls-35{fill:#d6e3ee;}.cls-36{fill:#beccd6;}.cls-37{fill:#e4ebed;}.cls-38{fill:#dfe6ea;}.cls-39{fill:#e9eeef;}.cls-40{fill:#e1e7ed;}.cls-41{fill:#d4dde3;}.cls-42{fill:#f7f7f7;}.cls-43{fill:#2e2e50;opacity:0.4;}.cls-44{fill:#753f30;}.cls-45{fill:#798533;}.cls-46{fill:#95ab3d;}.cls-47{fill:#120e20;}.cls-48{fill:#182f21;}.cls-49,.cls-64{stroke:#231f20;stroke-miterlimit:10;}.cls-50{fill:#034c3c;}.cls-51{fill:#02271f;}.cls-52{fill:#ffbb94;}.cls-53{fill:#375858;}.cls-54{fill:#fbfaff;}.cls-55{fill:#030000;}.cls-56{fill:#231f20;}.cls-57{clip-path:url(#clip-path);}.cls-58{clip-path:url(#clip-path-2);}.cls-59{fill:#2f374a;}.cls-60{opacity:0.7;}.cls-61{fill:#8e4d00;}.cls-62{fill:#912a3c;}.cls-63{fill:#542c00;}.cls-64{stroke-width:0.5px;}.cls-65{fill:#0c1016;}.cls-66{fill:#182238;}.cls-67{fill:#fdfcfb;}.cls-68{fill:#18140b;}.cls-69{fill:#f8f8f7;}.cls-70{fill:#f7f8f6;}.cls-71{fill:#2d2623;}</style><clipPath id="clip-path"><path class="cls-1" d="M1180.071,818.525l23.257,13.6-34.225,46.8c-3.037-2.046-4.279-5.959-3.909-9.6s1.985-7,3.47-10.333,2.878-6.853,2.764-10.507a13.424,13.424,0,0,0-5.314-10.176"/></clipPath><clipPath id="clip-path-2"><path class="cls-1" d="M1150.123,856.315l18.056,19.995L1121.4,910.566c-2.276-2.867-2.277-6.973-.825-10.326s4.009-6.073,6.433-8.8,4.816-5.661,5.811-9.178a13.415,13.415,0,0,0-1.988-11.307"/></clipPath></defs><title>hero2</title><g id="bg"><polygon class="cls-2" points="1969.758 1105.719 -47.725 1105.378 -49.614 -26 1967.657 -25.884 1969.758 1105.719"/></g><g id="bg2"><path class="cls-3" d="M2053.331,842s-330.6-121.106-743.2-116.388-568.93-90.173-689.377-142.076S220.968,484.971-84,561.255V842Z"/><rect class="cls-4" x="-62.091" y="857.364" width="2070.089" height="248.636"/><rect class="cls-5" x="-62" y="841.667" width="2031" height="22.353"/><path class="cls-3" d="M-183.331-49s330.6,121.106,743.2,116.388,568.93,90.173,689.377,142.076,399.79,98.565,704.758,22.281V-49Z"/></g><g id="decor"><circle class="cls-6" cx="408.291" cy="276.133" r="66.025" transform="translate(-75.67 369.583) rotate(-45)"/><path class="cls-7" d="M407.583,214.493v10.058a.968.968,0,0,0,1.934,0V214.493a.968.968,0,0,0-1.934,0Z"/><path class="cls-7" d="M407.583,239.768V273.3a.968.968,0,0,0,1.934,0V239.768a.968.968,0,0,0-1.934,0Z"/><path class="cls-7" d="M346.651,276.842H356.71a.967.967,0,0,0,0-1.933H346.651a.967.967,0,0,0,0,1.933Z"/><path class="cls-7" d="M409,337.773V327.714a.968.968,0,0,0-1.935,0v10.059a.968.968,0,0,0,1.935,0Z"/><path class="cls-7" d="M469.932,275.424H459.873a.968.968,0,0,0,0,1.935h10.059a.968.968,0,0,0,0-1.935Z"/><path class="cls-7" d="M442.078,275.424H408.55a.968.968,0,0,0,0,1.935h33.528a.968.968,0,0,0,0-1.935Z"/><path class="cls-7" d="M412.8,276.133a4.513,4.513,0,1,1-4.512-4.513A4.511,4.511,0,0,1,412.8,276.133Z"/><path class="cls-8" d="M1693.357,166.79v58.338q2.684,3.8,5.357,7.613V162.084Z"/><polygon class="cls-9" points="1574.389 333.655 1579.027 328.948 1579.027 166.739 1574.389 162.034 1574.389 333.655"/><path class="cls-10" d="M1574.232,163.4l-.009,168.917,11.66,9.3h119.128V241.469c-19.226-27.563-38.133-54.473-60.892-78.1Z"/><path class="cls-11" d="M1696.468,162.035l-52.349.021c22.759,25.222,41.666,52.132,60.892,79.694V170.372Z"/><path class="cls-12" d="M1573.692,162.035V333.658h125.022V232.692c-17.1-24.406-34.308-48.2-54.569-70.657Z"/><path class="cls-13" d="M1644.144,162.084c20.262,22.457,37.475,46.251,54.57,70.657V162.084Z"/><path class="cls-14" d="M1579.143,166.741V328.948l114.4-.232.031-102.937c-14.155-20.037-28.13-40.346-44.516-59.038Z"/><polygon class="cls-15" points="1648.363 166.79 1693.335 225.095 1693.335 166.79 1648.363 166.79"/><polygon class="cls-16" points="1580.086 328.948 1578.592 328.948 1578.398 166.741 1580.086 168.146 1580.086 328.948"/><path class="cls-16" d="M1691.9,328.847l1.674-.006V225.476q-.835-1.188-1.674-2.376Z"/><path class="cls-17" d="M1691.9,168.149V223.1q.837,1.185,1.674,2.376V166.741Z"/><polygon class="cls-16" points="1578.254 166.62 1580.086 168.146 1649.571 168.146 1648.247 166.62 1578.254 166.62"/><path class="cls-17" d="M1693.575,166.741l-45.328-.121c.408.467.918,1.059,1.324,1.526h42.33Z"/><polygon class="cls-18" points="1578.785 328.948 1573.692 333.624 1573.692 162.035 1578.398 166.741 1578.785 328.948"/><polygon class="cls-16" points="1693.575 328.841 1578.728 329 1580.095 327.602 1692.663 327.722 1693.575 328.841"/><rect class="cls-18" x="1501.579" y="417.386" width="276.766" height="4.924"/><polygon class="cls-19" points="1501.579 422.31 1784.332 435.424 1778.345 422.31 1501.579 422.31"/><g class="cls-20"><polygon class="cls-21" points="1622.459 417.367 1591.468 417.386 1591.468 396.502 1622.459 417.367"/></g><rect class="cls-22" x="1511.681" y="401.139" width="81.913" height="2.318"/><rect class="cls-23" x="1514.386" y="403.458" width="80.077" height="3.333"/><rect class="cls-24" x="1516.792" y="406.791" width="72.456" height="5.94"/><rect class="cls-25" x="1589.247" y="406.791" width="4.347" height="5.94"/><rect class="cls-26" x="1510.039" y="412.731" width="85.198" height="4.636"/><rect class="cls-25" x="1519.835" y="406.791" width="9.428" height="5.94"/><rect class="cls-27" x="1518.639" y="396.502" width="72.829" height="4.637"/><polygon class="cls-28" points="1728.58 399.939 1737.837 417.386 1719.236 417.386 1728.58 399.939"/><path class="cls-29" d="M1729.677,404.557c0-6.257-5.666-11.373-12.853-11.836a50.284,50.284,0,0,1-.857,23.709C1723.557,416.337,1729.677,411.062,1729.677,404.557Z"/><path class="cls-30" d="M1716.824,392.721c-.351-.023-.7-.045-1.057-.045-7.682,0-13.911,5.319-13.911,11.881s6.229,11.882,13.911,11.882c.067,0,.133-.008.2-.009A50.284,50.284,0,0,0,1716.824,392.721Z"/><path class="cls-30" d="M1710.3,415.463v1.923h3.889c.6-.629,1.174-1.273,1.746-1.923Z"/><path class="cls-29" d="M1721.238,415.463h-5.308c-.572.65-1.149,1.294-1.746,1.923h7.054Z"/><rect class="cls-29" x="1717.12" y="391.729" width="4.679" height="2.102"/><rect class="cls-30" x="1709.735" y="391.729" width="7.385" height="2.102"/><rect class="cls-31" x="1709.735" y="393.546" width="12.063" height="0.284"/><polygon class="cls-32" points="1710.295 415.463 1710.295 415.943 1715.402 415.943 1715.963 415.463 1710.295 415.463"/><polygon class="cls-31" points="1721.238 415.463 1715.963 415.463 1715.402 415.943 1721.238 415.943 1721.238 415.463"/><path class="cls-33" d="M1321.449,290.455c-8.538-2.4-41.782-3.62-51.506-3.754l-475.822.221c-16.763,1.774-38.95,1.957-55.89,2.338-10.312.232-7.507,1.23-9.627,33.171-2.016,30.361-1.815,60.878-2.119,91.335q-.458,45.6.284,91.2.359,21.883.989,43.761c.284,10.027-2.245,22.663.139,32.134-.489,5.088-.02,10.01,6.752,12.707,6.04,2.406,15.989,3.2,26.755,3.308.466,0,.928.01,1.4.01.234,0,.47,0,.706,0,14.675.055,30.562-1.064,40-1.07l58.072-.025c89.284-.042,318.9-.085,408.184-.125,9.576-.006,42.488-.136,51.125-4.574a12.055,12.055,0,0,0,5.264-4.675c5.026-9.111,1.917-23.445,2.352-33.105l-.451,0,0,0-.426,0c.343-14.057-.762-29.23-.486-40.893q.708-30.4.651-60.824-.067-36.084-1.214-72.149c-.685-21.562,2.221-53.269,3.317-76.526C1330.364,292.963,1330.364,292.963,1321.449,290.455Z"/><path class="cls-34" d="M841.8,407.44q-51.281-4.659-102.566-9.314c-2.86-.26-6.278-.142-7.856,3.34a16.623,16.623,0,0,0-.955,6.277q-2.21,91.666,1.738,183.355,48.135,1.275,96.268,2.548c5.582.147,11.2,2.486,14.082-5.259,2.723-7.322.693-25.366.816-33.723q.518-35.235.186-70.485C843.453,477.769,842.568,407.44,841.8,407.44Z"/><path class="cls-35" d="M957.759,554.907c.023-1.578-.061-3.433-1.123-4.307a3.275,3.275,0,0,0-2.137-.546l-76.257-1.171c-1.415-.021-2.947,0-4.071,1.053-1.453,1.359-1.7,3.888-1.806,6.132-.554,11.818-.523,23.676.1,35.488,16.873,1.708,33.8-1.659,50.737-1.68a171.193,171.193,0,0,1,18.1,1.048c3.69.389,10.829,3.244,13.971-.11,2.769-2.954,2.074-9.77,2.138-13.695Q957.58,566.013,957.759,554.907Z"/><path class="cls-36" d="M865.091,369.532a6.418,6.418,0,0,0-.7-3.284c-.709-1.018-1.856-.91-2.85-.7-5.385,1.112-10.686,2.958-16.067,4.148-8.641,1.912-17.415,2.115-26.153,2.315q-10.309.236-20.613.468c-2.507.057-5.3-.046-7.08-2.6,1.657,37.436,1.968,74.994.972,112.48-.913,34.21-2.911,68.425-1.955,102.634a4.723,4.723,0,0,0,.558,2.577,1.951,1.951,0,0,0,1.567.645l45.706,3.261c6.85.489,15.757,3.4,22.476,1.587,5.959-1.608,3.675-12.44,3.436-19.075-1.577-43.621.2-87.28,1.01-130.892C865.854,418.577,866.01,394.029,865.091,369.532Z"/><path class="cls-37" d="M838.556,589.935a4.02,4.02,0,0,1-2.605-1,6.33,6.33,0,0,1-1.2-3.5c-1.939-14.667-2.2-29.582-2.454-44.439q-.342-19.73-.68-39.457c-.047-2.9,0-6.145,1.646-8.227,1.658-2.1,4.314-2.234,6.693-2.23q22.622.03,45.247.064-.875,22.861-1.742,45.729c-.371,9.709-.728,19.46-.154,29.167.351,5.887,4.871,19.627,1.928,24.62-3.117,5.289-16.4,1.835-21.1,1.568Q851.325,591.5,838.556,589.935Z"/><path class="cls-34" d="M974.115,589.373a195.086,195.086,0,0,1-41.825-.468q-2.026-84.3-4.054-168.588a311.362,311.362,0,0,1,37.035-1.594c4.27.107,7.936-.38,9.407,5.217,1.5,5.748-.374,15.675-.517,21.754-.726,30.811-.758,61.64-.547,92.461C973.643,542.448,974.466,589.339,974.115,589.373Z"/><path class="cls-38" d="M764.261,459.628c-.064,1.451-.266,3.173-1.323,3.806a2.779,2.779,0,0,1-1.081.3,83.541,83.541,0,0,1-9.162.737,3.093,3.093,0,0,1-2.617-.8,5.217,5.217,0,0,1-.8-3.024q-.332-5.564-.664-11.127a1.006,1.006,0,0,1,.129-.7.577.577,0,0,1,.543-.121c4.113.524,8.7.422,12.711,1.621C765.756,451.451,764.434,455.54,764.261,459.628Z"/><path class="cls-38" d="M749.672,470.77a1.3,1.3,0,0,0-.866.166,1.673,1.673,0,0,0-.466.721,14.782,14.782,0,0,0-.667,5.544q.034,4.677.066,9.355c4.066-.031,8.442.054,12.451-.86,3.5-.8,3.794-4.129,3.21-8.179C762.244,469.477,754.717,471,749.672,470.77Z"/><path class="cls-38" d="M750.511,493.621a53.736,53.736,0,0,0-.4,13.6,1.225,1.225,0,0,0,.2.671.778.778,0,0,0,.554.216q4.8.463,9.6.924c3.748.361,3.78-9.71,2.1-12.715a5.487,5.487,0,0,0-4.035-2.66C757.77,493.492,750.657,492.9,750.511,493.621Z"/><path class="cls-38" d="M749.957,517.568a45.1,45.1,0,0,0-.015,15.828,1.175,1.175,0,0,0,.2.557.736.736,0,0,0,.606.187l8.752-.046a3.659,3.659,0,0,0,2.969-.953,6.087,6.087,0,0,0,.925-3.613q.167-3.7.334-7.4c.142-3.089.67-3.623-1.7-4.319C758.345,516.73,753.714,517.348,749.957,517.568Z"/><path class="cls-39" d="M865.8,507.014c-3.633-.322-7.224-1.48-10.868-1.327a1.783,1.783,0,0,0-1.7.865,2.982,2.982,0,0,0-.164,1.214c0,1.5,0,3,0,4.5a2.017,2.017,0,0,0,.154.952,1.244,1.244,0,0,0,1.269.479l10.15-.484c2.289-.108,7.967.936,9.884-.5,2.056-1.531.558-3.811-1-4.84C871.242,506.376,868.278,507.233,865.8,507.014Z"/><path class="cls-39" d="M855.072,517.731a.744.744,0,0,0-.582.167,1.2,1.2,0,0,0-.218.753,38.233,38.233,0,0,0,.16,6.639,1.21,1.21,0,0,0,.252.734.743.743,0,0,0,.634.129,127.123,127.123,0,0,1,19.1-.543c.4.02.887-.007,1.1-.431a1.677,1.677,0,0,0,.116-.749c.011-1.66.526-4.381-.674-5.515-1.171-1.1-5.131-.561-6.581-.661C863.949,517.95,859.5,517.731,855.072,517.731Z"/><path class="cls-39" d="M855.005,529.067a.576.576,0,0,0-.377.158.882.882,0,0,0-.138.522,32.973,32.973,0,0,0,.223,6.228q8.994.4,17.99.795a1.327,1.327,0,0,0,.844-.157,1.9,1.9,0,0,0,.568-1.1c1.7-6.542-1.831-6.135-6.261-6.631A51.262,51.262,0,0,0,855.005,529.067Z"/><path class="cls-40" d="M969.505,431.653c-.021.468-.085,1.023-.431,1.228a.876.876,0,0,1-.345.1,26.9,26.9,0,0,1-2.958.238,1.007,1.007,0,0,1-.845-.258,1.686,1.686,0,0,1-.26-.976c-.068-1.2-.143-2.394-.212-3.592a.306.306,0,0,1,.042-.226.182.182,0,0,1,.173-.038,25.729,25.729,0,0,1,4.1.523C969.989,429.013,969.557,430.332,969.505,431.653Z"/><path class="cls-40" d="M964.8,435.248a.41.41,0,0,0-.278.054.526.526,0,0,0-.155.233,4.772,4.772,0,0,0-.213,1.79q.009,1.507.023,3.018a18.979,18.979,0,0,0,4.017-.278c1.129-.257,1.225-1.331,1.036-2.64C968.851,434.831,966.425,435.322,964.8,435.248Z"/><path class="cls-40" d="M965.065,442.623a17.378,17.378,0,0,0-.129,4.389.406.406,0,0,0,.065.217.262.262,0,0,0,.18.069l3.1.3c1.212.117,1.22-3.134.679-4.1a1.771,1.771,0,0,0-1.3-.858C967.407,442.582,965.113,442.39,965.065,442.623Z"/><path class="cls-40" d="M964.886,450.352a14.584,14.584,0,0,0,0,5.108.357.357,0,0,0,.064.18.243.243,0,0,0,.2.061q1.41-.009,2.822-.015a1.187,1.187,0,0,0,.959-.308,1.954,1.954,0,0,0,.3-1.166q.055-1.194.1-2.389c.048-1,.217-1.17-.546-1.392A12.125,12.125,0,0,0,964.886,450.352Z"/><path class="cls-40" d="M969.505,461c-.021.468-.085,1.024-.431,1.227a.863.863,0,0,1-.345.1,27.147,27.147,0,0,1-2.958.238,1,1,0,0,1-.845-.259,1.686,1.686,0,0,1-.26-.976c-.068-1.2-.143-2.394-.212-3.592a.3.3,0,0,1,.042-.224.182.182,0,0,1,.173-.04,26.077,26.077,0,0,1,4.1.523C969.989,458.362,969.557,459.681,969.505,461Z"/><path class="cls-40" d="M964.8,464.6a.4.4,0,0,0-.278.054.509.509,0,0,0-.155.231,4.78,4.78,0,0,0-.213,1.791q.009,1.509.023,3.019a19.112,19.112,0,0,0,4.017-.277c1.129-.258,1.225-1.333,1.036-2.642C968.851,464.179,966.425,464.671,964.8,464.6Z"/><path class="cls-40" d="M965.065,471.972a17.371,17.371,0,0,0-.129,4.388.412.412,0,0,0,.065.218.267.267,0,0,0,.18.069l3.1.3c1.212.116,1.22-3.134.679-4.1a1.769,1.769,0,0,0-1.3-.858C967.407,471.931,965.113,471.738,965.065,471.972Z"/><path class="cls-40" d="M964.886,479.7a14.6,14.6,0,0,0,0,5.11.351.351,0,0,0,.064.179.238.238,0,0,0,.2.059q1.41,0,2.822-.014a1.177,1.177,0,0,0,.959-.309,1.941,1.941,0,0,0,.3-1.164q.055-1.194.1-2.388c.048-1,.217-1.17-.546-1.395A12.182,12.182,0,0,0,964.886,479.7Z"/><path class="cls-40" d="M962.058,431.653c-.018.468-.085,1.023-.425,1.228a.881.881,0,0,1-.349.1,26.926,26.926,0,0,1-2.954.238,1,1,0,0,1-.845-.258,1.657,1.657,0,0,1-.26-.976c-.074-1.2-.144-2.394-.218-3.592a.332.332,0,0,1,.043-.226.189.189,0,0,1,.175-.038,25.641,25.641,0,0,1,4.1.523C962.542,429.013,962.117,430.332,962.058,431.653Z"/><path class="cls-40" d="M957.352,435.248a.415.415,0,0,0-.278.054.513.513,0,0,0-.152.233,4.813,4.813,0,0,0-.215,1.79c.008,1,.013,2.011.022,3.018a19,19,0,0,0,4.018-.278c1.13-.257,1.224-1.331,1.035-2.64C961.41,434.831,958.981,435.322,957.352,435.248Z"/><path class="cls-40" d="M957.624,442.623a17.331,17.331,0,0,0-.129,4.389.366.366,0,0,0,.064.217.254.254,0,0,0,.177.069l3.1.3c1.212.117,1.222-3.134.681-4.1a1.778,1.778,0,0,0-1.3-.858C959.965,442.582,957.671,442.39,957.624,442.623Z"/><path class="cls-40" d="M957.443,450.352a14.56,14.56,0,0,0,0,5.108.36.36,0,0,0,.067.18.233.233,0,0,0,.192.061l2.825-.015a1.193,1.193,0,0,0,.962-.308,1.989,1.989,0,0,0,.3-1.166c.038-.8.07-1.592.106-2.389.048-1,.219-1.17-.547-1.392A12.131,12.131,0,0,0,957.443,450.352Z"/><path class="cls-40" d="M962.058,461c-.018.468-.085,1.024-.425,1.227a.867.867,0,0,1-.349.1,27.175,27.175,0,0,1-2.954.238.994.994,0,0,1-.845-.259,1.657,1.657,0,0,1-.26-.976c-.074-1.2-.144-2.394-.218-3.592a.325.325,0,0,1,.043-.224.19.19,0,0,1,.175-.04,25.987,25.987,0,0,1,4.1.523C962.542,458.362,962.117,459.681,962.058,461Z"/><path class="cls-40" d="M957.352,464.6a.4.4,0,0,0-.278.054.5.5,0,0,0-.152.231,4.821,4.821,0,0,0-.215,1.791c.008,1.006.013,2.013.022,3.019a19.13,19.13,0,0,0,4.018-.277c1.13-.258,1.224-1.333,1.035-2.642C961.41,464.179,958.981,464.671,957.352,464.6Z"/><path class="cls-40" d="M957.624,471.972a17.325,17.325,0,0,0-.129,4.388.372.372,0,0,0,.064.218.258.258,0,0,0,.177.069l3.1.3c1.212.116,1.222-3.134.681-4.1a1.776,1.776,0,0,0-1.3-.858C959.965,471.931,957.671,471.738,957.624,471.972Z"/><path class="cls-40" d="M957.443,479.7a14.571,14.571,0,0,0,0,5.11.353.353,0,0,0,.067.179.229.229,0,0,0,.192.059c.945,0,1.885-.009,2.825-.014a1.183,1.183,0,0,0,.962-.309,1.977,1.977,0,0,0,.3-1.164c.038-.8.07-1.593.106-2.388.048-1,.219-1.17-.547-1.395A12.188,12.188,0,0,0,957.443,479.7Z"/><path class="cls-41" d="M856.259,380.614a2,2,0,0,1-1.67,1.971,7.707,7.707,0,0,1-1.363.159q-5.768.321-11.576.382a8.169,8.169,0,0,1-3.307-.417,1.78,1.78,0,0,1-1.019-1.565q-.414-2.883-.837-5.763a.292.292,0,0,1,.162-.361,1.573,1.573,0,0,1,.685-.063c5.2.27,11,.218,16.062.839C858.15,376.379,856.482,378.5,856.259,380.614Z"/><path class="cls-41" d="M837.831,386.385a3.768,3.768,0,0,0-1.1.086,1.383,1.383,0,0,0-.59.373,3.619,3.619,0,0,0-.839,2.873q.041,2.421.083,4.843c5.138-.016,10.668.028,15.735-.445,4.424-.413,4.788-2.138,4.052-4.236C853.715,385.715,844.2,386.5,837.831,386.385Z"/><path class="cls-41" d="M838.89,398.219a11.677,11.677,0,0,0-.5,7.045.438.438,0,0,0,.252.348,1.954,1.954,0,0,0,.7.111l12.136.478c4.738.188,4.775-5.028,2.656-6.586a10.525,10.525,0,0,0-5.1-1.377C848.063,398.154,839.074,397.847,838.89,398.219Z"/><path class="cls-41" d="M838.189,410.623a9.943,9.943,0,0,0-.016,8.2.484.484,0,0,0,.253.288,1.932,1.932,0,0,0,.765.1l11.055-.023a9.556,9.556,0,0,0,3.755-.5,2.025,2.025,0,0,0,1.169-1.87q.207-1.917.419-3.832c.178-1.6.85-1.879-2.146-2.238C848.785,410.189,842.935,410.509,838.189,410.623Z"/><path class="cls-41" d="M856.259,427.712a2,2,0,0,1-1.67,1.971,7.8,7.8,0,0,1-1.363.158q-5.768.322-11.576.383a8.152,8.152,0,0,1-3.307-.416,1.783,1.783,0,0,1-1.019-1.567q-.414-2.88-.837-5.762a.294.294,0,0,1,.162-.362,1.6,1.6,0,0,1,.685-.062c5.2.27,11,.217,16.062.838C858.15,423.476,856.482,425.6,856.259,427.712Z"/><path class="cls-41" d="M827.12,380.614a2,2,0,0,1-1.673,1.971,7.65,7.65,0,0,1-1.359.159q-5.769.321-11.579.382a8.166,8.166,0,0,1-3.3-.417,1.777,1.777,0,0,1-1.021-1.565q-.414-2.883-.836-5.763a.293.293,0,0,1,.162-.361,1.57,1.57,0,0,1,.685-.063c5.2.27,11,.218,16.062.839C829.011,376.379,827.344,378.5,827.12,380.614Z"/><path class="cls-41" d="M808.69,386.385a3.724,3.724,0,0,0-1.091.086,1.377,1.377,0,0,0-.593.373,3.611,3.611,0,0,0-.839,2.873q.04,2.421.082,4.843c5.139-.016,10.669.028,15.736-.445,4.424-.413,4.788-2.138,4.052-4.236C824.577,385.715,815.063,386.5,808.69,386.385Z"/><path class="cls-41" d="M809.752,398.219a11.693,11.693,0,0,0-.5,7.045.441.441,0,0,0,.253.348,1.94,1.94,0,0,0,.7.111l12.136.478c4.737.188,4.775-5.028,2.656-6.586a10.528,10.528,0,0,0-5.1-1.377C818.925,398.154,809.936,397.847,809.752,398.219Z"/><path class="cls-41" d="M809.051,410.623a9.947,9.947,0,0,0-.016,8.2.482.482,0,0,0,.252.288,1.937,1.937,0,0,0,.766.1l11.055-.023a9.532,9.532,0,0,0,3.753-.5,2.019,2.019,0,0,0,1.17-1.87q.208-1.917.42-3.832c.178-1.6.847-1.879-2.145-2.238C819.648,410.189,813.8,410.509,809.051,410.623Z"/><path class="cls-41" d="M827.12,427.712a2,2,0,0,1-1.673,1.971,7.745,7.745,0,0,1-1.359.158q-5.769.322-11.579.383a8.149,8.149,0,0,1-3.3-.416,1.78,1.78,0,0,1-1.021-1.567q-.414-2.88-.836-5.762a.3.3,0,0,1,.162-.362,1.6,1.6,0,0,1,.685-.062c5.2.27,11,.217,16.062.838C829.011,423.476,827.344,425.6,827.12,427.712Z"/><path class="cls-35" d="M1012.075,572.589c.016-.97-.037-2.112-.69-2.651a2.023,2.023,0,0,0-1.312-.333l-46.915-.723a3.389,3.389,0,0,0-2.5.651c-.892.835-1.045,2.392-1.11,3.77-.34,7.269-.324,14.565.059,21.83,10.384,1.052,20.8-1.019,31.215-1.032a105.194,105.194,0,0,1,11.127.645c2.273.238,6.665,2,8.6-.068,1.7-1.818,1.274-6.009,1.312-8.426Q1011.971,579.422,1012.075,572.589Z"/><path class="cls-36" d="M921.692,455.353a2.972,2.972,0,0,0-.43-1.72,1.741,1.741,0,0,0-1.753-.37c-3.314.583-6.575,1.55-9.884,2.173a96.513,96.513,0,0,1-16.091,1.211q-6.337.125-12.679.246c-1.54.031-3.261-.024-4.355-1.361,1.02,19.607,1.211,39.278.6,58.91-.557,17.916-1.787,35.838-1.2,53.751a2.172,2.172,0,0,0,.346,1.353,1.32,1.32,0,0,0,.961.337l28.119,1.707c4.214.255,9.692,1.78,13.822.83,3.671-.841,2.263-6.515,2.118-9.989-.97-22.845.124-45.712.617-68.553C922.159,481.038,922.255,468.183,921.692,455.353Z"/><path class="cls-34" d="M940.745,499.425q-31.552-2.427-63.1-4.855c-1.761-.133-3.864-.072-4.833,1.741a7.439,7.439,0,0,0-.587,3.273q-1.362,47.767,1.068,95.549,29.609.667,59.219,1.328c3.437.078,6.89,1.3,8.662-2.741,1.676-3.814.428-13.218.5-17.573q.317-18.362.116-36.731C941.758,536.074,941.217,499.425,940.745,499.425Z"/><path class="cls-37" d="M938.747,594.137a2.468,2.468,0,0,1-1.6-.616,3.876,3.876,0,0,1-.737-2.153c-1.194-9.024-1.354-18.2-1.51-27.338q-.213-12.137-.418-24.271c-.031-1.786,0-3.779,1.01-5.06s2.656-1.375,4.122-1.374l27.831.04q-.534,14.067-1.073,28.13c-.225,5.972-.445,11.97-.094,17.943.216,3.622,3,12.073,1.189,15.143-1.918,3.253-10.093,1.132-12.982.967Q946.606,595.1,938.747,594.137Z"/><path class="cls-34" d="M1022.141,593.791a119.952,119.952,0,0,1-25.735-.289q-1.243-51.853-2.489-103.707a191.608,191.608,0,0,1,22.779-.98c2.63.066,4.885-.234,5.786,3.21.927,3.536-.23,9.643-.316,13.382-.445,18.953-.466,37.918-.336,56.876C1021.849,564.925,1022.353,593.77,1022.141,593.791Z"/><path class="cls-38" d="M893.045,513.978c-.04.892-.165,1.953-.812,2.341a1.72,1.72,0,0,1-.664.187,51.092,51.092,0,0,1-5.638.454,1.911,1.911,0,0,1-1.612-.493,3.217,3.217,0,0,1-.494-1.86q-.2-3.423-.41-6.845a.626.626,0,0,1,.08-.43.359.359,0,0,1,.335-.074c2.528.323,5.354.26,7.821,1C893.964,508.948,893.151,511.463,893.045,513.978Z"/><path class="cls-38" d="M884.072,520.832a.794.794,0,0,0-.534.1,1,1,0,0,0-.287.444,9.042,9.042,0,0,0-.409,3.409q.019,2.879.04,5.756a36.308,36.308,0,0,0,7.661-.529c2.152-.491,2.332-2.541,1.973-5.034C891.805,520.038,887.176,520.974,884.072,520.832Z"/><path class="cls-38" d="M884.584,534.888a33.28,33.28,0,0,0-.244,8.367.772.772,0,0,0,.125.413.481.481,0,0,0,.339.133l5.909.569c2.305.223,2.327-5.974,1.291-7.823a3.364,3.364,0,0,0-2.48-1.636C889.051,534.81,884.674,534.446,884.584,534.888Z"/><path class="cls-38" d="M884.247,549.62a27.7,27.7,0,0,0-.008,9.737.723.723,0,0,0,.122.343.458.458,0,0,0,.372.116q2.693-.017,5.385-.03a2.246,2.246,0,0,0,1.827-.587,3.752,3.752,0,0,0,.569-2.221c.069-1.517.133-3.034.2-4.551.09-1.9.415-2.229-1.044-2.657C889.407,549.1,886.554,549.485,884.247,549.62Z"/><path class="cls-39" d="M955.507,543.129c-2.238-.2-4.443-.911-6.685-.818a1.092,1.092,0,0,0-1.046.533,1.8,1.8,0,0,0-.106.746q0,1.387,0,2.771a1.248,1.248,0,0,0,.1.586.762.762,0,0,0,.778.294q3.123-.148,6.243-.3c1.41-.065,4.9.576,6.082-.3,1.263-.942.346-2.345-.614-2.977C958.855,542.735,957.034,543.263,955.507,543.129Z"/><path class="cls-39" d="M948.907,549.721a.456.456,0,0,0-.356.1.738.738,0,0,0-.137.463,23.727,23.727,0,0,0,.1,4.086.746.746,0,0,0,.156.45.454.454,0,0,0,.39.078,78.513,78.513,0,0,1,11.746-.333c.249.013.546,0,.677-.265a1.045,1.045,0,0,0,.073-.459c0-1.022.322-2.7-.416-3.395-.721-.678-3.155-.345-4.046-.4C954.368,549.856,951.638,549.721,948.907,549.721Z"/><path class="cls-39" d="M948.865,556.693a.354.354,0,0,0-.228.1.559.559,0,0,0-.088.323,20.334,20.334,0,0,0,.136,3.83q5.535.243,11.068.489a.809.809,0,0,0,.521-.1,1.19,1.19,0,0,0,.35-.674c1.043-4.024-1.129-3.774-3.853-4.079A31.65,31.65,0,0,0,948.865,556.693Z"/><path class="cls-40" d="M1019.3,496.768c-.011.288-.048.631-.261.757a.568.568,0,0,1-.214.059,15.848,15.848,0,0,1-1.82.146.615.615,0,0,1-.52-.158,1.051,1.051,0,0,1-.159-.6q-.063-1.1-.131-2.209a.209.209,0,0,1,.024-.138c.027-.033.07-.028.11-.025a16.253,16.253,0,0,1,2.525.322C1019.6,495.145,1019.337,495.957,1019.3,496.768Z"/><path class="cls-40" d="M1016.405,498.98a.248.248,0,0,0-.171.034.326.326,0,0,0-.1.143,3.042,3.042,0,0,0-.132,1.1q.008.927.016,1.856a11.592,11.592,0,0,0,2.473-.17c.692-.158.751-.819.634-1.624C1018.9,498.724,1017.408,499.026,1016.405,498.98Z"/><path class="cls-40" d="M1016.571,503.517a10.621,10.621,0,0,0-.077,2.7.24.24,0,0,0,.037.132.16.16,0,0,0,.113.043l1.907.183c.743.071.748-1.928.413-2.525a1.091,1.091,0,0,0-.8-.528C1018.015,503.492,1016.6,503.374,1016.571,503.517Z"/><path class="cls-40" d="M1016.462,508.271a9.023,9.023,0,0,0-.006,3.144.233.233,0,0,0,.044.11.139.139,0,0,0,.12.036q.868,0,1.736-.009a.72.72,0,0,0,.59-.188,1.2,1.2,0,0,0,.183-.717c.022-.49.042-.98.065-1.47.03-.614.134-.72-.336-.857A7.492,7.492,0,0,0,1016.462,508.271Z"/><path class="cls-40" d="M1019.3,514.823c-.011.287-.048.629-.261.755a.614.614,0,0,1-.214.062,17.058,17.058,0,0,1-1.82.146.62.62,0,0,1-.52-.16,1.05,1.05,0,0,1-.159-.6q-.063-1.106-.131-2.21a.213.213,0,0,1,.024-.139.121.121,0,0,1,.11-.023,16.131,16.131,0,0,1,2.525.321C1019.6,513.2,1019.337,514.012,1019.3,514.823Z"/><path class="cls-40" d="M1016.405,517.035a.253.253,0,0,0-.171.033.33.33,0,0,0-.1.144,3.029,3.029,0,0,0-.132,1.1q.008.93.016,1.858a11.79,11.79,0,0,0,2.473-.17c.692-.159.751-.821.634-1.624C1018.9,516.779,1017.408,517.08,1016.405,517.035Z"/><path class="cls-40" d="M1016.571,521.573a10.59,10.59,0,0,0-.077,2.7.242.242,0,0,0,.037.134.158.158,0,0,0,.113.041c.631.063,1.268.123,1.907.185.743.071.748-1.928.413-2.525a1.088,1.088,0,0,0-.8-.528C1018.015,521.546,1016.6,521.428,1016.571,521.573Z"/><path class="cls-40" d="M1016.462,526.325a9.011,9.011,0,0,0-.006,3.142.232.232,0,0,0,.044.112.146.146,0,0,0,.12.037c.579,0,1.158-.006,1.736-.009a.724.724,0,0,0,.59-.189,1.194,1.194,0,0,0,.183-.717c.022-.491.042-.98.065-1.47.03-.613.134-.72-.336-.857A7.492,7.492,0,0,0,1016.462,526.325Z"/><path class="cls-40" d="M1014.721,496.768c-.01.288-.05.631-.26.757a.568.568,0,0,1-.216.059,15.8,15.8,0,0,1-1.819.146.615.615,0,0,1-.521-.158,1.051,1.051,0,0,1-.159-.6q-.063-1.1-.13-2.209a.193.193,0,0,1,.024-.138c.027-.033.069-.028.109-.025a16.169,16.169,0,0,1,2.522.322C1015.018,495.145,1014.758,495.957,1014.721,496.768Z"/><path class="cls-40" d="M1011.825,498.98a.243.243,0,0,0-.169.034.3.3,0,0,0-.1.143,3.042,3.042,0,0,0-.132,1.1q.008.927.016,1.856a11.587,11.587,0,0,0,2.472-.17c.693-.158.752-.819.635-1.624C1014.322,498.724,1012.83,499.026,1011.825,498.98Z"/><path class="cls-40" d="M1011.991,503.517a10.76,10.76,0,0,0-.077,2.7.26.26,0,0,0,.04.132.149.149,0,0,0,.11.043l1.907.183c.745.071.75-1.928.415-2.525a1.091,1.091,0,0,0-.8-.528C1013.435,503.492,1012.023,503.374,1011.991,503.517Z"/><path class="cls-40" d="M1011.881,508.271a9.1,9.1,0,0,0,0,3.144.23.23,0,0,0,.042.11.138.138,0,0,0,.119.036q.87,0,1.737-.009a.719.719,0,0,0,.59-.188,1.211,1.211,0,0,0,.184-.717c.021-.49.042-.98.066-1.47.029-.614.134-.72-.338-.857A7.5,7.5,0,0,0,1011.881,508.271Z"/><path class="cls-40" d="M1014.721,514.823c-.01.287-.05.629-.26.755a.612.612,0,0,1-.216.062,17,17,0,0,1-1.819.146.619.619,0,0,1-.521-.16,1.05,1.05,0,0,1-.159-.6q-.063-1.106-.13-2.21a.2.2,0,0,1,.024-.139.119.119,0,0,1,.109-.023,16.049,16.049,0,0,1,2.522.321C1015.018,513.2,1014.758,514.012,1014.721,514.823Z"/><path class="cls-40" d="M1011.825,517.035a.248.248,0,0,0-.169.033.306.306,0,0,0-.1.144,3.029,3.029,0,0,0-.132,1.1q.008.93.016,1.858a11.785,11.785,0,0,0,2.472-.17c.693-.159.752-.821.635-1.624C1014.322,516.779,1012.83,517.08,1011.825,517.035Z"/><path class="cls-40" d="M1011.991,521.573a10.729,10.729,0,0,0-.077,2.7.261.261,0,0,0,.04.134.148.148,0,0,0,.11.041c.632.063,1.271.123,1.907.185.745.071.75-1.928.415-2.525a1.088,1.088,0,0,0-.8-.528C1013.435,521.546,1012.023,521.428,1011.991,521.573Z"/><path class="cls-40" d="M1011.881,526.325a9.084,9.084,0,0,0,0,3.142.23.23,0,0,0,.042.112.145.145,0,0,0,.119.037c.58,0,1.159-.006,1.737-.009a.723.723,0,0,0,.59-.189,1.209,1.209,0,0,0,.184-.717c.021-.491.042-.98.066-1.47.029-.613.134-.72-.338-.857A7.5,7.5,0,0,0,1011.881,526.325Z"/><path class="cls-41" d="M916.259,462.547a1.235,1.235,0,0,1-1.03,1.212,4.677,4.677,0,0,1-.837.1q-3.551.2-7.12.234a5.005,5.005,0,0,1-2.035-.254,1.086,1.086,0,0,1-.627-.965q-.258-1.773-.515-3.544a.179.179,0,0,1,.1-.223.969.969,0,0,1,.418-.038c3.2.166,6.763.134,9.88.516C917.422,459.942,916.391,461.245,916.259,462.547Z"/><path class="cls-41" d="M904.921,466.1a2.278,2.278,0,0,0-.671.054.845.845,0,0,0-.367.229,2.215,2.215,0,0,0-.515,1.766q.024,1.493.051,2.982c3.157-.01,6.562.016,9.678-.274,2.72-.254,2.944-1.316,2.491-2.607C914.692,465.685,908.841,466.17,904.921,466.1Z"/><path class="cls-41" d="M905.572,473.377a7.2,7.2,0,0,0-.311,4.332.281.281,0,0,0,.157.216,1.177,1.177,0,0,0,.43.067l7.466.295c2.912.114,2.939-3.093,1.633-4.051a6.44,6.44,0,0,0-3.14-.847C911.215,473.336,905.683,473.148,905.572,473.377Z"/><path class="cls-41" d="M905.141,481.006a6.128,6.128,0,0,0-.011,5.044.306.306,0,0,0,.155.177,1.212,1.212,0,0,0,.473.06l6.8-.014a5.921,5.921,0,0,0,2.308-.3,1.245,1.245,0,0,0,.719-1.151q.132-1.18.258-2.358c.112-.985.523-1.155-1.317-1.376A70.934,70.934,0,0,0,905.141,481.006Z"/><path class="cls-41" d="M916.259,491.52a1.236,1.236,0,0,1-1.03,1.212,4.868,4.868,0,0,1-.837.1q-3.551.2-7.12.236a5.02,5.02,0,0,1-2.035-.257,1.082,1.082,0,0,1-.627-.964q-.258-1.772-.515-3.545a.178.178,0,0,1,.1-.221.954.954,0,0,1,.418-.039c3.2.167,6.763.134,9.88.516C917.422,488.914,916.391,490.216,916.259,491.52Z"/><path class="cls-41" d="M898.332,462.547a1.232,1.232,0,0,1-1.027,1.212,4.689,4.689,0,0,1-.839.1c-2.364.133-4.743.211-7.12.234a5.02,5.02,0,0,1-2.037-.254,1.087,1.087,0,0,1-.621-.965c-.176-1.182-.346-2.363-.518-3.544a.18.18,0,0,1,.1-.223,1,1,0,0,1,.424-.038c3.195.166,6.762.134,9.88.516C899.5,459.942,898.468,461.245,898.332,462.547Z"/><path class="cls-41" d="M887,466.1a2.329,2.329,0,0,0-.675.054.822.822,0,0,0-.361.229,2.229,2.229,0,0,0-.518,1.766q.027,1.493.05,2.982c3.161-.01,6.563.016,9.678-.274,2.725-.254,2.947-1.316,2.5-2.607C896.768,465.685,890.916,466.17,887,466.1Z"/><path class="cls-41" d="M887.648,473.377a7.211,7.211,0,0,0-.313,4.332.292.292,0,0,0,.16.216,1.163,1.163,0,0,0,.43.067l7.462.295c2.916.114,2.937-3.093,1.634-4.051a6.431,6.431,0,0,0-3.137-.847C893.289,473.336,887.76,473.148,887.648,473.377Z"/><path class="cls-41" d="M887.219,481.006a6.109,6.109,0,0,0-.011,5.044.294.294,0,0,0,.154.177,1.2,1.2,0,0,0,.473.06l6.8-.014a5.932,5.932,0,0,0,2.31-.3,1.25,1.25,0,0,0,.721-1.151q.126-1.18.257-2.358c.108-.985.521-1.155-1.322-1.376A70.851,70.851,0,0,0,887.219,481.006Z"/><path class="cls-41" d="M898.332,491.52a1.233,1.233,0,0,1-1.027,1.212,4.88,4.88,0,0,1-.839.1c-2.364.132-4.743.211-7.12.236a5.035,5.035,0,0,1-2.037-.257,1.082,1.082,0,0,1-.621-.964c-.176-1.181-.346-2.361-.518-3.545a.178.178,0,0,1,.1-.221.981.981,0,0,1,.424-.039c3.195.167,6.762.134,9.88.516C899.5,488.914,898.468,490.216,898.332,491.52Z"/><path class="cls-35" d="M1085.574,559.4c-.027-1.353.064-2.943,1.191-3.7a4.078,4.078,0,0,1,2.257-.465q40.322-.505,80.641-1c1.5-.019,3.113,0,4.309.9,1.534,1.165,1.794,3.333,1.907,5.259a249.183,249.183,0,0,1-.1,30.444c-17.846,1.468-35.752-1.423-53.659-1.442-6.388,0-12.77.359-19.132.9-3.9.335-11.458,2.783-14.776-.093-2.928-2.537-2.193-8.381-2.26-11.75Q1085.757,568.932,1085.574,559.4Z"/><path class="cls-36" d="M1240.952,395.9a3.552,3.552,0,0,1,.743-2.4c.751-.745,1.963-.665,3.014-.515,5.693.812,11.3,2.16,16.99,3.03,9.137,1.4,18.413,1.544,27.659,1.69q10.9.171,21.8.342c2.646.042,5.6-.034,7.484-1.9a800.675,800.675,0,0,0-1.024,82.156c.961,24.987,3.074,49.978,2.065,74.964a1.95,1.95,0,0,1-2.25,2.355q-24.168,1.192-48.335,2.381c-7.243.359-16.663,2.482-23.764,1.159-6.305-1.173-3.892-9.085-3.637-13.931,1.667-31.862-.213-63.752-1.068-95.607C1240.15,431.726,1239.986,413.8,1240.952,395.9Z"/><path class="cls-34" d="M1208.2,457.367l108.462-6.769c3.026-.188,6.641-.1,8.308,2.427a8.673,8.673,0,0,1,1.01,4.563q2.34,66.619-1.836,133.258-50.9.925-101.8,1.85c-5.9.109-11.846,1.8-14.892-3.823-2.881-5.32-.732-18.436-.861-24.508q-.543-25.61-.2-51.227C1206.455,508.48,1207.388,457.367,1208.2,457.367Z"/><path class="cls-37" d="M1211.633,589.455a4.848,4.848,0,0,0,2.752-.86,4.8,4.8,0,0,0,1.267-3c2.052-12.583,2.328-25.379,2.6-38.124q.359-16.924.718-33.849c.052-2.492,0-5.273-1.74-7.058-1.753-1.8-4.562-1.918-7.077-1.915l-47.849.055q.927,19.616,1.842,39.231a208.92,208.92,0,0,1,.162,25.023c-.368,5.053-5.153,16.839-2.041,21.123,3.3,4.536,17.345,1.576,22.316,1.346Q1198.128,590.795,1211.633,589.455Z"/><path class="cls-34" d="M1068.275,588.972a253.966,253.966,0,0,0,44.233-.4q2.143-72.315,4.286-144.631c-13-1-26.126-1.633-39.166-1.368-4.514.092-8.391-.327-9.945,4.476-1.6,4.93.4,13.447.543,18.663.769,26.432.8,52.88.58,79.323C1068.774,548.716,1067.909,588.943,1068.275,588.972Z"/><path class="cls-38" d="M1290.2,477.663c.068,1.245.279,2.722,1.4,3.265a3.4,3.4,0,0,0,1.135.262q4.83.534,9.694.634a3.8,3.8,0,0,0,2.767-.69,3.867,3.867,0,0,0,.85-2.594q.349-4.773.7-9.545a.72.72,0,0,0-.135-.6.728.728,0,0,0-.577-.105c-4.347.449-9.2.363-13.441,1.392C1288.616,470.648,1290.016,474.156,1290.2,477.663Z"/><path class="cls-38" d="M1305.626,487.221a1.646,1.646,0,0,1,.916.144,1.419,1.419,0,0,1,.5.618,10.444,10.444,0,0,1,.7,4.756q-.034,4.014-.071,8.026a76.52,76.52,0,0,1-13.167-.737c-3.7-.684-4.01-3.543-3.394-7.018C1292.33,486.112,1300.291,487.419,1305.626,487.221Z"/><path class="cls-38" d="M1304.743,506.827a37.557,37.557,0,0,1,.418,11.666.9.9,0,0,1-.211.577.934.934,0,0,1-.585.184l-10.158.793c-3.964.31-4-8.33-2.223-10.909a6.031,6.031,0,0,1,4.271-2.281C1297.062,506.716,1304.588,506.208,1304.743,506.827Z"/><path class="cls-38" d="M1305.326,527.37a31.5,31.5,0,0,1,.015,13.58.863.863,0,0,1-.214.478.907.907,0,0,1-.639.16q-4.625-.018-9.254-.04a3.357,3.357,0,0,1-4.121-3.917q-.174-3.173-.35-6.348c-.149-2.65-.712-3.109,1.794-3.7C1296.456,526.651,1301.354,527.182,1305.326,527.37Z"/><path class="cls-39" d="M1182.822,518.315c3.842-.275,7.641-1.268,11.494-1.136a2.03,2.03,0,0,1,1.8.742,2.128,2.128,0,0,1,.177,1.04c-.005,1.288-.005,2.577-.01,3.865a1.459,1.459,0,0,1-.161.816c-.274.406-.851.431-1.342.412l-10.734-.415c-2.422-.094-8.423.8-10.453-.427-2.173-1.313-.589-3.271,1.056-4.152C1177.065,517.768,1180.2,518.5,1182.822,518.315Z"/><path class="cls-39" d="M1194.165,527.51a.933.933,0,0,1,.616.143.916.916,0,0,1,.234.646,26.533,26.533,0,0,1-.172,5.7.706.706,0,0,1-.938.741,165.116,165.116,0,0,0-20.191-.465c-.428.016-.938-.006-1.163-.371a1.248,1.248,0,0,1-.126-.643c-.01-1.424-.555-3.757.718-4.731,1.236-.947,5.422-.481,6.954-.567C1184.78,527.7,1189.475,527.51,1194.165,527.51Z"/><path class="cls-39" d="M1194.24,537.235a.669.669,0,0,1,.392.134.662.662,0,0,1,.149.45,23.085,23.085,0,0,1-.233,5.343l-19.029.681a1.659,1.659,0,0,1-.892-.135,1.576,1.576,0,0,1-.6-.94c-1.792-5.613,1.942-5.263,6.624-5.689A66.906,66.906,0,0,1,1194.24,537.235Z"/><path class="cls-40" d="M1073.152,453.663c.022.4.092.879.453,1.054a1.148,1.148,0,0,0,.368.084q1.56.173,3.129.2a1.225,1.225,0,0,0,.893-.222,1.262,1.262,0,0,0,.276-.837q.112-1.542.226-3.081a.238.238,0,0,0-.046-.193.232.232,0,0,0-.185-.034,33.718,33.718,0,0,0-4.339.448C1072.644,451.4,1073.1,452.531,1073.152,453.663Z"/><path class="cls-40" d="M1078.132,456.747a.543.543,0,0,1,.295.046.487.487,0,0,1,.164.2,3.464,3.464,0,0,1,.225,1.534q-.014,1.3-.024,2.592a24.625,24.625,0,0,1-4.25-.239c-1.195-.22-1.3-1.142-1.1-2.263C1073.841,456.39,1076.413,456.811,1078.132,456.747Z"/><path class="cls-40" d="M1077.846,463.075a12.167,12.167,0,0,1,.139,3.765.331.331,0,0,1-.07.187.312.312,0,0,1-.191.059q-1.636.126-3.277.256c-1.281.1-1.291-2.689-.717-3.522a1.94,1.94,0,0,1,1.378-.735A10.243,10.243,0,0,1,1077.846,463.075Z"/><path class="cls-40" d="M1078.035,469.705a10.161,10.161,0,0,1,.006,4.384.326.326,0,0,1-.068.154.3.3,0,0,1-.206.051l-2.988-.012a1.086,1.086,0,0,1-1.332-1.265q-.052-1.023-.11-2.049c-.048-.855-.228-1,.579-1.2A15.807,15.807,0,0,1,1078.035,469.705Z"/><path class="cls-40" d="M1073.152,478.841c.022.4.092.879.453,1.055a1.121,1.121,0,0,0,.368.083q1.56.173,3.129.205a1.229,1.229,0,0,0,.893-.222,1.263,1.263,0,0,0,.276-.838q.112-1.541.226-3.08a.236.236,0,0,0-.046-.193.225.225,0,0,0-.185-.035,33.194,33.194,0,0,0-4.339.449C1072.644,476.577,1073.1,477.709,1073.152,478.841Z"/><path class="cls-40" d="M1078.132,481.927a.524.524,0,0,1,.295.045.484.484,0,0,1,.164.2,3.475,3.475,0,0,1,.225,1.537q-.014,1.293-.024,2.589a24.624,24.624,0,0,1-4.25-.238c-1.195-.22-1.3-1.143-1.1-2.265C1073.841,481.568,1076.413,481.989,1078.132,481.927Z"/><path class="cls-40" d="M1077.846,488.253a12.168,12.168,0,0,1,.139,3.765.325.325,0,0,1-.07.186.3.3,0,0,1-.191.06l-3.277.256c-1.281.1-1.291-2.689-.717-3.521a1.942,1.942,0,0,1,1.378-.736A10.243,10.243,0,0,1,1077.846,488.253Z"/><path class="cls-40" d="M1078.035,494.884a10.152,10.152,0,0,1,.006,4.382.314.314,0,0,1-.068.154.294.294,0,0,1-.206.052l-2.988-.012a1.45,1.45,0,0,1-1.015-.264,1.468,1.468,0,0,1-.317-1q-.052-1.026-.11-2.049c-.048-.855-.228-1,.579-1.2A15.763,15.763,0,0,1,1078.035,494.884Z"/><path class="cls-40" d="M1081.025,453.663c.021.4.09.879.451,1.054a1.147,1.147,0,0,0,.37.084q1.555.173,3.128.2a1.224,1.224,0,0,0,.892-.222,1.239,1.239,0,0,0,.274-.837q.116-1.542.225-3.081a.234.234,0,0,0-.043-.193.231.231,0,0,0-.185-.034,33.733,33.733,0,0,0-4.34.448C1080.515,451.4,1080.966,452.531,1081.025,453.663Z"/><path class="cls-40" d="M1086.005,456.747a.55.55,0,0,1,.295.046.5.5,0,0,1,.158.2,3.341,3.341,0,0,1,.226,1.534q-.007,1.3-.022,2.592a24.6,24.6,0,0,1-4.247-.239c-1.2-.22-1.3-1.142-1.1-2.263C1081.712,456.39,1084.284,456.811,1086.005,456.747Z"/><path class="cls-40" d="M1085.718,463.075a12.136,12.136,0,0,1,.137,3.765.316.316,0,0,1-.069.187.31.31,0,0,1-.191.059q-1.637.126-3.277.256c-1.279.1-1.29-2.689-.717-3.522a1.94,1.94,0,0,1,1.376-.735A10.266,10.266,0,0,1,1085.718,463.075Z"/><path class="cls-40" d="M1085.906,469.705a10.177,10.177,0,0,1,.005,4.384.214.214,0,0,1-.273.2l-2.987-.012a1.085,1.085,0,0,1-1.331-1.265q-.056-1.023-.115-2.049c-.045-.855-.227-1,.582-1.2A15.81,15.81,0,0,1,1085.906,469.705Z"/><path class="cls-40" d="M1081.025,478.841c.021.4.09.879.451,1.055a1.121,1.121,0,0,0,.37.083q1.555.173,3.128.205a.93.93,0,0,0,1.166-1.06q.116-1.541.225-3.08a.232.232,0,0,0-.043-.193.223.223,0,0,0-.185-.035,33.209,33.209,0,0,0-4.34.449C1080.515,476.577,1080.966,477.709,1081.025,478.841Z"/><path class="cls-40" d="M1086.005,481.927a.531.531,0,0,1,.295.045.5.5,0,0,1,.158.2,3.352,3.352,0,0,1,.226,1.537q-.007,1.293-.022,2.589a24.6,24.6,0,0,1-4.247-.238c-1.2-.22-1.3-1.143-1.1-2.265C1081.712,481.568,1084.284,481.989,1086.005,481.927Z"/><path class="cls-40" d="M1085.718,488.253a12.137,12.137,0,0,1,.137,3.765.311.311,0,0,1-.069.186.3.3,0,0,1-.191.06l-3.277.256c-1.279.1-1.29-2.689-.717-3.521a1.941,1.941,0,0,1,1.376-.736A10.266,10.266,0,0,1,1085.718,488.253Z"/><path class="cls-40" d="M1085.906,494.884a10.168,10.168,0,0,1,.005,4.382.215.215,0,0,1-.273.206l-2.987-.012a1.084,1.084,0,0,1-1.331-1.264q-.056-1.026-.115-2.049c-.045-.855-.227-1,.582-1.2A15.767,15.767,0,0,1,1085.906,494.884Z"/><path class="cls-41" d="M1250.3,405.936c.082.645.351,1.41,1.769,1.692a10.189,10.189,0,0,0,1.44.135q6.1.277,12.242.328a10.506,10.506,0,0,0,3.495-.356,1.529,1.529,0,0,0,1.078-1.344q.443-2.474.887-4.945a.241.241,0,0,0-.172-.311,2.1,2.1,0,0,0-.729-.052c-5.5.232-11.623.187-16.982.719C1248.3,402.3,1250.061,404.119,1250.3,405.936Z"/><path class="cls-41" d="M1269.783,410.887a4.813,4.813,0,0,1,1.158.075,1.468,1.468,0,0,1,.624.32,2.7,2.7,0,0,1,.888,2.463q-.041,2.077-.086,4.156c-5.431-.013-11.279.024-16.639-.381-4.679-.355-5.066-1.835-4.285-3.635C1252.985,410.312,1263.043,410.988,1269.783,410.887Z"/><path class="cls-41" d="M1268.667,421.041a8.3,8.3,0,0,1,.531,6.042.4.4,0,0,1-.268.3,2.541,2.541,0,0,1-.74.1l-12.833.41c-5.009.161-5.051-4.315-2.807-5.651a13.152,13.152,0,0,1,5.394-1.181C1258.963,420.984,1268.471,420.72,1268.667,421.041Z"/><path class="cls-41" d="M1269.4,431.681a7.073,7.073,0,0,1,.016,7.034.452.452,0,0,1-.267.247,2.526,2.526,0,0,1-.81.084l-11.69-.022a12.292,12.292,0,0,1-3.967-.423,1.728,1.728,0,0,1-1.238-1.605c-.148-1.1-.292-2.191-.443-3.288-.189-1.373-.9-1.611,2.27-1.919C1258.2,431.308,1264.387,431.583,1269.4,431.681Z"/><path class="cls-41" d="M1250.3,446.342c.082.644.351,1.41,1.769,1.692a10.044,10.044,0,0,0,1.44.135q6.1.276,12.242.328a10.5,10.5,0,0,0,3.495-.357,1.525,1.525,0,0,0,1.078-1.344q.443-2.472.887-4.944a.239.239,0,0,0-.172-.31,2.118,2.118,0,0,0-.729-.053c-5.5.232-11.623.187-16.982.72C1248.3,442.708,1250.061,444.526,1250.3,446.342Z"/><path class="cls-41" d="M1281.11,405.936c.082.645.351,1.41,1.765,1.692a10.3,10.3,0,0,0,1.44.135q6.1.277,12.245.328a10.522,10.522,0,0,0,3.5-.356,1.542,1.542,0,0,0,1.076-1.344c.294-1.649.592-3.3.884-4.945a.24.24,0,0,0-.171-.311,2.071,2.071,0,0,0-.727-.052c-5.492.232-11.624.187-16.983.719C1279.109,402.3,1280.876,404.119,1281.11,405.936Z"/><path class="cls-41" d="M1300.6,410.887a4.8,4.8,0,0,1,1.155.075,1.476,1.476,0,0,1,.623.32,2.691,2.691,0,0,1,.89,2.463q-.043,2.077-.087,4.156c-5.434-.013-11.282.024-16.636-.381-4.682-.355-5.067-1.835-4.291-3.635C1283.8,410.312,1293.858,410.988,1300.6,410.887Z"/><path class="cls-41" d="M1299.479,421.041a8.286,8.286,0,0,1,.534,6.042.406.406,0,0,1-.269.3,2.544,2.544,0,0,1-.737.1l-12.839.41c-5.007.161-5.045-4.315-2.8-5.651a13.128,13.128,0,0,1,5.39-1.181C1289.777,420.984,1299.283,420.72,1299.479,421.041Z"/><path class="cls-41" d="M1300.216,431.681a7.076,7.076,0,0,1,.022,7.034.471.471,0,0,1-.27.247,2.513,2.513,0,0,1-.808.084l-11.692-.022a12.3,12.3,0,0,1-3.969-.423,1.728,1.728,0,0,1-1.236-1.605q-.222-1.644-.445-3.288c-.189-1.373-.9-1.611,2.268-1.919C1289.01,431.308,1295.2,431.583,1300.216,431.681Z"/><path class="cls-41" d="M1281.11,446.342c.082.644.351,1.41,1.765,1.692a10.154,10.154,0,0,0,1.44.135q6.1.276,12.245.328a10.52,10.52,0,0,0,3.5-.357,1.538,1.538,0,0,0,1.076-1.344c.294-1.648.592-3.3.884-4.944a.238.238,0,0,0-.171-.31,2.094,2.094,0,0,0-.727-.053c-5.492.232-11.624.187-16.983.72C1279.109,442.708,1280.876,444.526,1281.11,446.342Z"/><path class="cls-35" d="M1030.9,565.869c-.023-1.142.053-2.486,1.005-3.122a3.468,3.468,0,0,1,1.906-.394l68.139-.849a5.8,5.8,0,0,1,3.637.765c1.3.983,1.519,2.817,1.614,4.443a210.468,210.468,0,0,1-.084,25.724c-15.079,1.241-30.211-1.2-45.338-1.217-5.4-.007-10.794.3-16.168.76-3.3.28-9.678,2.352-12.483-.08-2.476-2.143-1.852-7.082-1.911-9.928Q1031.053,573.922,1030.9,565.869Z"/><path class="cls-34" d="M1102.334,479.656c30.549-1.905,25.661-3.771,56.207-5.677,2.558-.16,5.61-.087,7.022,2.051a7.373,7.373,0,0,1,.855,3.854q1.968,56.29-1.556,112.6c-28.67.52-21.909,1-50.583,1.521-4.987.092-10.009,1.527-12.583-3.228-2.432-4.5-.618-15.577-.727-20.708q-.459-21.639-.167-43.284C1100.854,522.844,1101.647,479.656,1102.334,479.656Z"/><path class="cls-37" d="M1105.231,591.263a4.12,4.12,0,0,0,2.326-.725,4.075,4.075,0,0,0,1.071-2.541c1.735-10.63,1.966-21.443,2.2-32.212q.3-14.3.606-28.6c.042-2.1-.005-4.453-1.472-5.961-1.481-1.524-3.855-1.62-5.98-1.619l-40.427.047q.777,16.573,1.554,33.148a176.929,176.929,0,0,1,.137,21.143c-.311,4.267-4.352,14.227-1.721,17.846,2.783,3.833,14.654,1.33,18.854,1.136Q1093.822,592.4,1105.231,591.263Z"/><path class="cls-34" d="M1016.283,590.854a214.25,214.25,0,0,0,37.37-.339c1.2-40.735,2.414-44.472,3.621-85.207-10.984-.844-22.073-1.381-33.091-1.156-3.817.077-7.093-.275-8.4,3.782-1.346,4.167.335,11.362.461,15.768.649,22.334.678,7.686.489,30.027C1016.7,556.839,1015.969,590.829,1016.283,590.854Z"/><path class="cls-38" d="M1136.181,496.847c.058,1.051.239,2.3,1.184,2.759a2.878,2.878,0,0,0,.962.22c2.719.3,5.455.48,8.19.536a3.208,3.208,0,0,0,2.336-.583,3.274,3.274,0,0,0,.721-2.19q.3-4.034.592-8.067a.459.459,0,0,0-.6-.593c-3.675.379-7.775.306-11.358,1.175C1134.847,490.92,1136.027,493.885,1136.181,496.847Z"/><path class="cls-38" d="M1149.215,504.924a1.386,1.386,0,0,1,.775.12,1.2,1.2,0,0,1,.417.522,8.772,8.772,0,0,1,.594,4.02q-.024,3.39-.06,6.78a64.613,64.613,0,0,1-11.125-.621c-3.127-.58-3.385-3-2.865-5.931C1137.981,503.987,1144.71,505.09,1149.215,504.924Z"/><path class="cls-38" d="M1148.467,521.488a31.682,31.682,0,0,1,.355,9.856.581.581,0,0,1-.669.643q-4.3.337-8.584.671c-3.351.262-3.377-7.039-1.88-9.216a5.087,5.087,0,0,1,3.606-1.928C1141.98,521.394,1148.338,520.966,1148.467,521.488Z"/><path class="cls-38" d="M1148.96,538.845a26.627,26.627,0,0,1,.016,11.475.573.573,0,0,1-.722.539q-3.913-.015-7.819-.034a2.834,2.834,0,0,1-3.481-3.307q-.149-2.683-.295-5.365c-.128-2.24-.6-2.629,1.516-3.132C1141.465,538.239,1145.605,538.687,1148.96,538.845Z"/><path class="cls-39" d="M1080.889,531.155c3.245-.234,6.454-1.073,9.71-.963a1.723,1.723,0,0,1,1.52.628,1.776,1.776,0,0,1,.153.881c0,1.088,0,2.176-.008,3.264a1.218,1.218,0,0,1-.138.69,1.25,1.25,0,0,1-1.132.348q-4.537-.177-9.069-.35c-2.045-.08-7.121.676-8.835-.36-1.836-1.112-.5-2.763.895-3.509C1076.024,530.692,1078.674,531.313,1080.889,531.155Z"/><path class="cls-39" d="M1090.474,538.923a.779.779,0,0,1,.517.12.759.759,0,0,1,.2.546,22.274,22.274,0,0,1-.143,4.814.791.791,0,0,1-.224.531.8.8,0,0,1-.567.1,139.385,139.385,0,0,0-17.062-.394c-.36.015-.791-.006-.981-.314a1.006,1.006,0,0,1-.107-.541c-.008-1.2-.47-3.176.606-4,1.046-.8,4.58-.406,5.877-.479C1082.541,539.081,1086.512,538.923,1090.474,538.923Z"/><path class="cls-39" d="M1090.535,547.14a.575.575,0,0,1,.335.114.557.557,0,0,1,.124.379,19.625,19.625,0,0,1-.2,4.516l-16.077.575a1.408,1.408,0,0,1-.754-.114,1.347,1.347,0,0,1-.508-.794c-1.516-4.743,1.638-4.448,5.6-4.806A56.354,56.354,0,0,1,1090.535,547.14Z"/><path class="cls-40" d="M1020.4,513.524c.016.339.075.743.38.89a.955.955,0,0,0,.31.072q1.314.144,2.643.172a.786.786,0,0,0,.984-.895q.1-1.3.192-2.6a.147.147,0,0,0-.192-.191,27.891,27.891,0,0,0-3.664.38C1019.972,511.611,1020.35,512.567,1020.4,513.524Z"/><path class="cls-40" d="M1024.608,516.131a.319.319,0,0,1,.385.207,2.825,2.825,0,0,1,.191,1.3q-.007,1.094-.018,2.188a21.008,21.008,0,0,1-3.591-.2c-1.012-.186-1.094-.966-.927-1.914C1020.983,515.828,1023.156,516.184,1024.608,516.131Z"/><path class="cls-40" d="M1024.365,521.477a10.2,10.2,0,0,1,.118,3.182.191.191,0,0,1-.218.206l-2.77.217c-1.081.082-1.091-2.273-.609-2.976a1.651,1.651,0,0,1,1.164-.621A8.624,8.624,0,0,1,1024.365,521.477Z"/><path class="cls-40" d="M1024.525,527.079a8.566,8.566,0,0,1,0,3.7.245.245,0,0,1-.058.13.254.254,0,0,1-.174.045c-.84,0-1.685-.009-2.524-.011a1.233,1.233,0,0,1-.855-.223,1.217,1.217,0,0,1-.265-.846c-.035-.579-.068-1.154-.1-1.73-.038-.724-.193-.848.493-1.013A13.355,13.355,0,0,1,1024.525,527.079Z"/><path class="cls-40" d="M1020.4,534.8c.016.339.075.742.38.891a.927.927,0,0,0,.31.069q1.314.145,2.643.175a1.024,1.024,0,0,0,.753-.189,1.036,1.036,0,0,0,.231-.708q.1-1.3.192-2.6a.2.2,0,0,0-.037-.163.19.19,0,0,0-.155-.027,28.235,28.235,0,0,0-3.664.378C1019.972,532.886,1020.35,533.841,1020.4,534.8Z"/><path class="cls-40" d="M1024.608,537.4a.467.467,0,0,1,.252.04.414.414,0,0,1,.133.168,2.823,2.823,0,0,1,.191,1.3c0,.731-.01,1.459-.018,2.189a20.609,20.609,0,0,1-3.591-.2c-1.012-.185-1.094-.964-.927-1.913C1020.983,537.1,1023.156,537.458,1024.608,537.4Z"/><path class="cls-40" d="M1024.365,542.749a10.206,10.206,0,0,1,.118,3.182.191.191,0,0,1-.218.208q-1.386.108-2.77.218c-1.081.084-1.091-2.272-.609-2.976a1.661,1.661,0,0,1,1.164-.623A8.71,8.71,0,0,1,1024.365,542.749Z"/><path class="cls-40" d="M1024.525,548.352a8.57,8.57,0,0,1,0,3.7.245.245,0,0,1-.058.131.249.249,0,0,1-.174.044l-2.524-.013a.912.912,0,0,1-1.12-1.066q-.053-.865-.1-1.732c-.038-.723-.193-.847.493-1.011A13.4,13.4,0,0,1,1024.525,548.352Z"/><path class="cls-40" d="M1027.053,513.524c.017.339.074.743.383.89a.949.949,0,0,0,.308.072q1.314.144,2.643.172a1.035,1.035,0,0,0,.756-.189,1.069,1.069,0,0,0,.232-.706c.063-.868.123-1.735.191-2.6a.2.2,0,0,0-.038-.163.2.2,0,0,0-.156-.028,27.96,27.96,0,0,0-3.665.38C1026.621,511.611,1027,512.567,1027.053,513.524Z"/><path class="cls-40" d="M1031.26,516.131a.43.43,0,0,1,.249.038.4.4,0,0,1,.134.169,2.812,2.812,0,0,1,.19,1.3c-.005.729-.01,1.459-.019,2.188a21.03,21.03,0,0,1-3.59-.2c-1.008-.186-1.091-.966-.926-1.914C1027.633,515.828,1029.805,516.184,1031.26,516.131Z"/><path class="cls-40" d="M1031.016,521.477a10.262,10.262,0,0,1,.117,3.182.236.236,0,0,1-.059.156.247.247,0,0,1-.158.05l-2.771.217c-1.081.082-1.092-2.273-.606-2.976a1.644,1.644,0,0,1,1.164-.621A8.61,8.61,0,0,1,1031.016,521.477Z"/><path class="cls-40" d="M1031.176,527.079a8.581,8.581,0,0,1,.005,3.7.226.226,0,0,1-.059.13.256.256,0,0,1-.176.045c-.837,0-1.68-.009-2.522-.011a1.236,1.236,0,0,1-.855-.223,1.222,1.222,0,0,1-.266-.846c-.031-.579-.064-1.154-.1-1.73-.04-.724-.194-.848.491-1.013A13.371,13.371,0,0,1,1031.176,527.079Z"/><path class="cls-40" d="M1027.053,534.8c.017.339.074.742.383.891a.921.921,0,0,0,.308.069q1.314.145,2.643.175a1.035,1.035,0,0,0,.756-.189,1.073,1.073,0,0,0,.232-.708c.063-.866.123-1.734.191-2.6a.2.2,0,0,0-.038-.163.2.2,0,0,0-.156-.027,28.3,28.3,0,0,0-3.665.378C1026.621,532.886,1027,533.841,1027.053,534.8Z"/><path class="cls-40" d="M1031.26,537.4a.457.457,0,0,1,.249.04.378.378,0,0,1,.134.168,2.809,2.809,0,0,1,.19,1.3c-.005.731-.01,1.459-.019,2.189a20.631,20.631,0,0,1-3.59-.2c-1.008-.185-1.091-.964-.926-1.913C1027.633,537.1,1029.805,537.458,1031.26,537.4Z"/><path class="cls-40" d="M1031.016,542.749a10.267,10.267,0,0,1,.117,3.182.237.237,0,0,1-.059.158.247.247,0,0,1-.158.05q-1.388.108-2.771.218c-1.081.084-1.092-2.272-.606-2.976a1.653,1.653,0,0,1,1.164-.623A8.7,8.7,0,0,1,1031.016,542.749Z"/><path class="cls-40" d="M1031.176,548.352a8.586,8.586,0,0,1,.005,3.7.226.226,0,0,1-.059.131.25.25,0,0,1-.176.044l-2.522-.013a.913.913,0,0,1-1.121-1.066q-.047-.865-.1-1.732c-.04-.723-.194-.847.491-1.011A13.415,13.415,0,0,1,1031.176,548.352Z"/><path class="cls-7" d="M1147.544,443.889c-33.517,35.394-66.9,71.213-96.2,110.24-8.3,11.047-16.282,22.339-23.853,33.9-.4.615.584,1.188.988.575,26.826-40.861,59.221-77.693,92.412-113.445,9.292-10.012,18.69-19.927,28.025-29.9C1149.768,444.35,1148.405,442.981,1147.544,443.889Z"/><path class="cls-7" d="M1104.82,509.338c-11.051,13.05-21.551,26.6-32.306,39.9s-21.528,26.626-32.156,40.052c-.246.314.183.767.451.451,11.037-13.049,21.939-26.207,32.842-39.369s22.089-26.124,32.682-39.523C1107.17,509.791,1105.723,508.272,1104.82,509.338Z"/><path class="cls-7" d="M1130.444,486.041q-6.34,6.4-12.68,12.812a.739.739,0,0,0,1.044,1.044q6.4-6.348,12.8-12.691A.825.825,0,0,0,1130.444,486.041Z"/><path class="cls-7" d="M1204.729,290.168c-9.953,15.172-21.662,28.45-34.321,41.413-12.233,12.525-24.688,24.89-35.175,38.961-.542.726.672,1.417,1.209.708,10.946-14.422,24.022-26.981,36.728-39.814,12.146-12.267,24.776-25.1,33.508-40.129A1.129,1.129,0,0,0,1204.729,290.168Z"/><path class="cls-7" d="M1229.4,288.5c-16.579,19.677-32.221,40.225-48.282,60.327-.276.343.2.837.488.491,16.444-19.728,33.4-39.135,49.327-59.284C1231.78,288.959,1230.308,287.42,1229.4,288.5Z"/><path class="cls-7" d="M840.973,456.869A1280.3,1280.3,0,0,0,751.6,552.532c-.358.421.248,1.037.613.613q42.642-49.7,90.087-94.946C843.177,457.362,841.844,456.029,840.973,456.869Z"/><path class="cls-7" d="M811.9,514.167c-15.86,18.762-32.293,37.023-48.961,55.065-.411.443.25,1.108.665.664,16.667-18.017,33.121-36.23,49.687-54.339C814.156,514.618,812.716,513.207,811.9,514.167Z"/><path class="cls-7" d="M802.213,557.505l-6.908,8.308c-.648.775.446,1.9,1.124,1.123q3.533-4.071,7.071-8.142C804.271,557.907,802.959,556.609,802.213,557.505Z"/><path class="cls-7" d="M981.437,310.726q-15.274,20.385-30.572,40.756c-.415.551.539,1.295.964.744q15.606-20.133,31.208-40.265A1.015,1.015,0,1,0,981.437,310.726Z"/><path class="cls-7" d="M996.221,320.568a561.911,561.911,0,0,0-50.855,55.688c-.426.533.324,1.294.756.756a467.557,467.557,0,0,1,51.66-54.881C998.84,321.179,997.251,319.58,996.221,320.568Z"/><path class="cls-7" d="M994.248,343.257c-7.282,7.625-13.806,16.125-20.164,24.522-.5.661.646,1.556,1.158.894,6.452-8.339,13.511-16.049,20.469-23.954C996.582,343.728,995.175,342.286,994.248,343.257Z"/><path class="cls-42" d="M1334.48,281.753c-98.855-2.024-355.059.456-453.773-.411-53.14-.467-106.291.862-159.437,1.293,1.193,3.063-4.125,6.128-2.933,9.193,152.639-.13,464.6-.038,617.047-1.146C1337.307,287.944,1336.881,284.864,1334.48,281.753Z"/><path class="cls-42" d="M1334.48,589.836c-98.855-2.024-355.059.456-453.773-.411-53.14-.467-106.291.862-159.437,1.294-4.972,1.561-4.125,6.127-2.933,9.191,152.639-.131,464.6-.038,617.047-1.144C1337.307,596.027,1336.881,592.944,1334.48,589.836Z"/><path class="cls-42" d="M1019.382,596.122a5.8,5.8,0,0,0,6.418-.428,65.486,65.486,0,0,0,.616-9.762c-.829-74.872,2.417-221.292.129-295.873-1.4-5.782-4.618-3.522-5.947,2.415s-1.331,13.711-1.289,20.939q.439,69.909.266,139.834C1019.548,475.819,1018.618,573.705,1019.382,596.122Z"/><path class="cls-42" d="M1322.238,596.122a5.793,5.793,0,0,0,6.415-.428,64.562,64.562,0,0,0,.616-9.762c-.828-74.872,2.417-221.292.129-295.873-1.4-5.782-4.611-3.522-5.944,2.415s-1.334,13.711-1.285,20.939q.429,69.909.26,139.834C1322.4,475.819,1321.474,573.705,1322.238,596.122Z"/><path class="cls-42" d="M725.128,596.122a5.794,5.794,0,0,0,6.416-.428,65.219,65.219,0,0,0,.616-9.762c-.829-74.872,2.418-221.292.127-295.873-1.4-5.782-4.612-3.522-5.945,2.415s-1.33,13.711-1.284,20.939q.433,69.909.263,139.834C725.292,475.819,724.363,573.705,725.128,596.122Z"/></g><g id="foliage"><path class="cls-43" d="M253.434,928.339c0,13.219,24.536,23.934,54.8,23.934s54.806-10.715,54.806-23.934S338.506,904.4,308.238,904.4,253.434,915.12,253.434,928.339Z"/><path class="cls-43" d="M1656.176,938.476c0,13.22,36.481,23.934,81.483,23.934s81.485-10.714,81.485-23.934-36.482-23.935-81.485-23.935S1656.176,925.257,1656.176,938.476Z"/><path class="cls-7" d="M343.728,857.153c0,6.124-16.363,11.088-36.551,11.088s-36.552-4.964-36.552-11.088,16.364-11.088,36.552-11.088S343.728,851.028,343.728,857.153Z"/><path class="cls-7" d="M270.625,857.153l18.314,66.807a39.679,39.679,0,0,0,41.455-2.229l13.188-63.613-30.425.91-34.509-.3Z"/><path class="cls-44" d="M334.7,858.118c0,3.538-12.548,6.406-28.027,6.406s-28.027-2.868-28.027-6.406,12.547-6.408,28.027-6.408S334.7,854.58,334.7,858.118Z"/><path class="cls-45" d="M337.634,704.443s12.147-22.955,18.61-47.137,35.477-35.388,69.208-50.075,41.754-27.863,45.764-38.04c0,0-.745,35.959-11.443,53.048s-48.886,28.527-48.886,28.527l-23.029,8.619L368.69,668.9l-10.7,16.2Z"/><path class="cls-46" d="M308.27,861.464c0-3.009-4.067-106.985,25.8-155.571s132.69-97.475,137.148-136.7c0,0,7.428,68.053-20.8,98.959s-46.953,27.64-46.953,27.64l-6.837-28.53.892,28.233-10.7,1.784-2.97-26.453-4.457,8.62-.6,17.236s-32.672-1.555-43.387,13.671-19.04,43.385-23.181,90.638-1.634,61.363-1.634,61.363Z"/><path class="cls-45" d="M300.837,634.422c1.487-4.754,6.241-52,1.189-69.239s2.267-38.336,2.267-38.336,11.7,7.428,10.214,3.862-7.063-7.428-7.063-7.428,1.416-4.754,11.223-15.157,8.023-17.236,8.023-17.236l4.723,3.269L327.88,489.7s4.755-2.375,6.538-14.561c1.729-11.821,19.984-15.255,24.582-21.957a6.558,6.558,0,0,0,.381-.627c3.843-7.13,4.754,30.311,4.754,30.311l-24.367,41.008S326.4,552.4,326.4,551.509s-13.077,58.842-13.077,58.842-8.026,28.529-5.647,22.882S300.837,634.422,300.837,634.422Z"/><path class="cls-46" d="M309.6,862.352S285.087,746.045,297.569,717.5s44.277-75.943,44.873-95.559l-17.533-17.829,17.533,9.21,10.4-21.693-19.019-14.263,21.694,12.777v-5.349l-22.884-25.557,28.233,19.615,4.16-13.077-21.4-16.642,21.4,8.62,1.783-8.62-25.26-12.183,28.826,8.321s5.646-33.88,2.081-59.436-12.185-41.008-9.213-50.518c0,0-26.744,70.429-36.848,98.958S295.49,624.318,291.33,648.834s-1.188,96.432,0,113.967,15.749,83.505,8.617,99.551Z"/><path class="cls-45" d="M287.057,767.69a145.135,145.135,0,0,1-10.434-26.426C273,727.709,256.736,721.427,237.829,713.2s-23.407-15.618-25.654-21.324c0,0,.417,20.156,6.414,29.737s27.4,15.992,27.4,15.992l12.909,4.831,10.745,5.331,6,9.078Z"/><path class="cls-46" d="M303.516,855.708c0-1.687,2.282-59.972-14.461-87.207s-74.383-54.64-76.88-76.63c0,0-4.164,38.15,11.66,55.474s26.321,15.491,26.321,15.491l3.833-15.988-.5,15.823,6,1,1.666-14.826,2.5,4.83.334,9.661s18.314-.87,24.322,7.664,10.674,24.324,12.993,50.809.918,34.4.918,34.4Z"/><path class="cls-45" d="M307.42,730.347c-.833-2.666-3.5-29.153-.667-38.816s-1.27-21.489-1.27-21.489-6.558,4.165-5.726,2.165,3.96-4.163,3.96-4.163-.795-2.665-6.291-8.5-4.5-9.664-4.5-9.664l-2.648,1.834,1.983-2.5s-2.666-1.33-3.667-8.161c-.97-6.627-11.2-8.551-13.78-12.308-.078-.116-.149-.233-.214-.353-2.153-4-2.663,16.991-2.663,16.991l13.66,22.99s7.5,15.992,7.5,15.493,7.33,32.983,7.33,32.983,4.5,15.993,3.165,12.828S307.42,730.347,307.42,730.347Z"/><path class="cls-46" d="M302.505,858.118s13.744-65.2,6.747-81.2-24.821-42.571-25.154-53.565l9.828-10-9.828,5.163-5.831-12.161,10.662-8-12.161,7.164v-3L289.6,688.2l-15.827,11-2.333-7.332,12-9.33-12,4.834-1-4.834,14.161-6.829-16.161,4.665s-3.166-18.991-1.166-33.315,6.833-22.989,5.164-28.321c0,0,14.992,39.481,20.656,55.473s17.326,50.475,19.658,64.222.666,54.05,0,63.88-8.829,46.811-4.83,55.809Z"/><path class="cls-47" d="M1820.56,648.235a24.974,24.974,0,0,1-14.464-.329,9.412,9.412,0,0,1-3.033,1.393h0c-7.394,1.913-17.087-5.072-18.926-11.683-.891-4.48-.27-10.369.33-16.066.531-5.036,1.031-9.789.54-13.338-1.594-8.911-2.706-16.477-3.782-23.793s-2.179-14.859-3.776-23.78c-.253-1.82-.538-3.541-.819-5.227-1.151-6.961-2.237-13.535-.1-21a254.323,254.323,0,0,1,9.276-26.542c2.78-6.406,6.421-11.641,9.947-16.7,4.959-7.129,9.646-13.859,12.11-23.567,4.2-18.431,2.049-36.395-.958-56.282-.364-2.164-.769-4.436-1.192-6.788-2.858-15.958-6.416-35.816-.186-50.676,2.636-5.853,5.974-9.671,9.169-10.5,2.112-.546,6.04-.192,8.612,8.328a75.627,75.627,0,0,1,2,10.227c.689,4.614,1.4,9.381,3.231,13.867,5.354,13.374,14.021,24.644,22.4,35.546,13.242,17.227,26.934,35.037,27.628,61.371.475,19.561-7.986,35.334-16.166,50.592-7.654,14.275-15.571,29.042-16.179,46.931-.183,6.508.7,13.187,1.557,19.646,1.385,10.481,2.821,21.319-.216,31.9C1844.076,633.964,1832.716,645.091,1820.56,648.235Zm-14.745-2.465.407.145a23.379,23.379,0,0,0,13.947.434c11.6-3,22.426-13.588,25.739-25.166,2.914-10.158,1.57-20.295.151-31.031-.865-6.542-1.761-13.305-1.572-20,.625-18.391,8.657-33.37,16.425-47.86,8.423-15.709,16.378-30.545,15.92-49.537-.676-25.644-13.566-42.413-27.21-60.164-8.464-11-17.21-22.385-22.667-36.012-1.926-4.713-2.655-9.611-3.359-14.346a73.006,73.006,0,0,0-1.94-9.93c-1.119-3.7-3.167-7.935-6.573-7.052-2.652.685-5.642,4.218-8,9.453-5.979,14.255-2.485,33.771.324,49.45.422,2.354.834,4.636,1.2,6.822,2.934,19.388,5.21,38.331.927,57.133-2.564,10.1-7.572,17.291-12.419,24.251-3.463,4.983-7.053,10.135-9.746,16.342a251.9,251.9,0,0,0-9.189,26.3c-2,7-1,13.045.156,20.053.282,1.7.569,3.444.821,5.241,1.592,8.91,2.706,16.478,3.782,23.8,1.07,7.3,2.179,14.858,3.776,23.774.533,3.848.019,8.732-.523,13.9-.587,5.533-1.187,11.258-.381,15.341,1.582,5.672,10.383,11.97,16.859,10.3h0a7.661,7.661,0,0,0,2.792-1.37Z"/><path class="cls-47" d="M1811.514,362.949c-6.287,23.29,3.432,48.159,12.058,68.96a182.036,182.036,0,0,1,10.28,32c2.568,12.118,3.352,24.894,3.377,37.319a151.867,151.867,0,0,1-17.5,71.606c-6.432,12.12-12.268,24.323-14.786,38.272-2.425,13.441-.164,27.372.654,40.874a118.518,118.518,0,0,1-2.883,36.242,157.765,157.765,0,0,1-13.213,33.971,245.6,245.6,0,0,1-19.846,31.66c-3.307,4.566-6.744,9.022-10.231,13.426-3.947,4.987-8.369,9.911-11.65,15.484-.7,1.192-2.361-.019-1.657-1.21a107.341,107.341,0,0,1,9.217-12.471c4.334-5.37,8.57-10.834,12.665-16.445a248.812,248.812,0,0,0,20.562-33.05,151.645,151.645,0,0,0,13.68-38.223c2.768-13.274,1.625-27.043.6-40.486-1-13.093-1.374-25.408,1.908-38.165,3.3-12.8,9.723-23.831,15.507-35.316,11.923-23.674,16.047-50.542,14.694-77.449A161.976,161.976,0,0,0,1829.6,454.9c-3.107-11.261-7.86-21.661-12.194-32.357-7.278-17.967-13.046-40.757-7.778-60.274.369-1.367,2.252-.69,1.885.678Z"/><path class="cls-46" d="M1751.372,633.749c24.284-1.355,43.036-28.587,41.847-49.924-1.232-22.081-17.668-38.878-24.7-59.15-15.012-44.187,16.579-86.543-1.332-129.832-20.447-49.049-74.611-54.15-108.217-87.706-7.813-7.683-11.331-17.821-17.664-25.585-11.085-13.407-18.643-3.392-20.07,10.71-1.675,22.975,15.908,47.091,27.274,65.648,12.228,20.725,23.716,41.488,26.54,65.685,1.969,22.034-8.986,37.412-10.778,58.174a293.339,293.339,0,0,0-.24,35.443c.655,11.772,6.993,19.539,12.717,29.553,12.145,19.252,18.976,32.525,31.12,51.775,4.906,8.587,6.249,26.042,11.888,34.583,5.564,7.071,24.795,10.6,31.616.626"/><path class="cls-47" d="M1631.894,299.79c2.2,30.31,25.968,54.473,46.5,74.437a211.011,211.011,0,0,1,27.686,32.2c8.755,12.858,15.484,27.375,21.058,41.852a173.808,173.808,0,0,1,9.155,92.264c-2.971,17.353-5.136,34.5-2.191,52.022,2.838,16.89,12,32.014,19.1,47.361,6.5,14.054,10.938,28.269,12.42,43.712,1.48,15.4.32,30.989-2.063,46.231-2.494,15.92-6.764,31.527-11.741,46.83-2.272,6.976-4.764,13.891-7.346,20.76-2.922,7.794-6.485,15.742-8.277,23.874a1.383,1.383,0,0,1-2.7-.581c1.436-6.515,4.058-12.935,6.454-19.142,3.252-8.43,6.333-16.919,9.169-25.5a307.538,307.538,0,0,0,12.052-48.817,176.939,176.939,0,0,0,.775-51.408c-2.319-16.877-9.951-32.366-17.29-47.536-7.147-14.77-13.139-28.959-14.55-45.481-1.412-16.577,2.041-32.644,4.454-48.926,4.979-33.566-1.639-66.969-15.416-97.686a182.592,182.592,0,0,0-22.623-38.215c-9.079-11.592-19.914-21.351-30.336-31.667-17.513-17.328-35.2-41.041-37.046-66.432a1.382,1.382,0,0,1,2.758-.154Z"/><path class="cls-48" d="M1692.548,730.6c21.4-1.564,37.51-25.878,36.135-44.679-1.425-19.456-16.178-34.017-22.7-51.783-13.921-38.746,13.289-76.59-3.172-114.495-18.791-42.945-66.642-46.607-96.8-75.685-7.01-6.659-10.268-15.543-15.979-22.3-9.975-11.647-16.492-2.7-17.536,9.766-1.117,20.283,14.757,41.283,25.073,57.479,11.1,18.09,21.555,36.227,24.419,57.526,2.075,19.4-7.348,33.126-8.61,51.478a259.791,259.791,0,0,0,.329,31.261c.765,10.369,6.556,24.19,11.762,32.937,11.009,16.79,17.15,21.329,28.158,38.119,4.456,7.493,5.914,22.874,11.019,30.32,5.019,6.15,22.033,8.961,27.9.059"/><path class="cls-46" d="M1703.589,804.228a152.814,152.814,0,0,0-1.071-36.626c-2.305-14.852-9.275-28.4-15.984-41.659-6.532-12.916-12.035-25.337-13.528-39.9-1.507-14.588,1.293-28.819,3.17-43.208,3.874-29.691-2.48-59.039-15.105-85.932a161.548,161.548,0,0,0-20.535-33.353c-8.192-10.084-17.9-18.525-27.251-27.458-15.711-15.017-31.685-35.651-33.7-58.024a1.219,1.219,0,0,1,2.431-.178c2.406,26.7,23.743,47.645,42.165,64.934a186.242,186.242,0,0,1,24.908,27.978c7.923,11.206,14.082,23.9,19.224,36.593a153.352,153.352,0,0,1,9.5,81.237c-2.356,15.349-4,30.5-1.131,45.911,2.76,14.854,11.079,28.046,17.574,41.48,5.951,12.3,10.082,24.757,11.63,38.358a149.359,149.359,0,0,1,.114,30.077C1705.2,804.377,1704.389,804.3,1703.589,804.228Z"/><path class="cls-45" d="M1801.708,758.911c-15.193-1.111-26.635-18.375-25.657-31.725,1.01-13.814,11.487-24.153,16.117-36.767,9.883-27.511-9.436-54.384,2.253-81.3,13.343-30.493,47.317-33.094,68.732-53.741,4.974-4.728,7.289-11.036,11.344-15.835,7.082-8.268,11.709-1.913,12.452,6.933.792,14.4-10.479,29.314-17.8,40.812-7.883,12.845-15.307,25.724-17.34,40.848-1.472,13.778,5.22,23.521,6.114,36.55a184.565,184.565,0,0,1-.233,22.2c-.543,7.364-4.655,17.177-8.351,23.386-7.817,11.923-12.178,15.145-19.994,27.068-3.166,5.318-4.2,16.241-7.824,21.527-3.563,4.366-15.645,6.361-19.81.043"/><path class="cls-47" d="M1793.866,811.191a108.512,108.512,0,0,1,.762-26.006c1.637-10.544,6.586-20.166,11.35-29.58,4.638-9.17,8.545-17.99,9.6-28.331,1.069-10.358-.919-20.463-2.251-30.68-2.75-21.082,1.76-41.918,10.726-61.014a114.565,114.565,0,0,1,14.582-23.68c5.814-7.162,12.709-13.158,19.35-19.5,11.153-10.662,22.495-25.312,23.923-41.2a.865.865,0,0,0-1.724-.128c-1.71,18.96-16.859,33.833-29.939,46.107a132.306,132.306,0,0,0-17.687,19.865,128.736,128.736,0,0,0-13.65,25.979,108.919,108.919,0,0,0-6.743,57.685c1.674,10.9,2.841,21.656.8,32.6-1.961,10.547-7.866,19.913-12.478,29.453A83.4,83.4,0,0,0,1792.237,790a106.124,106.124,0,0,0-.08,21.355C1792.728,811.3,1793.3,811.24,1793.866,811.191Z"/><polygon class="cls-7" points="1644.869 747.219 1816.588 784.074 1806.396 946.382 1673.883 946.382 1644.869 747.219"/></g><g id="characters"><path d="M934.831,708.018v-6.38c0-2.482-1.436-4.493-3.207-4.493H884.39c-1.771,0-3.206,2.011-3.206,4.493v6.38Z"/><path d="M874.929,534.433v-6.38c0-2.483-1.436-4.5-3.207-4.5H824.489c-1.771,0-3.207,2.012-3.207,4.5v6.38Z"/><polygon points="906.407 700.259 905.942 700.002 929.215 617.903 879.396 528.998 870.855 528.998 870.855 528.297 879.639 528.297 879.715 528.435 929.784 617.786 929.732 617.973 906.407 700.259"/><path class="cls-7" d="M831.416,699.767c-1.1,4.389,1.577,7.951,5.965,7.951H913.89a10.877,10.877,0,0,0,9.936-7.951l15.9-63.592c1.1-4.389-1.572-7.948-5.96-7.948H857.251a10.867,10.867,0,0,0-9.934,7.948Z"/><path class="cls-7" d="M782.731,700.065a7.653,7.653,0,0,0,7.649,7.653h94a7.654,7.654,0,0,0,7.652-7.653h0a7.652,7.652,0,0,0-7.652-7.656H790.38a7.652,7.652,0,0,0-7.649,7.656Z"/><path class="cls-49" d="M878.057,667.833a8.67,8.67,0,1,0,8.669-8.667A8.668,8.668,0,0,0,878.057,667.833Z"/><path d="M1111.862,708.8H766.58a1.243,1.243,0,0,1,0-2.485h345.282a1.243,1.243,0,0,1,0,2.485Z"/><path d="M890.533,707.966V951.731a1.243,1.243,0,0,1-2.485,0V707.966a1.243,1.243,0,0,1,2.485,0Z"/><path d="M1003.143,707.966V951.731a1.243,1.243,0,0,1-2.485,0V707.966a1.243,1.243,0,0,1,2.485,0Z"/><rect x="618.717" y="800.21" width="106.417" height="7.881"/><path d="M640.637,806.5V951.57a1.242,1.242,0,0,1-2.483,0V806.5a1.242,1.242,0,0,1,2.483,0Z"/><path d="M662.334,806.5V951.57a1.242,1.242,0,0,1-2.483,0V806.5a1.242,1.242,0,0,1,2.483,0Z"/><path d="M682.536,806.5V951.57a1.245,1.245,0,0,1-2.488,0V806.5a1.245,1.245,0,0,1,2.488,0Z"/><path d="M703.733,804.514v146.56a1.243,1.243,0,0,1-2.485,0V804.514a1.243,1.243,0,0,1,2.485,0Z"/><rect x="1132.492" y="767.761" width="106.418" height="9.569"/><path d="M1154.413,775.4V951.57a1.243,1.243,0,0,1-2.484,0V775.4a1.243,1.243,0,0,1,2.484,0Z"/><path d="M1176.106,775.4V951.57a1.243,1.243,0,0,1-2.484,0V775.4a1.243,1.243,0,0,1,2.484,0Z"/><path d="M1196.31,775.4V951.57a1.244,1.244,0,0,1-2.487,0V775.4a1.244,1.244,0,0,1,2.487,0Z"/><path d="M1217.507,772.986V950.969a1.243,1.243,0,0,1-2.485,0V772.986a1.243,1.243,0,0,1,2.485,0Z"/><path d="M1146.739,535.707s-12.794,10.681,0,29.187,16.64,19,14.408,30.055-20.743,28.939,15.648,31.674,46.7-35.274,45.208-37.635-21.771-17.884-24.052-20-41.65-33.286-41.65-33.286Z"/><path class="cls-50" d="M1176.8,598.678a91.073,91.073,0,0,0-28.443,25.458l19.5,23.849,25.336-17.885s7.08-4.84,3.977-10.932S1176.8,598.678,1176.8,598.678Z"/><path class="cls-51" d="M1172.731,644.538l-22.458-22.97c.591-.762,1.189-1.506,1.79-2.223l23.016,23.537Z"/><path class="cls-52" d="M1196.9,587.562s-13.007-6.459-16.567-16.812,0-7.617,0-7.617l-5.63-10.927-9.85-4.225h-16.73l.912,28.731,5.8-1.489s3.811,6.705,8.53,7.619,6.542-.745,6.542-.745,6.709,9.766,5.546,26.579,17.473,5.793,17.8,4.3,2.9-9.362,3.061-11.26S1196.9,587.562,1196.9,587.562Z"/><path class="cls-52" d="M1138.581,832.593l21.032,44.054s-31.3,29.311-31.3,25.338,10.1-29.65,10.1-29.65l-21.862-24.341Z"/><path class="cls-52" d="M1170.127,810.569l18.878,24.918s-10.6,31.218-13.082,29.73-1.654-21.774-1.654-21.774l-19.127-14.825Z"/><path class="cls-53" d="M1142.225,761.878l29.975,45.876-19.873,20.2-36.267-29.975-23.681-23.351s8.614-15.9,10.6-16.392,37.262-3.312,37.262-3.312Z"/><path class="cls-53" d="M1220.435,753.833s-27.494,24.566-69.1,15.624-43.222.37-32.666,18.629,21.571,41.856,21.571,41.856l-32.127,18.052s-47.529-61.274-54.318-93.07,31.8-53.985,81.475-49.349,65.967,6.951,65.967,6.951l10.706,20.208Z"/><path class="cls-54" d="M1120.536,836.349l.855-.824c-.435-.453-43.57-45.478-43.021-85.054a14.833,14.833,0,0,1,5.812-11.525c26.768-22.226,136.337-3.609,137.439-3.417l.2-1.173c-4.528-.78-111.214-18.9-138.4,3.673a15.973,15.973,0,0,0-6.243,12.424C1076.625,790.524,1120.1,835.894,1120.536,836.349Z"/><path class="cls-50" d="M1191.2,584.271s49.889,15.811,59.161,64.5-8.612,91.746-28.65,106.152l-72.12-61.356s6.956-20.615,4.717-39.5-1.488-21.238,7.457-32.291,19.87-17.388,24.466-23.6A28.487,28.487,0,0,0,1191.2,584.271Z"/><polygon class="cls-55" points="1139.242 824.147 1104.14 842.746 1112.083 854.45 1143.878 833.589 1139.242 824.147"/><polygon class="cls-55" points="1175.429 809.74 1171.205 804.604 1148.184 825.969 1153.403 831.845 1175.429 809.74"/><path class="cls-52" d="M1130.218,690.588s-19.126-30.554,1.988-71.543,17.388-32.542,17.388-32.542,2.733-9.067,10.308-4.346,8.633,7.638,4.783,11.863-6.644,3.539-5.466,1.74,3.229-4.411,2.733-5.343-2.727,1.9-2.857,3.911.063,2.421-2.419,2.551-12.921,20.427-8.324,43.157,12.544,48.811-7.079,53.532S1130.218,690.588,1130.218,690.588Z"/><path d="M1165.587,559.537s2.133-5.191,6.3-3.832,1.918,8.2.619,10.431c0,0-1.052,8.322,9.257,13.041s16.471,1.366,21.155,15.277,25.3,34.652,39.579,28.877,34.9-28.877,8.944-47.134-32.915-8.322-39.746-27.326-8.2-34.4-28.193-36.019-20,16.271-31.92,10.184-17.759,24.469-1.988,30.181S1165.587,559.537,1165.587,559.537Z"/><path class="cls-51" d="M1152.344,683.09c.26-1.217.517-2.509.761-3.872,23.263,33.94,58.29,58.376,75.762,69.229-.663.73-1.333,1.422-2.01,2.088C1209.4,739.64,1175.634,715.921,1152.344,683.09Z"/><path class="cls-52" d="M1219.231,669.6s-10.264,47.9-46.367,54.36-88.1-29.97-96.879-30.964-14.2,7.364-12.5,3.349c0,0-4.471,3.021-5.63,1.779s1.159-3.267,1.159-3.267-7.207,6.209-7.991,3.436,9.605-15.86,23.307-17.1,50.18,4.31,66.326,4.057,16.67-24.526,21.688-36.543,27.247-3.572,27.247-3.572l9.814,4.468Z"/><path class="cls-50" d="M1214.055,623.019s14.655,23.475,5.838,54.281l-58.746-29.191s8.155-29.811,21.9-36.347S1209.544,615.236,1214.055,623.019Z"/><path class="cls-51" d="M1220.685,674.3l-58.609-29.247c.252-.787.554-1.7.906-2.715l58.33,29.105Q1221.03,672.856,1220.685,674.3Z"/><path class="cls-56" d="M1220.035,677.34c7.772-26.323-3.522-50.4-3.637-50.642l-.267.128c.115.24,11.358,24.222,3.617,50.428Z"/><path class="cls-56" d="M1187.25,718.819c21.9-11.68,30.237-42.4,30.318-42.711l-.285-.073c-.083.305-8.391,30.9-30.17,42.519Z"/><path d="M1180.071,818.525l23.257,13.6-34.225,46.8c-3.037-2.046-4.279-5.959-3.909-9.6s1.985-7,3.47-10.333,2.878-6.853,2.764-10.507a13.424,13.424,0,0,0-5.314-10.176"/><g class="cls-57"><path class="cls-7" d="M1174.148,855.561a15.57,15.57,0,0,1-8.343,5.932l-.288-1.016a15.125,15.125,0,0,0,9.337-8.114c1.8-3.624,1.609-8.278-.532-12.773-2.193-4.585-6.484-8.63-13.115-12.37l.518-.925c6.831,3.852,11.262,8.05,13.549,12.842s2.478,9.779.528,13.7A19.155,19.155,0,0,1,1174.148,855.561Z"/><rect class="cls-7" x="1148.344" y="852.389" width="69.454" height="1.058" transform="translate(-203.77 1304.358) rotate(-53.82)"/></g><path d="M1172.428,850.336c-.921,1.259-3.522,1.306-4.952,1.33-.14,0-.258,0-.359.008a15.666,15.666,0,0,1-5.637-.832h0c-1.323-.455-2.014-1.362-1.841-2.416a2.263,2.263,0,0,1,1.307-1.641,3.784,3.784,0,0,1,1.681-.246,29.2,29.2,0,0,1,5.834.753c.115.028.287.057.489.1,1.6.3,3.2.665,3.656,1.6a1.213,1.213,0,0,1-.044,1.135A1.578,1.578,0,0,1,1172.428,850.336Zm-10.6-.5a14.574,14.574,0,0,0,5.257.774l.371-.007c1.011-.016,3.692-.066,4.168-.98.064-.115.044-.158.032-.18-.26-.529-2.246-.9-2.9-1.017-.222-.044-.409-.08-.539-.108a28.185,28.185,0,0,0-5.62-.727,2.753,2.753,0,0,0-1.219.158,1.219,1.219,0,0,0-.7.841c-.118.728.763,1.113,1.146,1.246Z"/><path d="M1172.157,851.134a10.158,10.158,0,0,1-2.29,2.03c-.09.063-.172.12-.237.17a11.915,11.915,0,0,1-4.3,2.013h0a1.962,1.962,0,0,1-2.471-1.029,2.206,2.206,0,0,1,.156-1.9,3.075,3.075,0,0,1,1.072-1.006,22.4,22.4,0,0,1,4.375-2.159c.093-.032.218-.086.372-.153,1.232-.515,2.5-.982,3.288-.511a1.177,1.177,0,0,1,.564.949A2.343,2.343,0,0,1,1172.157,851.134Zm-8.165,1.732a.951.951,0,0,0-.063.1,1.162,1.162,0,0,0-.088.957c.226.551.877.487,1.247.4v0a10.868,10.868,0,0,0,3.916-1.835c.069-.052.151-.114.251-.182.674-.477,2.467-1.75,2.382-2.653-.012-.119-.044-.138-.057-.148-.394-.236-1.854.379-2.333.581-.177.074-.319.137-.424.172a21.014,21.014,0,0,0-4.165,2.055A2.393,2.393,0,0,0,1163.992,852.866Z"/><path d="M1150.123,856.315l18.056,19.995L1121.4,910.566c-2.276-2.867-2.277-6.973-.825-10.326s4.009-6.073,6.433-8.8,4.816-5.661,5.811-9.178a13.415,13.415,0,0,0-1.988-11.307"/><g class="cls-58"><path class="cls-7" d="M1133.276,889.826a15.562,15.562,0,0,1-9.746,3.13l.034-1.054a15.128,15.128,0,0,0,11.353-4.911c2.815-2.909,4.038-7.4,3.355-12.335-.7-5.035-3.569-10.187-8.76-15.757l.774-.725c5.346,5.736,8.3,11.079,9.031,16.338s-.6,10.07-3.639,13.214A19.053,19.053,0,0,1,1133.276,889.826Z"/><rect class="cls-7" x="1107.854" y="889.476" width="69.454" height="1.058" transform="translate(-305.091 847.055) rotate(-36.217)"/></g><path d="M1133.217,884.326c-1.259.921-3.752.179-5.122-.231l-.344-.1a15.627,15.627,0,0,1-5.121-2.5h0c-1.124-.833-1.509-1.907-1.025-2.859a2.263,2.263,0,0,1,1.742-1.169,3.771,3.771,0,0,1,1.676.275,29.126,29.126,0,0,1,5.334,2.482c.1.061.255.141.436.239,1.437.767,2.853,1.6,3,2.627a1.215,1.215,0,0,1-.385,1.068A1.6,1.6,0,0,1,1133.217,884.326Zm-9.954-3.679a14.568,14.568,0,0,0,4.776,2.328l.357.106c.968.291,3.538,1.054,4.268.326.1-.09.09-.137.086-.162-.089-.582-1.869-1.536-2.455-1.846-.2-.108-.366-.2-.481-.266a28.191,28.191,0,0,0-5.137-2.392,2.753,2.753,0,0,0-1.21-.218,1.222,1.222,0,0,0-.921.59c-.331.659.391,1.292.717,1.534Z"/><path d="M1132.718,885a10.132,10.132,0,0,1-2.8,1.243c-.105.033-.2.063-.278.091a11.936,11.936,0,0,1-4.7.62h0a1.966,1.966,0,0,1-2.045-1.728,2.214,2.214,0,0,1,.724-1.764,3.082,3.082,0,0,1,1.326-.634,22.371,22.371,0,0,1,4.823-.735c.1,0,.234-.016.4-.033,1.329-.119,2.679-.18,3.288.507a1.176,1.176,0,0,1,.25,1.074A2.341,2.341,0,0,1,1132.718,885Zm-8.307-.817a.851.851,0,0,0-.089.074,1.15,1.15,0,0,0-.372.885c.047.594.688.729,1.067.756v0a10.844,10.844,0,0,0,4.288-.566c.082-.027.179-.062.3-.1.786-.25,2.88-.922,3.073-1.809.024-.117,0-.144-.01-.157-.3-.344-1.881-.2-2.4-.152-.19.017-.345.033-.455.035a20.976,20.976,0,0,0-4.592.7A2.394,2.394,0,0,0,1124.411,884.186Z"/><polygon class="cls-59" points="753.252 778.764 700.918 878.785 742.649 897.334 812.534 808.419 758.219 773.795 753.252 778.764"/><path class="cls-60" d="M751.734,781.659l21.874,1.949L807.1,804.954a4.732,4.732,0,0,1,.464,1.548,18.952,18.952,0,0,0,1.706,6.069l-13.377,17.022-61.418-14.952Z"/><path class="cls-59" d="M741,710.2s111.283-3.642,118.9,72.2-17.222,132.152-17.222,132.152l-41.5,1.326s3.746-84.79-9.837-106.649-49.3-9.125-86.775-7.287c-51.753,2.532-98.369-18.879-82.8-68.56S702.906,705.9,702.906,705.9Z"/><path class="cls-60" d="M618.794,749.591a62.734,62.734,0,0,1,2.742-15.406c13.753.589,40.2,1.686,42.948,1.447,3.727-.323,39,5.792,38.907,6.239S750.6,755.857,750.6,755.857s-28.241,22.375-62.448,10.871C657.928,756.555,634.758,754.006,618.794,749.591Z"/><rect class="cls-7" x="701.674" y="835.69" width="103.266" height="0.497" transform="matrix(0.551, -0.835, 0.835, 0.551, -359.286, 1004.462)"/><path d="M838.368,914.7s-.988,12.447,11.761,16.253,35.106,1.327,38.087,20.7H836.051l-19.376-12.252v12.252H803.428l-.821-35.809Z"/><path d="M741.158,897.334s-9.271,4.3.664,15.4,28.32,12.191,26,37.591L722.617,926.81l-11.6-20.534L704.562,918.2l-11.425-7.283,14.488-29.152Z"/><path d="M843.082,938.123c-2.4,1.7-4.948,3-6.312,2.109-1.554-1-1.226-4.44.992-10.509a31.388,31.388,0,0,1,6.936-11.352,20.623,20.623,0,0,1,4.209-7.584c1.861-1.914,3.916-2.5,5.949-1.674a4.318,4.318,0,0,1,2.669,2.938c.024.1.05.193.072.29a10.753,10.753,0,0,1,2.171.258c4.2.93,6.564,4.313,6.175,8.811a8.178,8.178,0,0,1-3.453,6.269c-3.057,2.159-7.554,2.546-11.484,2.346-1.214,1.874-2.149,3.145-2.279,3.322a52.738,52.738,0,0,1-5.185,4.442,21.655,21.655,0,0,0,1.389,4.74l-.455.2A22.143,22.143,0,0,1,843.082,938.123Zm1.258-18.661a31.742,31.742,0,0,0-6.111,10.431c-2.615,7.147-2.091,9.339-1.192,9.924,1.14.734,3.557-.545,5.943-2.256A41.026,41.026,0,0,1,844.34,919.462Zm-1.178,9.434a36.591,36.591,0,0,0,.285,8.323,52.161,52.161,0,0,0,4.9-4.2c.031-.035.892-1.216,2.069-3.03A45.189,45.189,0,0,1,843.162,928.9Zm8.168.625c3.782.155,8.03-.238,10.871-2.248a7.7,7.7,0,0,0,3.244-5.9c.374-4.3-1.786-7.4-5.785-8.288a10.775,10.775,0,0,0-1.97-.244C858.346,917.535,854.208,925.007,851.33,929.521ZM845.2,918.56a42.49,42.49,0,0,0-2,9.837,46.767,46.767,0,0,0,7.543,1.093c2.848-4.461,7.142-12.09,6.44-16.661C853.368,912.873,849.008,914.751,845.2,918.56Zm11.848-6.374a3.8,3.8,0,0,0-2.378-2.615c-1.847-.745-3.664-.22-5.408,1.565a18.721,18.721,0,0,0-3.692,6.388c3.7-3.415,7.841-5.118,11.518-5.183C857.072,912.288,857.06,912.238,857.048,912.186Z"/><path d="M735.736,912.9c-3.016,2.058-6.892,4.436-7.644,3.605-.42-.468-.212-1.661,4.526-6.987a26.745,26.745,0,0,1,9.234-6.892c2.134-2.545,4.4-4.438,6.387-5.142a3.573,3.573,0,0,1,4.4,1.131,3.77,3.77,0,0,1,.795,3.233,9.837,9.837,0,0,1,1.969,1.018c3.039,2.064,3.853,5.488,2.13,8.937a7.006,7.006,0,0,1-4.711,3.895c-5.209,1.259-12.06-2.711-14.735-4.451-.462.332-1.021.731-1.628,1.157a23.418,23.418,0,0,0-2.117,9.5l-.5.015A23.114,23.114,0,0,1,735.736,912.9Zm5.417-9.407a26.892,26.892,0,0,0-8.166,6.359c-4.935,5.546-4.58,6.253-4.525,6.318.362.412,3.682-1.4,7.628-4.119A39.385,39.385,0,0,1,741.153,903.493Zm-2.476,7.534c2.826,1.778,9.283,5.342,14.026,4.192a6.534,6.534,0,0,0,4.386-3.64c1.631-3.258.9-6.358-1.963-8.3a9.3,9.3,0,0,0-1.837-.954C751.574,906.9,741.191,910.27,738.677,911.027Zm-1.439-.347c-.134.279-.266.562-.394.842.26-.186.529-.376.8-.565C737.484,910.845,737.347,910.752,737.238,910.68Zm4.872-7.627a38.128,38.128,0,0,0-4.646,7.172c.146.1.372.257.659.447,1.27-.37,12.959-3.9,14.7-8.518A15.277,15.277,0,0,0,742.11,903.053Zm10.853-1.371a3.247,3.247,0,0,0-.718-2.765,3.08,3.08,0,0,0-3.839-.964,15.033,15.033,0,0,0-5.6,4.291,17.587,17.587,0,0,1,6.143-1.176A12.778,12.778,0,0,1,752.963,901.682Z"/><path class="cls-7" d="M822.63,909.733c15.628-58.562,11.2-103.962-13.161-134.928-18.02-22.9-43.805-33.336-62.267-38.049a149.537,149.537,0,0,0-36.106-4.8l.016.5A148.491,148.491,0,0,1,747.1,737.24c18.381,4.7,44.058,15.089,61.983,37.878,24.262,30.837,28.658,76.085,13.068,134.488Z"/><path class="cls-61" d="M737.663,581.093s-.432-21.616,2-33.091,6.429-10.691,12.694-9.127,9.3-5.216,10.426-10.171,6.436-.261,8.26-1.045-10.866-19.9-9.564-27.466-4-7.478-4.259-7.651-15.3-4.7-15.646-4.7a58.427,58.427,0,0,0-5.822,5.563c-.175.35-3.743,6.869-4,6.869s-9.477.09-9.739.175a27.887,27.887,0,0,0-2.605,4.781c0,.349,1.91,17.822,1.91,17.822l.523,6.866s-.957,11.386-24.6,16.691,14.433,23.729,14.433,23.729,8.6,16.516,8.862,16S737.663,581.093,737.663,581.093Z"/><path class="cls-61" d="M781.248,667.668s9.344,3.6,17.6,3.01,12.4-6.307,21.75,2.076,19.354,15.856,16.271,16.24-6.624-2.2-6.624-2.2,1.224,2.308-2.173,1.209-8.915-4.815-8.915-4.815,3.345,5.606.382,5.34-5.694-6.277-5.694-6.277-8.413-.667-12.837,1.7-21.332-4.473-21.332-4.473Z"/><path class="cls-62" d="M746.093,689.264l38.678-8,1.485-13.2s-39.483-6.9-50.54-9.828-.344,26.107-.344,26.107l-1.68,3.679Z"/><path class="cls-61" d="M779.342,684.353s9.937,1.247,17.8-1.323,10.522-9.107,21.612-3.231,22.6,10.724,19.708,11.843-6.954-.54-6.954-.54,1.738,1.948-1.821,1.7-9.812-2.526-9.812-2.526,4.594,4.639,1.656,5.094-7.036-4.722-7.036-4.722-8.325,1.385-12.052,4.746-21.778.8-21.778.8Z"/><path class="cls-61" d="M737.663,581.093s-.432-21.616,2-33.091,6.429-10.691,12.694-9.127,9.3-5.216,10.426-10.171,6.436-.261,8.26-1.045-10.866-19.9-9.564-27.466-4-7.478-4.259-7.651-15.3-4.7-15.646-4.7a58.427,58.427,0,0,0-5.822,5.563c-.175.35-3.743,6.869-4,6.869s-9.477.09-9.739.175a27.887,27.887,0,0,0-2.605,4.781c0,.349,1.91,17.822,1.91,17.822l.523,6.866s-.957,11.386-24.6,16.691,14.433,23.729,14.433,23.729,8.6,16.516,8.862,16S737.663,581.093,737.663,581.093Z"/><path class="cls-63" d="M698.173,546.715a26.456,26.456,0,0,0,5.645-1.913,47.464,47.464,0,0,0,6.884-2.85c16.98,7.961,24.7,20.627,27.1,25.37q-.053,1.481-.082,2.875l-4.26,2.551s-14.487-1.072-20.777-2.98a45.375,45.375,0,0,1-5.312-2.091C697.843,562.33,680.223,550.744,698.173,546.715Z"/><path class="cls-7" d="M738.845,569.518s17.718,75.994,11.755,186.339c0,0-23.512,15.615-57.96,2.7s-77.5-13.581-77.5-13.581,11.26-181.5,93.4-201.371Z"/><path class="cls-62" d="M632.69,608.189c20.866-52.329,68.02-65.413,75.848-64.584h0S756.563,645.512,750.6,755.857a41.151,41.151,0,0,1-6.837,3.356c-9.36,3.722-27.71,8.124-51.123-.656-34.448-12.916-77.5-13.581-77.5-13.581S611.823,660.518,632.69,608.189Z"/><path d="M748.739,538.105s-8.158-4.089-12.939.632l4.264,7.556S742.17,537.658,748.739,538.105Z"/><path class="cls-62" d="M750.432,713.793l35.607-17.088L784.3,683.536s-39.98,2.831-51.418,2.656,5.962,25.415,5.962,25.415l-.747,3.98Z"/><path class="cls-64" d="M644.947,686.192s-6.957,38.584,20.2,43.22,53.324-9.607,53.324-9.607"/><path class="cls-64" d="M706.717,683.536s-7.123,4.529-6.626,17.418"/><path class="cls-64" d="M705.876,682.758s-10.938,1.4-13.361,9.042"/><path class="cls-64" d="M709.86,602.557s-12.584,75.023-3.143,80.979,75.018,0,75.018,0"/><path class="cls-7" d="M679.968,594.94c-2.862-.145-6.344-2.054-9.077-.816-2.532,1.147-3.919,3.245-6.823,3.757-1.567.275-2.234-2.119-.66-2.395,2.967-.524,4.5-3.3,7.286-3.978,3.245-.788,6.055.782,9.274.95,1.594.083,1.6,2.563,0,2.482Z"/><path class="cls-7" d="M651.486,621.438a1.241,1.241,0,0,1,0-2.481,1.241,1.241,0,0,1,0,2.481Z"/><path class="cls-7" d="M661.164,636.795c.877,1.95,1.554,4.253.02,6.074-1.328,1.581-3.436,2.2-4.846,3.712-1.1,1.171-2.851-.589-1.76-1.759a17.646,17.646,0,0,1,3.647-2.678c1.706-1.076,1.586-2.334.8-4.1-.647-1.453,1.5-2.717,2.142-1.253Z"/><path class="cls-7" d="M643.865,649.264a8.644,8.644,0,0,0-5.335,1.813c-1.272.977-2.508-1.181-1.255-2.144a10.875,10.875,0,0,1,6.59-2.154,1.243,1.243,0,0,1,0,2.485Z"/><path class="cls-7" d="M669.448,676.205c1.935,3.665,2.862,8.278.137,11.776-.986,1.258-2.731-.51-1.756-1.759,1.946-2.493.8-6.255-.529-8.762-.743-1.417,1.4-2.673,2.148-1.255Z"/><path class="cls-7" d="M731.3,710.865c-3.455-.412-6.512-2.2-9.935-2.65-1.565-.2-1.588-2.69,0-2.485,3.435.449,6.5,2.242,9.935,2.655,1.571.185,1.591,2.671,0,2.48Z"/><path class="cls-7" d="M728.571,736.118c-.1,3.675-2.525,6.3-5.879,7.492-1.514.539-2.159-1.861-.66-2.393a5.567,5.567,0,0,0,4.054-5.1,1.243,1.243,0,0,1,2.485,0Z"/><path class="cls-7" d="M686.3,745.474c-4.989-2.931-9.709-5.608-14.975-1.657-1.286.964-2.523-1.193-1.254-2.144,6-4.5,11.693-1.74,17.482,1.654a1.244,1.244,0,0,1-1.253,2.147Z"/><path class="cls-7" d="M643.532,739.636c-3.376-.475-7.026-3.2-7.2-6.83-.074-1.6,2.411-1.589,2.483,0,.12,2.533,3.193,4.127,5.383,4.434,1.581.223.9,2.615-.665,2.4Z"/><path class="cls-7" d="M626.768,699.026a18.894,18.894,0,0,0,1.161-5.675c-.076-1.859-2.212-3.337-3.489-4.377-1.243-1.011.526-2.763,1.756-1.756,1.785,1.454,3.654,3.073,4.126,5.433.467,2.308-.55,4.856-1.16,7.037a1.243,1.243,0,0,1-2.394-.662Z"/><path class="cls-7" d="M733.508,657.509c-2.476,1.921-5.646,2.211-8.051,0-1.182-1.087.578-2.835,1.758-1.757a3.433,3.433,0,0,0,4.539,0c1.246-.968,3.017.776,1.754,1.757Z"/><path class="cls-7" d="M727.777,632.339c-2.655-2.077-4.225-4.976-5.825-7.869-.776-1.4,1.366-2.658,2.146-1.256,1.506,2.725,2.934,5.413,5.435,7.368,1.259.984-.512,2.728-1.756,1.757Z"/><path class="cls-7" d="M704.181,580.533c-1.707-.936-3.782-.824-5.666-.824a1.242,1.242,0,0,1,0-2.482c2.356,0,4.8-.006,6.921,1.159,1.4.773.15,2.919-1.255,2.147Z"/><path class="cls-7" d="M699.956,561.79c-2-1.774-5.624-.987-8.063-.96a1.244,1.244,0,0,1,0-2.487c3.3-.038,7.127-.69,9.819,1.691,1.2,1.064-.561,2.814-1.756,1.756Z"/><path class="cls-7" d="M681.869,565.881c.283,3.532,1.816,6.884,1.706,10.456-.105,3.547-2.922,5.48-5.93,6.642-1.5.571-2.137-1.827-.658-2.4,3.556-1.371,4.518-3.6,3.845-7.189a73.963,73.963,0,0,1-1.445-7.513c-.126-1.6,2.36-1.586,2.482,0Z"/><path class="cls-7" d="M689.24,619.785a10.9,10.9,0,0,0-2.981.614c-1.529.5-2.179-1.9-.661-2.393a13.222,13.222,0,0,1,3.642-.707,1.244,1.244,0,0,1,0,2.486Z"/><path class="cls-7" d="M678.31,650.873c-2.58-.632-3.686,1.483-3.726,3.771a1.241,1.241,0,0,1-2.481,0,7.579,7.579,0,0,1,1.648-4.853,5.061,5.061,0,0,1,5.221-1.314c1.557.382.9,2.775-.662,2.4Z"/><path class="cls-7" d="M629.623,671.45h-6.291a1.241,1.241,0,0,1,0-2.481h6.291a1.241,1.241,0,0,1,0,2.481Z"/><path class="cls-7" d="M737.469,746.059c.689,1.905,2.256,3.35,3.657,4.751a1.243,1.243,0,0,1-1.76,1.754,16.532,16.532,0,0,1-4.291-5.844c-.546-1.509,1.851-2.156,2.394-.661Z"/><path d="M728.044,511s.961-2.613-2.2-3.949A4.65,4.65,0,0,1,728.044,511Z"/><path d="M727.8,509.021s-1.989-1.6-3.076.169C724.722,509.19,725.716,508.106,727.8,509.021Z"/><path class="cls-65" d="M738.845,569.518l-4.393,15.237-44.844-36.219s10.773-4.931,18.93-4.931C708.538,543.605,730.025,552.755,738.845,569.518Z"/><path d="M736.305,509.57s-4.439,1.149-6.177-.8-3.944-4.164-6.168-2.385.188,6.871,3.052,9.541,5.334,8.011,0,11.988-10.55,6.646-11.295-.745,1.554-8.757-4.468-14.535-7.141-19.932,1.736-26.392,9.629-2.977,12.731-12.354,13.129-14.907,23.6-9.941c16.214,7.693,10.06,17.374,21.517,19.745s13.136,18.886,1.709,21.678-14.406-12.114-23.226-9.167S745.154,509.487,736.305,509.57Z"/><path class="cls-7" d="M1055.455,699.767c1.1,4.389-1.576,7.951-5.965,7.951H972.982a10.876,10.876,0,0,1-9.936-7.951l-15.9-63.592c-1.1-4.389,1.572-7.948,5.96-7.948h76.511a10.865,10.865,0,0,1,9.934,7.948Z"/><path class="cls-7" d="M1104.14,700.065a7.652,7.652,0,0,1-7.648,7.653H1002.5a7.653,7.653,0,0,1-7.651-7.653h0a7.651,7.651,0,0,1,7.651-7.656h94a7.651,7.651,0,0,1,7.648,7.656Z"/><circle class="cls-49" cx="1000.146" cy="667.833" r="8.67" transform="translate(-3.43 5.165) rotate(-0.295)"/><path class="cls-66" d="M1046.063,888.036s-2.417,3.51,0,5.487,11.192-.436,15.366,0,38.867,5.712,37.77,45.016-17.568,47.205-22.842,48.526-47.33,2.486-46.8-.571c.523-3.02,10.574-6.677,10.574-6.677L1026.3,962.91s-6.394,24.816-8.148,23.5.022-11.861,1.342-13.182.657-12.077.657-12.077-8.256,25.861-10.233,25.421.349-12.358,1.451-13.672,3.517-28.382-.437-35.217-18.007-24.179-16.688-32.961l18.441-8.342s-.217,3.291.88,3.51,26.13,19.1,38.428,25.472,28.547,26.569,25.909,50.5c0,0,10.978-6.81,12.294-22.618s-.657-40.185-15.81-48.3-24.071.109-29.009-4.418-4.776-12.356-2.8-13.673S1046.419,885.512,1046.063,888.036Z"/><path class="cls-67" d="M1028.166,864.539s-5.6,25.476-14.164,32.5-24.373,10.318-34.033,3.953-13.394-20.2-11.636-29.424a47.317,47.317,0,0,0-.42-18.008s12.93,6.152,15.127,14.711c0,0,20.2,2.418,25.035,5.712C1008.075,873.983,1018.619,864.539,1028.166,864.539Z"/><path class="cls-66" d="M1013.013,875.521c-.325,5.5,8.558,9.719,8.571,9.724a44.292,44.292,0,0,1-4.881,8.864c.172-6.307-3.8-10.788-11.806-10.788-8.021,0-15.377,14.485-15.377,14.485-1.757,1.1-1.757.991-2.085-1.205s-.438-9.113-3.626-15.92c-2.532-5.424-12.1-4.438-15.888-3.81a25.994,25.994,0,0,1,.389-5.172c3.591-.228,7.7-2.16,8.476-4.3.988-2.747-8.873-13.836-8.873-13.836s12.93,6.152,15.127,14.711c0,0,20.2,2.418,25.035,5.712,0,0,10.544-9.444,20.091-9.444C1021.794,866.185,1013.013,875.521,1013.013,875.521Z"/><polygon points="984.513 894.018 984.535 893.691 952.096 890.893 952.069 891.22 984.513 894.018"/><polygon points="952.1 898.651 981.085 895.337 981.051 895.006 952.065 898.329 952.1 898.651"/><polygon points="961.397 910.958 983.788 896.972 983.616 896.694 961.218 910.678 961.397 910.958"/><path class="cls-7" d="M1011.3,893.2s-3.791-7.022-11.863-4.576C999.44,888.62,1000.785,895.645,1011.3,893.2Z"/><path d="M1007.2,894.111h0c-7.03,0-8.14-5.363-8.15-5.417l-.067-.348.341-.1a11.783,11.783,0,0,1,3.424-.535c5.97,0,8.786,5.084,8.9,5.3l.246.455-.5.116A18.6,18.6,0,0,1,1007.2,894.111Zm-7.281-5.217c.353,1.106,1.867,4.424,7.28,4.427h0a17.29,17.29,0,0,0,3.469-.39,9.8,9.8,0,0,0-7.922-4.433A10.767,10.767,0,0,0,999.921,888.894Z"/><path class="cls-68" d="M1006.135,891.5c-.748,1.336-1.637,2.286-1.992,2.114s-.038-1.387.706-2.729,1.631-2.28,1.984-2.111S1006.873,890.162,1006.135,891.5Z"/><path class="cls-7" d="M983.705,886.614s-3.8-7.025-11.869-4.581C971.836,882.033,973.187,889.062,983.705,886.614Z"/><path d="M979.606,887.526c-7.034,0-8.148-5.364-8.159-5.417l-.066-.349.341-.106a11.891,11.891,0,0,1,3.422-.533c5.973,0,8.791,5.089,8.907,5.306l.248.457-.5.116A18.707,18.707,0,0,1,979.606,887.526Zm-7.289-5.219c.355,1.107,1.87,4.429,7.289,4.429a17.236,17.236,0,0,0,3.465-.387,9.813,9.813,0,0,0-7.927-4.438A10.8,10.8,0,0,0,972.317,882.307Z"/><path class="cls-68" d="M978.527,884.92c-.744,1.338-1.636,2.282-1.986,2.113s-.043-1.388.7-2.73,1.635-2.282,1.983-2.111S979.27,883.582,978.527,884.92Z"/><path class="cls-69" d="M994.243,904.724l12.087-5.468c3.481,6.985,10.946,24.262,6.137,35.772a21.165,21.165,0,0,1-1.444,2.851c-.03-.061-.06-.135-.092-.194C1006.978,930.85,992.924,913.506,994.243,904.724Z"/><path class="cls-70" d="M1046.063,893.523c1.4,1.157,4.978.813,8.543.415,1.863,2.368,3.485,5.084,3.4,7.294-5.761.331-9.833,1.859-12.629-.7-4.943-4.531-4.776-12.356-2.8-13.673s3.843-1.342,3.487,1.182C1046.063,888.036,1043.646,891.546,1046.063,893.523Z"/><path class="cls-71" d="M989.386,897.56a2.238,2.238,0,0,0,1.893,2.64c.62.074.629,1.062,0,.984a3.213,3.213,0,0,1-2.887-3.624c.052-.63,1.041-.636.994,0Z"/><path class="cls-71" d="M989.529,897.277a2.662,2.662,0,0,1-3.941,1.7c-.554-.306-.053-1.159.5-.854a1.664,1.664,0,0,0,2.488-1.1c.127-.623,1.08-.36.949.259Z"/><polygon points="1008.097 924.074 1008.383 923.906 994.295 900.522 994.011 900.693 1008.097 924.074"/><polygon points="1013.394 917.195 1013.625 916.961 996.006 899.502 995.77 899.736 1013.394 917.195"/><polygon points="1018.222 907.016 1018.353 906.717 994.222 896.011 994.086 896.31 1018.222 907.016"/><path class="cls-69" d="M1009.917,986.574c-1.978-.438.349-12.358,1.451-13.672.412-.5,1.011-4.64,1.392-9.981a12.763,12.763,0,0,1,5.75,2.7C1016.236,971.648,1011.3,986.879,1009.917,986.574Z"/><path class="cls-69" d="M1020.311,967.286a25.389,25.389,0,0,1,3.316,4.436c-1.641,4.987-4.549,15.383-5.476,14.69-1.753-1.319.022-11.861,1.342-13.182C1020.106,972.619,1020.289,969.956,1020.311,967.286Z"/></g><g id="light2"><rect class="cls-47" x="715.726" y="-164" width="2.274" height="365.4"/><path class="cls-47" d="M732.343,244.81c0,6.623-6.265,11.991-13.989,11.991s-13.989-5.368-13.989-11.991,6.262-11.99,13.989-11.99S732.343,238.188,732.343,244.81Z"/><path class="cls-7" d="M779.972,243.144,729.228,195c.036-.385.117-.757.117-1.152V175.865a11.991,11.991,0,1,0-23.982,0v17.986a11.807,11.807,0,0,0,.378,2.828c-9.651,9.1-46.861,44.15-50.338,46.465Z"/><rect class="cls-47" x="1328.726" y="-164" width="2.274" height="365.4"/><path class="cls-47" d="M1345.343,244.81c0,6.623-6.265,11.991-13.989,11.991s-13.989-5.368-13.989-11.991,6.262-11.99,13.989-11.99S1345.343,238.188,1345.343,244.81Z"/><path class="cls-7" d="M1392.972,243.144,1342.228,195c.036-.385.117-.757.117-1.152V175.865a11.991,11.991,0,1,0-23.982,0v17.986a11.807,11.807,0,0,0,.378,2.828c-9.651,9.1-46.861,44.15-50.338,46.465Z"/></g></svg>